<svg xmlns="http://www.w3.org/2000/svg" xmlns:svg="http://www.w3.org/2000/svg" id="svg7384" width="24" height="24" version="1.1"><metadata id="metadata90"/><title id="title9167">Gnome Symbolic Icon Theme</title><defs id="defs7386"><linearGradient id="linearGradient19282" gradientTransform="matrix(-2.7365795,0.28202934,-0.18908311,-0.99988321,239.54008,-879.45557)"><stop id="stop19284" offset="0" style="stop-color:#666;stop-opacity:1"/></linearGradient></defs><g id="layer9" transform="translate(-401.00015,-339)" style="display:inline;opacity:1"><path id="path857" d="M 12 3 C 7.02944 3 3 7.02944 3 12 C 3 16.97056 7.02944 21 12 21 C 16.97056 21 21 16.97056 21 12 C 21 7.02944 16.97056 3 12 3 z M 12 10 A 2 2 0 0 1 14 12 A 2 2 0 0 1 12 14 A 2 2 0 0 1 10 12 A 2 2 0 0 1 12 10 z" transform="translate(401.00015,339)" style="display:inline;fill:gray;fill-rule:evenodd;stroke-width:.5;stroke-linecap:round;stroke-linejoin:round"/></g></svg>