<svg xmlns="http://www.w3.org/2000/svg" xmlns:svg="http://www.w3.org/2000/svg" id="svg8" width="24" height="24" version="1.1"><path id="path998" d="M 10.5 3 A 7.5 7.5 0 0 0 3 10.5 A 7.5 7.5 0 0 0 10.5 18 A 7.5 7.5 0 0 0 15.4375 16.144531 L 20.646484 21.353516 L 21.353516 20.646484 L 16.144531 15.4375 A 7.5 7.5 0 0 0 18 10.5 A 7.5 7.5 0 0 0 10.5 3 z M 10.5 4 A 6.5 6.5 0 0 1 17 10.5 A 6.5 6.5 0 0 1 10.5 17 A 6.5 6.5 0 0 1 4 10.5 A 6.5 6.5 0 0 1 10.5 4 z M 7 10 L 7 11 L 14 11 L 14 10 L 7 10 z" style="fill:gray;fill-rule:evenodd;stroke-linecap:round;fill-opacity:1"/></svg>