<svg xmlns="http://www.w3.org/2000/svg" xmlns:svg="http://www.w3.org/2000/svg" id="svg8" width="24" height="24" version="1.1"><metadata id="metadata14"/><path id="path1472" d="m 18,3 v 1 h -0.5 -7 c -0.999999,0 -1.70623,0.036708 -2.027344,0.1972656 -0.160557,0.080279 -0.244995,0.162567 -0.328125,0.3496094 -0.08313,0.1870424 -0.144531,0.4947921 -0.144531,0.953125 v 13 c 0,0.458333 0.0614,0.766083 0.144531,0.953125 0.08313,0.187042 0.167568,0.269331 0.328125,0.349609 0.321114,0.160557 1.027345,0.197266 2.027344,0.197266 h 7 0.5 v 1 h -0.5 -7 c -0.999999,0 -1.793771,0.03671 -2.472656,-0.302734 -0.339443,-0.169722 -0.630005,-0.462434 -0.796875,-0.837891 -0.16687,-0.375457 -0.230469,-0.817709 -0.230469,-1.359375 v -13 c 0,-0.5416661 0.0636,-0.983918 0.230469,-1.359375 0.16687,-0.375457 0.457432,-0.6681694 0.796875,-0.8378906 0.678885,-0.3394424 1.472657,-0.3027344 2.472656,-0.3027344 h 7 z m -5.5,4.7929688 0.353516,0.3535156 3.853515,3.8535156 -3.853515,3.853516 -0.353516,0.353515 -0.707031,-0.707031 0.353515,-0.353516 3.146485,-3.146484 -3.146485,-3.1464844 -0.353515,-0.3535156 z" style="color:#000;fill:gray;fill-opacity:1;stroke-linecap:square;-inkscape-stroke:none"/></svg>