<svg xmlns="http://www.w3.org/2000/svg" xmlns:svg="http://www.w3.org/2000/svg" id="svg8" width="24" height="24" version="1.1"><path id="path1472" d="M 6 3 L 6 4 L 6.5 4 L 13.5 4 C 14.499999 4 15.20623 4.036708 15.527344 4.1972656 C 15.687901 4.2775446 15.772339 4.3598326 15.855469 4.546875 C 15.938599 4.7339174 16 5.0416671 16 5.5 L 16 18.5 C 16 18.958333 15.9386 19.266083 15.855469 19.453125 C 15.772339 19.640167 15.687901 19.722456 15.527344 19.802734 C 15.20623 19.963291 14.499999 20 13.5 20 L 6.5 20 L 6 20 L 6 21 L 6.5 21 L 13.5 21 C 14.499999 21 15.293771 21.03671 15.972656 20.697266 C 16.312099 20.527544 16.602661 20.234832 16.769531 19.859375 C 16.936401 19.483918 17 19.041666 17 18.5 L 17 5.5 C 17 4.9583339 16.9364 4.516082 16.769531 4.140625 C 16.602661 3.765168 16.312099 3.4724556 15.972656 3.3027344 C 15.293771 2.963292 14.499999 3 13.5 3 L 6.5 3 L 6 3 z M 11.5 7.7929688 L 11.146484 8.1464844 L 7.2929688 12 L 11.146484 15.853516 L 11.5 16.207031 L 12.207031 15.5 L 11.853516 15.146484 L 8.7070312 12 L 11.853516 8.8535156 L 12.207031 8.5 L 11.5 7.7929688 z" style="color:#000;fill:gray;stroke-linecap:square;-inkscape-stroke:none;fill-opacity:1"/><metadata id="metadata14"/></svg>