<svg xmlns="http://www.w3.org/2000/svg" xmlns:svg="http://www.w3.org/2000/svg" id="svg10" width="24" height="24" version="1.1"><metadata id="metadata16"/><path id="path905" d="M 10.822266 2.0234375 A 9.5 9.5 0 0 0 4.7832031 4.7832031 A 9.5 9.5 0 0 0 4.7832031 18.216797 L 5.4902344 17.509766 A 8.5 8.5 0 0 1 5.4902344 5.4902344 A 8.5 8.5 0 0 1 17.509766 5.4902344 A 8.5 8.5 0 0 1 17.509766 17.509766 L 18.216797 18.216797 A 9.5 9.5 0 0 0 18.216797 4.7832031 A 9.5 9.5 0 0 0 10.822266 2.0234375 z M 11.5 6 A 5.5 5.5 0 0 0 6.4179688 9.3945312 A 5.5 5.5 0 0 0 7.6113281 15.388672 L 8.3183594 14.681641 A 4.5 4.5 0 0 1 7.3417969 9.7773438 A 4.5 4.5 0 0 1 11.5 7 A 4.5 4.5 0 0 1 15.658203 9.7773438 A 4.5 4.5 0 0 1 14.681641 14.681641 L 15.388672 15.388672 A 5.5 5.5 0 0 0 16.582031 9.3945312 A 5.5 5.5 0 0 0 11.5 6 z M 11.5 10 A 1.5 1.5 0 0 0 10 11.5 A 1.5 1.5 0 0 0 11 12.910156 L 11 22 L 12 22 L 12 12.910156 A 1.5 1.5 0 0 0 13 11.5 A 1.5 1.5 0 0 0 11.5 10 z" style="fill:gray;fill-rule:evenodd;stroke:none;stroke-width:2;stroke-linecap:round;stroke-linejoin:round"/></svg>