<svg xmlns="http://www.w3.org/2000/svg" xmlns:svg="http://www.w3.org/2000/svg" id="svg4" width="24" height="24" version="1.1"><path style="line-height:125%;-inkscape-font-specification:Ubuntu;text-align:center;stroke-width:1" id="path2" fill="gray" d="m 5.39125,4.0006348 c -1.3225,-0.01625 -2.21,0.28 -2.66625,0.8275 -0.47875,0.57 -0.725,1.505 -0.725,2.805 v 7.7349992 c 0,1.3 0.24625,2.235 0.725,2.805 0.45625,0.5475 1.34375,0.8275 2.66625,0.8275 h 13.2175 c 1.3225,0 2.2125,-0.28 2.66875,-0.8275 0.47875,-0.57 0.7225,-1.505 0.7225,-2.805 v -7.7349992 c 0,-1.3 -0.24375,-2.235 -0.7225,-2.805 -0.45625,-0.5475 -1.34625,-0.8275 -2.66875,-0.8275 z m 3.745,3.4575 h 5.45875 v 1.5275 h -3.64 v 1.5874992 h 3.2325 v 1.49375 h -3.2325 v 1.94875 h 3.90875 v 1.5275 h -5.7275 z" font-family="Ubuntu" font-size="15" font-weight="400" letter-spacing="0" text-anchor="middle" word-spacing="0"/></svg>