<svg xmlns="http://www.w3.org/2000/svg" xmlns:svg="http://www.w3.org/2000/svg" id="svg4" width="24" height="24" version="1.1"><path id="path862" d="M 21 2.2929688 L 20.146484 3.1464844 L 2.2929688 21 L 14 21 L 14 20 L 4.7070312 20 L 20 4.7070312 L 20 12.275391 C 20.382432 12.426863 20.72004 12.634737 21 12.884766 L 21 2.2929688 z" style="color:#000;fill:gray;-inkscape-stroke:none"/><path id="rect872" d="m 18.5,13 c -0.86111,0 -1.509235,0.302204 -1.916016,0.708984 -0.40678,0.406781 -0.583984,0.87435 -0.583984,1.291016 v 2 h -1 v 5 h 7 v -5 h -1 v -2 c 0,-0.416666 -0.177204,-0.884235 -0.583984,-1.291016 -0.406781,-0.40678 -1.054906,-0.708984 -1.916016,-0.708984 z m 0,1 c 0.638888,0 0.990765,0.197797 1.208984,0.416016 0.218219,0.218219 0.291016,0.500651 0.291016,0.583984 v 2 h -3 v -2 c 0,-0.08333 0.0728,-0.365765 0.291016,-0.583984 0.218219,-0.218219 0.570096,-0.416016 1.208984,-0.416016 z" style="fill:gray;fill-opacity:1;fill-rule:evenodd;stroke:none;stroke-width:.5;stroke-linecap:round;stroke-linejoin:round"/></svg>