<svg xmlns="http://www.w3.org/2000/svg" xmlns:svg="http://www.w3.org/2000/svg" id="svg4" width="24" height="24" version="1.1"><path id="rect872" d="m 18.5,13 c -0.86111,0 -1.509235,0.302204 -1.916016,0.708984 -0.40678,0.406781 -0.583984,0.87435 -0.583984,1.291016 v 2 h -1 v 5 h 7 v -5 h -1 v -2 c 0,-0.416666 -0.177204,-0.884235 -0.583984,-1.291016 -0.406781,-0.40678 -1.054906,-0.708984 -1.916016,-0.708984 z m 0,1 c 0.638888,0 0.990765,0.197797 1.208984,0.416016 0.218219,0.218219 0.291016,0.500651 0.291016,0.583984 v 2 h -3 v -2 c 0,-0.08333 0.0728,-0.365765 0.291016,-0.583984 0.218219,-0.218219 0.570096,-0.416016 1.208984,-0.416016 z" style="fill:gray;fill-opacity:1;fill-rule:evenodd;stroke:none;stroke-width:.5;stroke-linecap:round;stroke-linejoin:round"/><path id="path862" d="M 21 2.2929688 L 20.146484 3.1464844 L 2.2929688 21 L 14 21 L 14 17 C 14.000055 16.447738 14.447738 16.000055 15 16 L 15 15 C 15 14.299808 15.301927 13.576981 15.876953 13.001953 C 16.484171 12.394736 17.404926 12 18.5 12 C 19.523177 12 20.394742 12.344219 21 12.884766 L 21 2.2929688 z" style="color:#000;fill:gray;-inkscape-stroke:none"/></svg>