<svg xmlns="http://www.w3.org/2000/svg" xmlns:svg="http://www.w3.org/2000/svg" id="svg10" width="24" height="24" version="1.1"><path id="rect864" d="M 11.5 2 C 9.561 2 8 3.561 8 5.5 L 8 12.5 C 8 14.439 9.561 16 11.5 16 C 13.439 16 15 14.439 15 12.5 L 15 5.5 C 15 3.561 13.439 2 11.5 2 z M 11.5 3 A 2.5 2.5 0 0 1 14 5.5 L 14 12.5 A 2.5 2.5 0 0 1 11.5 15 A 2.5 2.5 0 0 1 9 12.5 L 9 5.5 A 2.5 2.5 0 0 1 11.5 3 z M 6 11 L 6 12.5 A 5.5 5.5 0 0 0 11 17.966797 L 11 21.011719 C 9.255902 21.083229 8 21.5 8 21.5 L 8 22 L 15 22 L 15 21.5 C 15 21.5 13.744098 21.083229 12 21.011719 L 12 17.966797 A 5.5 5.5 0 0 0 17 12.5 L 17 11 L 16 11 L 16 12.5 A 4.5 4.5 0 0 1 12 16.964844 L 12 16.5 L 11 16.5 L 11 16.964844 A 4.5 4.5 0 0 1 7 12.5 L 7 11 L 6 11 z" style="fill:gray;fill-rule:evenodd;stroke-width:.5;stroke-linecap:round;stroke-linejoin:round;fill-opacity:1"/></svg>