<svg xmlns="http://www.w3.org/2000/svg" xmlns:svg="http://www.w3.org/2000/svg" id="svg10" width="24" height="24" version="1.1"><path id="rect864" d="m 11.5,2 c -1.939,0 -3.5,1.561 -3.5,3.5 v 7 c 0,1.939 1.561,3.5 3.5,3.5 1.939,0 3.5,-1.561 3.5,-3.5 v -7 c 0,-1.939 -1.561,-3.5 -3.5,-3.5 z m -5.5,9 v 1.5 c 0.00539,2.839827 2.1719266,5.208636 5,5.466797 v 3.044922 c -1.744098,0.07151 -3,0.488281 -3,0.488281 v 0.5 h 7 v -0.5 c 0,0 -1.255902,-0.416771 -3,-0.488281 v -3.044922 c 2.828073,-0.258161 4.994615,-2.62697 5,-5.466797 v -1.5 h -1 v 1.5 c -0.0037,2.28901 -1.72516,4.210512 -4,4.464844 v -0.464844 h -1 v 0.464844 c -2.27484,-0.254332 -3.9962905,-2.175834 -4,-4.464844 v -1.5 z" style="fill:gray;fill-opacity:1;fill-rule:evenodd;stroke-width:.5;stroke-linecap:round;stroke-linejoin:round"/></svg>