<svg xmlns="http://www.w3.org/2000/svg" xmlns:svg="http://www.w3.org/2000/svg" id="svg4" width="24" height="24" version="1.1"><path id="path844" d="M 12 3 A 9 9 0 0 0 3 12 A 9 9 0 0 0 12 21 A 9 9 0 0 0 21 12 A 9 9 0 0 0 12 3 z M 12 4 A 8 8 0 0 1 20 12 A 8 8 0 0 1 12 20 A 8 8 0 0 1 4 12 A 8 8 0 0 1 12 4 z M 9.3535156 8.6464844 L 8.6464844 9.3535156 L 11.292969 12 L 8.6464844 14.646484 L 9.3535156 15.353516 L 12 12.707031 L 14.646484 15.353516 L 15.353516 14.646484 L 12.707031 12 L 15.353516 9.3535156 L 14.646484 8.6464844 L 12 11.292969 L 9.3535156 8.6464844 z" style="fill:gray;fill-rule:evenodd;stroke-width:.5;stroke-linecap:round;fill-opacity:1"/></svg>