<svg xmlns="http://www.w3.org/2000/svg" xmlns:svg="http://www.w3.org/2000/svg" id="svg4" width="24" height="24" version="1.1"><path id="rect844" d="M 5 4 L 5 18 L 6 18 L 6 17 L 6 6 L 6 5 L 16 5 L 16 6 L 7 6 L 7 20 L 19 20 L 19 6 L 17 6 L 17 4 L 5 4 z M 8 7 L 18 7 L 18 19 L 8 19 L 8 7 z M 10 9 L 10 10 L 16 10 L 16 9 L 10 9 z M 10 11 L 10 12 L 16 12 L 16 11 L 10 11 z M 10 13 L 10 14 L 13 14 L 13 13 L 10 13 z" style="fill:gray;fill-rule:evenodd;stroke-width:.5;stroke-linecap:round;fill-opacity:1"/></svg>