<svg xmlns="http://www.w3.org/2000/svg" xmlns:svg="http://www.w3.org/2000/svg" id="svg7384" width="24" height="24" version="1.1"><metadata id="metadata90"/><title id="title9167">Gnome Symbolic Icon Theme</title><defs id="defs7386"><linearGradient id="linearGradient19282" gradientTransform="matrix(-2.7365795,0.28202934,-0.18908311,-0.99988321,239.54008,-879.45557)"><stop id="stop19284" offset="0" style="stop-color:#666;stop-opacity:1"/></linearGradient></defs><g id="layer9" transform="translate(-401.00015,-339)" style="display:inline;opacity:1"><path id="rect857" d="M 6 3 C 4.338 3 3 4.338 3 6 L 3 18 C 3 19.662 4.338 21 6 21 L 18 21 C 19.662 21 21 19.662 21 18 L 21 6 C 21 4.338 19.662 3 18 3 L 6 3 z M 6.25 4 L 17.75 4 C 18.9965 4 20 5.0035 20 6.25 L 20 17.75 C 20 18.9965 18.9965 20 17.75 20 L 6.25 20 C 5.0035 20 4 18.9965 4 17.75 L 4 6.25 C 4 5.0035 5.0035 4 6.25 4 z" transform="translate(401.00015,339)" style="fill:gray;fill-rule:evenodd;stroke-width:.5;stroke-linecap:square"/></g></svg>