<svg xmlns="http://www.w3.org/2000/svg" xmlns:svg="http://www.w3.org/2000/svg" id="svg7384" width="24" height="24" version="1.1"><metadata id="metadata90"/><title id="title9167">Gnome Symbolic Icon Theme</title><defs id="defs7386"><linearGradient id="linearGradient19282" gradientTransform="matrix(-2.7365795,0.28202934,-0.18908311,-0.99988321,239.54008,-879.45557)"><stop id="stop19284" offset="0" style="stop-color:#666;stop-opacity:1"/></linearGradient></defs><g id="layer9" transform="translate(-401.00015,-339)" style="display:inline;opacity:1"><polygon id="path6712" points="11.05 4.173 11.05 4.173 10.984 4.231 6.25 8.378 3.474 5.997 2.635 6.946 6.25 10.75 11.75 4.963" transform="matrix(1.5359314,0,0,1.5359314,401.95294,339.53929)" style="fill:gray;fill-opacity:1;fill-rule:evenodd;stroke:none;stroke-width:.816918"/><path id="rect857" d="m 407.00015,342 c -1.662,0 -3,1.338 -3,3 v 12 c 0,1.662 1.338,3 3,3 h 12 c 1.662,0 3,-1.338 3,-3 v -12 c 0,-1.662 -1.338,-3 -3,-3 z m 0.25,1 h 11.5 c 1.2465,0 2.25,1.0035 2.25,2.25 v 11.5 c 0,1.2465 -1.0035,2.25 -2.25,2.25 h -11.5 c -1.2465,0 -2.25,-1.0035 -2.25,-2.25 v -11.5 c 0,-1.2465 1.0035,-2.25 2.25,-2.25 z" style="display:inline;fill:gray;fill-rule:evenodd;stroke-width:.5;stroke-linecap:square"/></g></svg>