<svg xmlns="http://www.w3.org/2000/svg" xmlns:svg="http://www.w3.org/2000/svg" id="svg7384" width="24" height="24" version="1.1"><metadata id="metadata20854"/><defs id="defs7386"><linearGradient id="linearGradient5606"><stop id="stop5608" offset="0" style="stop-color:#000;stop-opacity:1"/></linearGradient><linearGradient id="linearGradient4526"><stop id="stop4528" offset="0" style="stop-color:#fff;stop-opacity:1"/></linearGradient><linearGradient id="linearGradient3600-4"><stop id="stop3602-7" offset="0" style="stop-color:#f4f4f4;stop-opacity:1"/><stop id="stop3604-6" offset="1" style="stop-color:#dbdbdb;stop-opacity:1"/></linearGradient></defs><path id="rect193" d="m 11,2 c -0.808712,0 -1.4369347,0.3484516 -1.7460938,0.8691406 -0.3091587,0.520688 -0.3353791,1.1211904 -0.2832031,1.6777344 0.050454,0.5381741 0.1845648,1.0581169 0.3105469,1.453125 h -6.28125 v 5.671875 l 0.2988281,-0.130859 c 0,0 1.0412089,-0.465961 2.1542969,-0.570313 0.556544,-0.05218 1.1570459,-0.02596 1.6777344,0.283203 0.5206884,0.309159 0.8691406,0.937383 0.8691406,1.746094 0,0.808711 -0.3484522,1.436935 -0.8691406,1.746094 -0.5206885,0.309163 -1.1211904,0.335383 -1.6777344,0.283203 -1.113088,-0.104352 -2.1542969,-0.570313 -2.1542969,-0.570313 l -0.2988281,-0.130859 v 6.671875 h 6.671875 l -0.1308594,-0.298828 c 0,0 -0.4659604,-1.041209 -0.5703125,-2.154297 -0.052176,-0.556544 -0.025956,-1.157046 0.2832031,-1.677734 0.3091589,-0.520689 0.9373828,-0.869141 1.7460938,-0.869141 0.808711,0 1.436935,0.348452 1.746094,0.869141 0.309163,0.520688 0.335383,1.12119 0.283203,1.677734 -0.104352,1.113088 -0.570313,2.154297 -0.570313,2.154297 l -0.130859,0.298828 h 5.671875 v -6.28125 c 0.395008,0.125982 0.91495,0.260093 1.453125,0.310547 0.556543,0.05218 1.157046,0.02596 1.677734,-0.283203 0.520689,-0.309159 0.869141,-0.937383 0.869141,-1.746094 0,-0.808711 -0.348453,-1.436935 -0.869141,-1.746094 -0.520688,-0.309159 -1.12119,-0.335379 -1.677734,-0.283203 -0.538175,0.05045 -1.058117,0.184565 -1.453125,0.310547 v -5.28125 h -5.28125 c 0.125982,-0.3950081 0.260093,-0.9149509 0.310547,-1.453125 0.05218,-0.556544 0.02596,-1.1570464 -0.283203,-1.6777344 -0.309159,-0.520689 -0.937383,-0.8691406 -1.746094,-0.8691406 z" style="opacity:1;fill:gray;fill-rule:evenodd;stroke:none;stroke-linecap:square;fill-opacity:1"/></svg>