<svg xmlns="http://www.w3.org/2000/svg" xmlns:svg="http://www.w3.org/2000/svg" id="svg4" width="24" height="24" version="1.1"><path id="path847" d="m 18.339844,2 -10.0000002,1.9999996 c -0.1880537,0 -0.3398438,0.223 -0.3398438,0.5 v 12.0019534 c -0.4324959,-0.325252 -0.9588516,-0.50139 -1.5,-0.501953 -1.3807119,0 -2.5,1.119288 -2.5,2.5 0,1.380712 1.1192881,2.5 2.5,2.5 1.3389764,-0.0031 2.4377952,-1.060563 2.4921875,-2.398438 0.00451,-0.03261 0.00781,-0.06694 0.00781,-0.101562 v -10.5898442 l 8.9999995,-1.8007812 v 9.3925784 c -0.432496,-0.325252 -0.958852,-0.50139 -1.5,-0.501953 -1.380711,0 -2.5,1.119288 -2.5,2.5 0,1.380712 1.119289,2.5 2.5,2.5 1.338977,-0.0031 2.437796,-1.060563 2.492188,-2.398438 0.0045,-0.03261 0.0078,-0.06694 0.0078,-0.101562 v -15.0000004 c 0,-0.277 -0.15179,-0.5 -0.339844,-0.5 z" style="fill:gray;fill-rule:evenodd;stroke-linecap:square;stroke-linejoin:round;fill-opacity:1"/></svg>