<svg xmlns="http://www.w3.org/2000/svg" xmlns:svg="http://www.w3.org/2000/svg" id="svg7384" width="24" height="24" version="1.1"><metadata id="metadata20854"/><defs id="defs7386"><linearGradient id="linearGradient5606"><stop id="stop5608" offset="0" style="stop-color:#000;stop-opacity:1"/></linearGradient><linearGradient id="linearGradient4526"><stop id="stop4528" offset="0" style="stop-color:#fff;stop-opacity:1"/></linearGradient><linearGradient id="linearGradient3600-4"><stop id="stop3602-7" offset="0" style="stop-color:#f4f4f4;stop-opacity:1"/><stop id="stop3604-6" offset="1" style="stop-color:#dbdbdb;stop-opacity:1"/></linearGradient></defs><path id="path47" d="M 11.5 2 A 9.5 9.5 0 0 0 2 11.5 A 9.5 9.5 0 0 0 11.5 21 A 9.5 9.5 0 0 0 21 11.5 A 9.5 9.5 0 0 0 11.5 2 z M 11.5 3 A 8.5 8.5 0 0 1 20 11.5 A 8.5 8.5 0 0 1 11.5 20 A 8.5 8.5 0 0 1 3 11.5 A 8.5 8.5 0 0 1 11.5 3 z" style="fill:gray;fill-rule:evenodd;stroke-linecap:square;stroke-linejoin:round"/><path style="color:#000;fill:gray;-inkscape-stroke:none" id="path85" d="m 11,6 v 6.1875 l 3.623047,4.142578 0.753906,-0.660156 -3.376953,-3.857422 v -5.8125 z"/></svg>