<svg xmlns="http://www.w3.org/2000/svg" xmlns:svg="http://www.w3.org/2000/svg" id="svg4" width="24" height="24" version="1.1"><path id="path845" d="M 12 2 A 10 10 0 0 0 2 12 A 10 10 0 0 0 12 22 A 10 10 0 0 0 22 12 A 10 10 0 0 0 12 2 z M 12 3 A 9 9 0 0 1 21 12 A 9 9 0 0 1 12 21 A 9 9 0 0 1 3 12 A 9 9 0 0 1 12 3 z M 8.3535156 7.6464844 L 7.6464844 8.3535156 L 11.292969 12 L 7.6464844 15.646484 L 8.3535156 16.353516 L 12 12.707031 L 15.646484 16.353516 L 16.353516 15.646484 L 12.707031 12 L 16.353516 8.3535156 L 15.646484 7.6464844 L 12 11.292969 L 8.3535156 7.6464844 z" style="fill:gray;fill-rule:evenodd;stroke-linecap:square;stroke-linejoin:round;fill-opacity:1"/></svg>