<svg xmlns="http://www.w3.org/2000/svg" xmlns:svg="http://www.w3.org/2000/svg" id="svg4" width="24" height="24" version="1.1"><path id="path80" d="M 11 2 L 11 3.0351562 A 8.5 8.5 0 0 0 3.0351562 11 L 2 11 L 2 12 L 3.0351562 12 A 8.5 8.5 0 0 0 11 19.964844 L 11 21 L 12 21 L 12 19.964844 A 8.5 8.5 0 0 0 19.964844 12 L 21 12 L 21 11 L 19.984375 11 A 8.5 8.5 0 0 0 12 3.015625 L 12 2 L 11 2 z M 11.5 9 A 2.5 2.5 0 0 1 14 11.5 A 2.5 2.5 0 0 1 11.5 14 A 2.5 2.5 0 0 1 9 11.5 A 2.5 2.5 0 0 1 11.5 9 z" style="fill:gray;fill-opacity:1;fill-rule:evenodd;stroke-linecap:square;stroke-linejoin:round"/></svg>