<svg xmlns="http://www.w3.org/2000/svg" xmlns:svg="http://www.w3.org/2000/svg" id="svg4" width="24" height="24" version="1.1"><metadata id="metadata10"/><path id="path3032-7" d="m 13.398926,2 c -0.505563,1.067825 -0.997947,2.1503828 -1.474609,3.2470702 -0.122677,0.2822466 -0.249806,0.6013466 -0.373536,0.8911134 l 1.306153,3.4228514 c 0.233752,-0.6350425 0.47427,-1.2940825 0.693359,-1.8676756 0.433338,-1.0967 0.815236,-2.0281813 1.147461,-2.7929688 0.317775,0.735925 0.692151,1.6598836 1.125489,2.7709961 0.371225,0.9518246 0.759531,1.9995508 1.152344,3.0786133 h -3.66211 l 0.95459,2.5 h 3.430176 c 0.202225,0.606063 0.508435,1.41987 0.725097,1.99707 0.216663,0.5772 0.427658,1.161305 0.629883,1.75293 h 2.946777 c -0.563337,-1.601737 -1.105976,-3.07961 -1.625976,-4.436035 -0.505562,-1.356412 -1.003029,-2.642855 -1.494141,-3.85498 -0.476663,-1.2121256 -0.954001,-2.3652398 -1.430664,-3.4619148 -0.476662,-1.0966873 -0.966606,-2.1792452 -1.472167,-3.2470702 z" style="font-style:normal;font-variant:normal;font-weight:500;font-stretch:normal;font-size:17.3333px;line-height:1.25;font-family:Ubuntu;-inkscape-font-specification:'Ubuntu, Medium';font-variant-ligatures:normal;font-variant-caps:normal;font-variant-numeric:normal;font-feature-settings:normal;text-align:start;letter-spacing:0;word-spacing:0;writing-mode:lr-tb;text-anchor:start;fill:gray;fill-opacity:1;stroke:none;stroke-width:.9995"/><path id="path876" d="m 10.34375,7 h -1.6875 l -5.2109375,13.75 h -1.4453125 v 1.25 h 3.75 v -1.25 h -0.9692383 l 1.4282227,-3.75 h 5.2880856 l 1.428223,3.75 h -0.925293 v 1.25 h 5 v -1.25 h -1.401368 z m -1.4907226,3.061524 2.1679686,5.688476 h -4.3359374 z" style="color:#000;font-style:normal;font-variant:normal;font-weight:400;font-stretch:normal;font-size:medium;line-height:normal;font-family:sans-serif;font-variant-ligatures:normal;font-variant-position:normal;font-variant-caps:normal;font-variant-numeric:normal;font-variant-alternates:normal;font-variant-east-asian:normal;font-feature-settings:normal;font-variation-settings:normal;text-indent:0;text-align:start;text-decoration:none;text-decoration-line:none;text-decoration-style:solid;text-decoration-color:#000;letter-spacing:normal;word-spacing:normal;text-transform:none;writing-mode:lr-tb;direction:ltr;text-orientation:mixed;dominant-baseline:auto;baseline-shift:baseline;text-anchor:start;white-space:normal;shape-padding:0;shape-margin:0;inline-size:0;clip-rule:nonzero;display:inline;overflow:visible;visibility:visible;isolation:auto;mix-blend-mode:normal;color-interpolation:sRGB;color-interpolation-filters:linearRGB;solid-color:#000;solid-opacity:1;vector-effect:none;fill:gray;fill-opacity:1;fill-rule:nonzero;stroke:none;stroke-width:1px;stroke-linecap:butt;stroke-linejoin:miter;stroke-miterlimit:4;stroke-dasharray:none;stroke-dashoffset:0;stroke-opacity:1;color-rendering:auto;image-rendering:auto;shape-rendering:auto;text-rendering:auto;enable-background:accumulate;stop-color:#000"/></svg>