<svg xmlns="http://www.w3.org/2000/svg" xmlns:svg="http://www.w3.org/2000/svg" id="svg4" width="24" height="24" version="1.1"><path style="color:#000;fill:gray;-inkscape-stroke:none" id="path41" d="m 6.8828125,4.0800781 c -1.5212113,0.3246493 -2.5336716,1.6605417 -2.8027344,3.4023438 -0.5381256,3.4836041 1.5742365,8.7782061 7.6210939,13.2949221 l 0.298828,0.222656 0.298828,-0.222656 c 6.046857,-4.516716 8.15922,-9.811318 7.621094,-13.2949221 -0.269063,-1.7418021 -1.281523,-3.0776945 -2.802735,-3.4023438 -1.435834,-0.3064287 -3.202223,0.3423 -5.117187,1.9082031 -1.914964,-1.5659031 -3.6813526,-2.2146318 -5.1171875,-1.9082031 z m 0.2089844,0.9785156 c 1.0776076,-0.2299776 2.6689283,0.2251638 4.5800781,1.890625 l 0.328125,0.2851563 0.328125,-0.2851563 c 1.91115,-1.6654612 3.502471,-2.1206026 4.580078,-1.890625 1.077608,0.2299777 1.797487,1.1134625 2.023438,2.5761719 0.442674,2.8656924 -1.375982,7.7711654 -6.931641,12.0664064 -5.5556596,-4.295241 -7.374315,-9.200714 -6.9316406,-12.0664064 0.2259503,-1.4627094 0.9458298,-2.3461942 2.0234375,-2.5761719 z"/></svg>