<svg xmlns="http://www.w3.org/2000/svg" xmlns:svg="http://www.w3.org/2000/svg" id="svg854" width="24" height="24" version="1.1"><metadata id="metadata860"/><path id="path953" d="M 18.585938 4 L 16.558594 6.0273438 C 15.297939 5.4096187 13.789665 5 12 5 C 4.6904834 5 2.0332031 11.820312 2.0332031 11.820312 L 1.9648438 12 L 2.0332031 12.179688 C 2.0332031 12.179688 3.0912284 14.883985 5.6992188 16.886719 L 3.2929688 19.292969 L 2.5859375 20 L 5.4140625 20 L 7.4414062 17.972656 L 9.2441406 16.169922 L 9.9863281 15.427734 L 10.722656 14.691406 L 13.425781 11.988281 L 15.445312 9.96875 L 16.167969 9.2460938 L 18.302734 7.1113281 L 20.707031 4.7070312 L 21.414062 4 L 18.585938 4 z M 12 7 A 5 5 0 0 1 14.751953 7.8339844 L 14.015625 8.5703125 A 4 4 0 0 0 12 8 A 4 4 0 0 0 8 12 A 4 4 0 0 0 8.5800781 14.005859 L 7.8320312 14.753906 A 5 5 0 0 1 7 12 A 5 5 0 0 1 12 7 z M 19.775391 8.4667969 L 16.949219 11.292969 A 5 5 0 0 1 17 12 A 5 5 0 0 1 12 17 A 5 5 0 0 1 11.310547 16.931641 L 9.5234375 18.71875 C 10.281911 18.897846 11.105989 19 12 19 C 19.309516 19 21.966797 12.179688 21.966797 12.179688 L 22.035156 12 L 21.966797 11.820312 C 21.966797 11.820312 21.315774 10.152698 19.775391 8.4667969 z M 12 9 A 3 3 0 0 1 12.882812 9.1328125 A 1.5 1.5 0 0 0 12 10.5 A 1.5 1.5 0 0 0 12.011719 10.574219 L 9.3027344 13.283203 A 3 3 0 0 1 9 12 A 3 3 0 0 1 12 9 z M 15.96875 12.273438 L 14.121094 14.121094 L 12.273438 15.96875 A 4 4 0 0 0 15.96875 12.273438 z" style="color:#000;fill:gray;fill-opacity:1;-inkscape-stroke:none"/></svg>