<svg xmlns="http://www.w3.org/2000/svg" xmlns:svg="http://www.w3.org/2000/svg" id="svg7384" width="24" height="24" version="1.1"><metadata id="metadata20854"/><defs id="defs7386"><linearGradient id="linearGradient5606"><stop id="stop5608" offset="0" style="stop-color:#000;stop-opacity:1"/></linearGradient><linearGradient id="linearGradient4526"><stop id="stop4528" offset="0" style="stop-color:#fff;stop-opacity:1"/></linearGradient><linearGradient id="linearGradient3600-4"><stop id="stop3602-7" offset="0" style="stop-color:#f4f4f4;stop-opacity:1"/><stop id="stop3604-6" offset="1" style="stop-color:#dbdbdb;stop-opacity:1"/></linearGradient></defs><path id="rect38" d="M 5.5 2 C 5.223 2 5 2.223 5 2.5 C 5 2.777 5.223 3 5.5 3 L 6.8535156 3 C 6.2994365 3.5659355 6 4.4113234 6 5.5 L 6 5.640625 L 9.9121094 12 L 6 18.359375 L 6 18.5 C 6 19.588677 6.2994365 20.434065 6.8535156 21 L 5.5 21 C 5.223 21 5 21.223 5 21.5 C 5 21.777 5.223 22 5.5 22 L 10.5 22 L 13.5 22 L 18.5 22 C 18.777 22 19 21.777 19 21.5 C 19 21.223 18.777 21 18.5 21 L 17.146484 21 C 17.700564 20.434065 18 19.588677 18 18.5 L 18 18.359375 L 14.085938 12 L 18 5.640625 L 18 5.5 C 18 4.4113234 17.700564 3.5659355 17.146484 3 L 18.5 3 C 18.777 3 19 2.777 19 2.5 C 19 2.2229999 18.777 2 18.5 2 L 5.5 2 z M 9.5 7 L 14.5 7 L 12 11 L 9.5 7 z M 12 13 L 12.447266 17.019531 A 4 3 0 0 1 16 20 L 8 20 A 4 3 0 0 1 11.552734 17.019531 L 12 13 z" style="fill:gray;fill-rule:evenodd;stroke-width:2;stroke-linecap:square;stroke-linejoin:round"/></svg>