<svg xmlns="http://www.w3.org/2000/svg" xmlns:svg="http://www.w3.org/2000/svg" id="svg7384" width="24" height="24" version="1.1"><metadata id="metadata20854"/><defs id="defs7386"><linearGradient id="linearGradient5606"><stop id="stop5608" offset="0" style="stop-color:#000;stop-opacity:1"/></linearGradient><linearGradient id="linearGradient4526"><stop id="stop4528" offset="0" style="stop-color:#fff;stop-opacity:1"/></linearGradient><linearGradient id="linearGradient3600-4"><stop id="stop3602-7" offset="0" style="stop-color:#f4f4f4;stop-opacity:1"/><stop id="stop3604-6" offset="1" style="stop-color:#dbdbdb;stop-opacity:1"/></linearGradient></defs><path style="color:#000;fill:gray;-inkscape-stroke:none;fill-opacity:1" id="path3446" d="m 6,3 c -1.0416656,0 -1.9983046,0.1146077 -2.7578125,0.5703125 -0.7595079,0.4557048 -1.2421875,1.3046886 -1.2421875,2.4296875 v 12 c 0,1.124999 0.4826796,1.973983 1.2421875,2.429687 0.7595079,0.455705 1.7161469,0.570313 2.7578125,0.570313 h 12 c 1.041666,0 1.998305,-0.114608 2.757812,-0.570313 0.759508,-0.455704 1.242188,-1.304688 1.242188,-2.429687 v -12 c 0,-1.1249989 -0.48268,-1.9739827 -1.242188,-2.4296875 -0.759507,-0.4557048 -1.716146,-0.5703125 -2.757812,-0.5703125 z m 0,1 h 12 c 0.958332,0 1.751697,0.135393 2.242187,0.4296875 0.490491,0.2942945 0.757813,0.6953134 0.757813,1.5703125 v 11 h -18 v -11 c 0,-0.8749991 0.2673217,-1.276018 0.7578125,-1.5703125 0.4904908,-0.2942945 1.2838551,-0.4296875 2.2421875,-0.4296875 z"/><path id="path2847" d="M 9.5 8 L 5.5625 15 L 15.386719 15 L 12.5 10 L 11.5 11.464844 L 9.5 8 z" style="fill:gray;stroke:none;stroke-width:1px;stroke-linecap:butt;stroke-linejoin:miter;fill-opacity:1"/><circle style="fill:gray;fill-rule:evenodd;stroke:none;stroke-width:2;stroke-linecap:square;stroke-linejoin:round;fill-opacity:1" id="path2937" cx="17.5" cy="7.5" r="1.5"/></svg>