<svg xmlns="http://www.w3.org/2000/svg" xmlns:svg="http://www.w3.org/2000/svg" id="svg7384" width="24" height="24" version="1.1"><metadata id="metadata20854"/><defs id="defs7386"><linearGradient id="linearGradient5606"><stop id="stop5608" offset="0" style="stop-color:#000;stop-opacity:1"/></linearGradient><linearGradient id="linearGradient4526"><stop id="stop4528" offset="0" style="stop-color:#fff;stop-opacity:1"/></linearGradient><linearGradient id="linearGradient3600-4"><stop id="stop3602-7" offset="0" style="stop-color:#f4f4f4;stop-opacity:1"/><stop id="stop3604-6" offset="1" style="stop-color:#dbdbdb;stop-opacity:1"/></linearGradient></defs><path id="path3446" d="m 6,3 c -1.0416656,0 -1.9983046,0.1146077 -2.7578125,0.5703125 -0.7595079,0.4557047 -1.2421875,1.3046886 -1.2421875,2.4296875 v 12 c 0,1.124999 0.4826796,1.973983 1.2421875,2.429688 0.7595079,0.455705 1.7161469,0.570312 2.7578125,0.570312 h 12 c 1.041666,0 1.998305,-0.114608 2.757812,-0.570312 0.759509,-0.455705 1.242188,-1.304689 1.242188,-2.429688 v -12 c 0,-1.1249989 -0.482679,-1.9739827 -1.242188,-2.4296875 -0.759506,-0.4557048 -1.716146,-0.5703125 -2.757812,-0.5703125 z m 11.5,4 c 0.828427,0 1.5,0.6715729 1.5,1.5 0,0.8284271 -0.671573,1.5 -1.5,1.5 -0.828427,0 -1.5,-0.6715729 -1.5,-1.5 0,-0.8284271 0.671573,-1.5 1.5,-1.5 z m -8,3 2,3.464844 1,-1.464844 2.886719,5 h -9.824219 z" style="color:#000;fill:gray;fill-opacity:1;-inkscape-stroke:none"/></svg>