<svg xmlns="http://www.w3.org/2000/svg" xmlns:svg="http://www.w3.org/2000/svg" id="svg8" width="24" height="24" version="1.1"><path id="path54" d="M 12 2 A 10 10 0 0 0 2 12 A 10 10 0 0 0 12 22 A 10 10 0 0 0 22 12 A 10 10 0 0 0 12 2 z M 12 3 A 9 9 0 0 1 21 12 A 9 9 0 0 1 12 21 A 9 9 0 0 1 3 12 A 9 9 0 0 1 12 3 z" style="fill:gray;fill-rule:evenodd;stroke-width:2;stroke-linecap:square;stroke-linejoin:round;fill-opacity:1"/><rect style="fill:gray;fill-rule:evenodd;stroke-width:2;stroke-linecap:square;stroke-linejoin:round;fill-opacity:1" id="rect81" width="2" height="6" x="11" y="11" rx="0" ry="0"/><circle style="fill:gray;fill-rule:evenodd;stroke-width:1.99999;stroke-linecap:square;stroke-linejoin:round;fill-opacity:1" id="path105" cx="12" cy="8" r="1.5"/></svg>