<svg xmlns="http://www.w3.org/2000/svg" xmlns:svg="http://www.w3.org/2000/svg" id="svg4" width="24" height="24" version="1.1" viewBox="0 0 24 24"><path id="path2" fill="gray" stroke-width=".913" d="m 17.0001,14 v 2 h -2 v 1 h 2 v 2 h 1 v -2 h 2 v -1 h -2 v -2 z" color="#000"/><path style="color:#000;fill:gray;-inkscape-stroke:none" id="path1185" d="m 15.5,4 c -0.999999,0 -1.793771,-0.036708 -2.472656,0.3027344 -0.339443,0.1697212 -0.630005,0.4624336 -0.796875,0.8378906 -0.16687,0.375457 -0.230469,0.8177089 -0.230469,1.359375 v 3 c 0,0.541666 0.0636,0.983918 0.230469,1.359375 0.16687,0.375457 0.457432,0.668169 0.796875,0.837891 0.678885,0.339442 1.472657,0.302734 2.472656,0.302734 h 1 c 0.999999,0 1.793771,0.03671 2.472656,-0.302734 0.339443,-0.169722 0.630005,-0.462434 0.796875,-0.837891 0.16687,-0.375457 0.230469,-0.817709 0.230469,-1.359375 v -3 c 0,-0.5416661 -0.0636,-0.983918 -0.230469,-1.359375 -0.16687,-0.375457 -0.457432,-0.6681694 -0.796875,-0.8378906 -0.678885,-0.3394424 -1.472657,-0.3027344 -2.472656,-0.3027344 z"/><path style="color:#000;fill:gray;-inkscape-stroke:none" id="path2276" d="m 7.5,13 c -0.999999,0 -1.7937715,-0.03671 -2.4726563,0.302734 -0.3394423,0.169722 -0.6300052,0.462434 -0.796875,0.837891 -0.1668697,0.375457 -0.2304687,0.817709 -0.2304687,1.359375 v 2 c 0,0.541666 0.063599,0.983918 0.2304687,1.359375 0.1668698,0.375457 0.4574327,0.668169 0.796875,0.837891 0.6788848,0.339442 1.4726573,0.302734 2.4726563,0.302734 h 3 c 0.999999,0 1.793771,0.03671 2.472656,-0.302734 0.339443,-0.169722 0.630005,-0.462434 0.796875,-0.837891 0.16687,-0.375457 0.230469,-0.817709 0.230469,-1.359375 v -2 c 0,-0.541666 -0.0636,-0.983918 -0.230469,-1.359375 -0.16687,-0.375457 -0.457432,-0.668169 -0.796875,-0.837891 -0.678885,-0.339442 -1.472657,-0.302734 -2.472656,-0.302734 z"/><path style="color:#000;fill:gray;-inkscape-stroke:none" id="path228" d="m 7.5,4 c 0,0 -1.793771,-0.036708 -2.472656,0.3027344 -0.339443,0.1697212 -0.630005,0.4624336 -0.796875,0.8378906 -0.16687,0.375457 -0.230469,0.8177089 -0.230469,1.359375 v 3 c 0,0.541666 0.0636,0.983918 0.230469,1.359375 0.16687,0.375457 0.457432,0.668169 0.796875,0.837891 0.678885,0.339442 2.472656,0.302734 2.472656,0.302734 0,0 1.793771,0.03671 2.472656,-0.302734 0.339443,-0.169722 0.630005,-0.462434 0.796875,-0.837891 0.16687,-0.375457 0.230469,-0.817709 0.230469,-1.359375 v -3 c 0,-0.5416661 -0.0636,-0.983918 -0.230469,-1.359375 -0.16687,-0.375457 -0.457432,-0.6681694 -0.796875,-0.8378906 -0.678885,-0.3394424 -2.472656,-0.3027344 -2.472656,-0.3027344 z"/></svg>