<svg xmlns="http://www.w3.org/2000/svg" xmlns:svg="http://www.w3.org/2000/svg" id="svg7384" width="24" height="24" version="1.1"><metadata id="metadata20854"/><defs id="defs7386"><linearGradient id="linearGradient5606"><stop id="stop5608" offset="0" style="stop-color:#000;stop-opacity:1"/></linearGradient><linearGradient id="linearGradient4526"><stop id="stop4528" offset="0" style="stop-color:#fff;stop-opacity:1"/></linearGradient><linearGradient id="linearGradient3600-4"><stop id="stop3602-7" offset="0" style="stop-color:#f4f4f4;stop-opacity:1"/><stop id="stop3604-6" offset="1" style="stop-color:#dbdbdb;stop-opacity:1"/></linearGradient></defs><path id="path1237" d="m 11.5,2 c -5.2467051,0 -9.5,4.2532949 -9.5,9.5 0,5.246705 4.2532949,9.5 9.5,9.5 5.246705,0 9.5,-4.253295 9.5,-9.5 0,-5.2467051 -4.253295,-9.5 -9.5,-9.5 z m 1.238281,1.09375 c 3.982929,0.5868442 7.007872,3.8873751 7.246094,7.90625 h -3.998047 c -0.130909,-3.0202295 -1.432582,-5.8342736 -3.576172,-7.7167969 0.108027,-0.065522 0.21693,-0.1288002 0.328125,-0.1894531 z m -2.470703,0.00391 c 0.116083,0.063441 0.229176,0.1304736 0.341797,0.1992188 -2.147535,1.8765859 -3.4577644,4.6840762 -3.5957031,7.703125 h -3.9746094 c 0.2384192,-4.0117182 3.2538713,-7.3082649 7.2285155,-7.9023438 z m 1.230469,0.8242188 c 2.051673,1.6483069 3.346661,4.2416476 3.488281,7.078125 h -6.9726561 c 0.1412268,-2.8356721 1.4342511,-5.4295117 3.4843751,-7.078125 z m -8.4589845,8.078125 h 3.9746094 c 0.1382105,3.02495 1.4543639,5.836296 3.6093751,7.712891 -0.107295,0.06576 -0.215718,0.130455 -0.326172,0.191406 -3.986862,-0.581642 -7.0176491,-3.882395 -7.2578125,-7.904297 z m 4.9746094,0 h 6.9726561 c -0.136671,2.835987 -1.426172,5.43307 -3.474609,7.085938 -2.0573005,-1.647916 -3.3562034,-4.244987 -3.4980471,-7.085938 z m 7.9726561,0 h 3.97461 c -0.238419,4.011718 -3.253872,7.308265 -7.228516,7.902344 -0.110691,-0.06049 -0.218627,-0.124133 -0.326172,-0.189453 2.144318,-1.882717 3.448875,-4.693317 3.580078,-7.712891 z" style="color:#000;fill:gray;fill-rule:evenodd;stroke-width:2;stroke-linecap:square;stroke-linejoin:round;-inkscape-stroke:none"/></svg>