<svg xmlns="http://www.w3.org/2000/svg" xmlns:svg="http://www.w3.org/2000/svg" id="svg7384" width="24" height="24" version="1.1"><metadata id="metadata20854"/><defs id="defs7386"><linearGradient id="linearGradient5606"><stop id="stop5608" offset="0" style="stop-color:#000;stop-opacity:1"/></linearGradient><linearGradient id="linearGradient4526"><stop id="stop4528" offset="0" style="stop-color:#fff;stop-opacity:1"/></linearGradient><linearGradient id="linearGradient3600-4"><stop id="stop3602-7" offset="0" style="stop-color:#f4f4f4;stop-opacity:1"/><stop id="stop3604-6" offset="1" style="stop-color:#dbdbdb;stop-opacity:1"/></linearGradient></defs><path id="rect903" d="M 12 2 C 9.2385762 1.9999999 7 4.2385762 7 7 L 7 11 L 5 11 L 5 22 L 19 22 L 19 11 L 17 11 L 17 7 C 17 4.2385763 14.761424 2 12 2 z M 12 3 C 14.209139 3 16 4.790861 16 7 L 16 11 L 8 11 L 8 7 C 8 4.790861 9.790861 2.9999999 12 3 z M 11 15 L 13 15 L 13 18 L 11 18 L 11 15 z" style="color:#000;fill:gray;fill-opacity:1;fill-rule:evenodd;stroke-width:2;stroke-linecap:square;-inkscape-stroke:none"/></svg>