<svg xmlns="http://www.w3.org/2000/svg" xmlns:svg="http://www.w3.org/2000/svg" id="svg7384" width="24" height="24" version="1.1"><metadata id="metadata20854"/><defs id="defs7386"><linearGradient id="linearGradient5606"><stop id="stop5608" offset="0" style="stop-color:#000;stop-opacity:1"/></linearGradient><linearGradient id="linearGradient4526"><stop id="stop4528" offset="0" style="stop-color:#fff;stop-opacity:1"/></linearGradient><linearGradient id="linearGradient3600-4"><stop id="stop3602-7" offset="0" style="stop-color:#f4f4f4;stop-opacity:1"/><stop id="stop3604-6" offset="1" style="stop-color:#dbdbdb;stop-opacity:1"/></linearGradient></defs><path id="path48" d="M 9 18 A 3 3 0 0 0 12 21 A 3 3 0 0 0 15 18 L 9 18 z" style="fill:gray;fill-rule:evenodd;stroke-width:2;stroke-linecap:square;stroke-linejoin:round"/><path id="rect75" d="m 12,2.5 c -0.828427,0 -1.5,0.6715729 -1.5,1.5 3.04e-4,0.060077 0.0042,0.1200804 0.01172,0.1796875 -2.0343935,0.5069032 -3.511719,2.0259281 -3.511719,3.8203125 v 6.5 c 0,1.385 -1.115,2.5 -2.5,2.5 h 15 c -1.385,0 -2.5,-1.115 -2.5,-2.5 v -6.5 c 0,-1.7943844 -1.477325,-3.3134093 -3.511719,-3.8203125 0.0075,-0.059607 0.01141,-0.119611 0.01172,-0.1796875 0,-0.8284271 -0.671573,-1.5 -1.5,-1.5 z m 0,2.5 c 2.209139,0 4,1 4,3 v 8 h -8 v -8 c 0,-2 1.790861,-3 4,-3 z" style="fill:gray;fill-rule:evenodd;stroke-width:2;stroke-linecap:square;stroke-linejoin:round"/></svg>