<svg xmlns="http://www.w3.org/2000/svg" xmlns:svg="http://www.w3.org/2000/svg" id="svg8" width="24" height="24" version="1.1"><path id="path86" d="m 12,2 a 10,10 0 0 0 -10,10 10,10 0 0 0 10,10 10,10 0 0 0 10,-10 10,10 0 0 0 -10,-10 z m 0,1 a 9,9 0 0 1 8.021484,4.9160156 l -7.521484,7.5214844 -3.96875,-3.96875 -1.0625,1.0625 5.03125,5.029297 8.125,-8.123047 a 9,9 0 0 1 0.375,2.5625 9,9 0 0 1 -9,9 9,9 0 0 1 -9,-9 9,9 0 0 1 9,-9 z" style="fill:gray;fill-rule:evenodd;stroke-width:2;stroke-linecap:square;stroke-linejoin:round;fill-opacity:1"/></svg>