<svg xmlns="http://www.w3.org/2000/svg" xmlns:svg="http://www.w3.org/2000/svg" id="svg4" width="24" height="24" version="1.1" viewBox="0 0 24 24"><metadata id="metadata10"/><path id="rect1208" d="M 13 16 L 13 17 L 14 17 C 15.108 17 16 17.892 16 19 L 16 22 L 17 22 L 17 19.5 C 17 19.223 17.223 19 17.5 19 C 17.777 19 18 19.223 18 19.5 L 18 22 L 19 22 L 19 19 C 19 17.892 19.892 17 21 17 L 22 17 L 22 16 L 13 16 z" style="fill:gray;fill-opacity:1;fill-rule:evenodd;stroke-width:1.5;stroke-linecap:square;stroke-linejoin:round"/><path id="rect1025" d="M 2 8 L 2 9 L 3.1308594 9 C 5.2741949 9 7 10.725805 7 12.869141 L 7 20 L 8 20 L 8 15.5 C 8 14.669 8.669 14 9.5 14 C 10.331 14 11 14.669 11 15.5 L 11 20 L 12 20 L 12 12.869141 C 12 10.725805 13.725805 9 15.869141 9 L 17 9 L 17 8 L 2 8 z" style="fill:gray;fill-opacity:1;fill-rule:evenodd;stroke-width:1.5;stroke-linecap:square;stroke-linejoin:round"/><circle style="fill:gray;fill-rule:evenodd;stroke-width:1.5;stroke-linecap:square;stroke-linejoin:round;fill-opacity:1" id="path891" cx="9.5" cy="4.5" r="2.5"/><circle style="fill:gray;fill-opacity:1;fill-rule:evenodd;stroke-width:1.5;stroke-linecap:square;stroke-linejoin:round" id="path1184" cx="17.5" cy="13.5" r="1.5"/></svg>