<svg xmlns="http://www.w3.org/2000/svg" xmlns:svg="http://www.w3.org/2000/svg" id="svg8" width="24" height="24" version="1.1"><path style="line-height:125%;-inkscape-font-specification:'Ubuntu Medium';text-align:center;fill:gray;stroke-width:.8" id="path4" d="m 12.2825,5.75125 c -0.555,0 -1.08,0.06375 -1.575,0.19125 -0.45,0.1175 -0.84875,0.2775 -1.21625,0.46375 l 0.375,1.04 c 0.7175,-0.36375 1.4525,-0.5625 2.205,-0.5625 0.6325,0 1.13375,0.16625 1.48,0.5125 0.34,0.3275 0.5125,0.76625 0.5125,1.2875 0,0.32375 -0.075,0.62625 -0.225,0.90375 -0.135,0.2675 -0.3125,0.52375 -0.53,0.76625 -0.2125,0.2375 -0.4375,0.47375 -0.675,0.71 v 0.0012 h -0.0025 c -0.23125,0.22 -0.45,0.4625 -0.65875,0.72875 l -0.0013,0.0025 c -0.205,0.25 -0.375,0.5225 -0.5125,0.81875 -0.12125,0.28875 -0.18375,0.6125 -0.18375,0.97375 0,0.2175 0.025,0.42 0.05875,0.61875 h 1.1325 c 0,-0.025 -0.0062,-0.04625 -0.0062,-0.07125 v -0.19375 c 0,-0.40375 0.08,-0.77125 0.24125,-1.095 0.1575,-0.325 0.35,-0.6225 0.58125,-0.89 l 0.0012,-0.0025 c 0.2275,-0.275 0.4775,-0.5375 0.75125,-0.7875 0.2675,-0.2425 0.51,-0.4975 0.73,-0.7625 0.2175,-0.26375 0.4,-0.545 0.54875,-0.84125 0.14375,-0.3 0.2175,-0.63875 0.2175,-1.02375 0,-0.30375 -0.05,-0.62125 -0.15375,-0.9525 v -0.0025 l -0.0012,-0.0025 a 2.12875,2.12875 0 0 0 -0.5,-0.90125 2.70125,2.70125 0 0 0 -0.9975,-0.6575 h -0.0038 l -0.0025,-0.0025 c -0.40125,-0.1775 -0.9325,-0.27125 -1.59125,-0.27125 z m -0.2825,10.37875 c -0.3375,0 -0.585,0.1025 -0.77375,0.3125 a 1.0675,1.0675 0 0 0 -0.28625,0.7475 c 0,0.29 0.0925,0.5325 0.2875,0.7475 0.1875,0.21 0.43375,0.3125 0.7725,0.3125 0.3375,0 0.585,-0.1025 0.775,-0.3125 a 1.06875,1.06875 0 0 0 0.285,-0.7475 1.0675,1.0675 0 0 0 -0.28625,-0.7475 c -0.1875,-0.21 -0.435,-0.3125 -0.77375,-0.3125 z" font-family="Ubuntu" font-size="72.036" font-weight="500" letter-spacing="0" text-anchor="middle" word-spacing="0"/><path id="path929" d="M 12 2 A 10 10 0 0 0 2 12 A 10 10 0 0 0 12 22 A 10 10 0 0 0 22 12 A 10 10 0 0 0 12 2 z M 12 3 A 9 9 0 0 1 21 12 A 9 9 0 0 1 12 21 A 9 9 0 0 1 3 12 A 9 9 0 0 1 12 3 z" style="fill:gray;fill-rule:evenodd;stroke-width:1.5;stroke-linecap:square;stroke-linejoin:round"/></svg>