<svg xmlns="http://www.w3.org/2000/svg" xmlns:svg="http://www.w3.org/2000/svg" id="svg8" width="24" height="24" version="1.1"><g id="g6" fill="gray" color="#000" transform="matrix(1.25,0,0,1.25,2,2)" style="stroke-width:.8"><path style="stroke-width:.64;marker:none" id="path2" d="m 13.909,1.307 -3.304,3.307 c 0.732,0.273 1.5,0.527 2.306,0.764 0.8,0.231 1.592,0.436 2.375,0.612 a 48.514,48.514 0 0 0 -0.621,-2.366 40.298,40.298 0 0 0 -0.756,-2.316 z" overflow="visible"/><path style="line-height:normal;font-variant-ligatures:normal;font-variant-position:normal;font-variant-caps:normal;font-variant-numeric:normal;font-variant-alternates:normal;font-feature-settings:normal;text-indent:0;text-align:start;text-decoration-line:none;text-decoration-style:solid;text-decoration-color:#000;text-transform:none;text-orientation:mixed;shape-padding:0;isolation:auto;mix-blend-mode:normal;stroke-width:.64" id="path4" d="m 8.102,1 a 7.003,7.003 0 0 0 -7.102,7 7.003,7.003 0 0 0 4.895,6.676 7.005,7.005 0 0 0 7.84,-2.66 l 0.287,-0.41 -0.82,-0.575 -0.288,0.41 a 5.996,5.996 0 0 1 -6.719,2.282 5.996,5.996 0 0 1 -4.195,-5.723 5.996,5.996 0 0 1 4.195,-5.723 5.996,5.996 0 0 1 6.72,2.282 l 0.286,0.41 0.82,-0.574 -0.287,-0.41 a 7.006,7.006 0 0 0 -5.632,-2.985 z" font-family="sans-serif" font-weight="400" overflow="visible" white-space="normal"/></g></svg>