<svg xmlns="http://www.w3.org/2000/svg" xmlns:svg="http://www.w3.org/2000/svg" id="svg1199" width="24" height="24" version="1.1"><metadata id="metadata1205"/><path style="color:#000;opacity:1;fill:gray;fill-opacity:1;-inkscape-stroke:none" id="path2223" d="m 6.5,15.001161 c -0.999999,0 -1.7937715,-0.03671 -2.4726563,0.302734 -0.3394423,0.169722 -0.6300052,0.462434 -0.7968749,0.837891 -0.1668698,0.375457 -0.2304688,0.817709 -0.2304688,1.359375 v 1 c 0,0.541666 0.063599,0.983918 0.2304688,1.359375 0.1668697,0.375457 0.4574326,0.668169 0.7968749,0.837891 0.6788848,0.339442 1.4726573,0.302734 2.4726563,0.302734 h 11 c 0.999999,0 1.793771,0.03671 2.472656,-0.302734 0.339443,-0.169722 0.630005,-0.462434 0.796875,-0.837891 0.16687,-0.375457 0.230469,-0.817709 0.230469,-1.359375 v -1 c 0,-0.541666 -0.0636,-0.983918 -0.230469,-1.359375 -0.16687,-0.375457 -0.457432,-0.668169 -0.796875,-0.837891 -0.678885,-0.339442 -1.472657,-0.302734 -2.472656,-0.302734 z m 0,1 h 11 c 0.999999,0 1.70623,0.03671 2.027344,0.197266 0.160557,0.08028 0.244995,0.162567 0.328125,0.349609 0.08313,0.187042 0.144531,0.494792 0.144531,0.953125 v 1 c 0,0.458333 -0.0614,0.766083 -0.144531,0.953125 -0.08313,0.187042 -0.167568,0.269331 -0.328125,0.349609 -0.321114,0.160557 -1.027345,0.197266 -2.027344,0.197266 h -11 c -0.999999,0 -1.7062295,-0.03671 -2.0273438,-0.197266 -0.1605571,-0.08028 -0.244995,-0.162567 -0.328125,-0.349609 -0.08313,-0.187042 -0.1445312,-0.494792 -0.1445312,-0.953125 v -1 c 0,-0.458333 0.061401,-0.766083 0.1445312,-0.953125 0.08313,-0.187042 0.1675679,-0.269331 0.328125,-0.349609 0.3211143,-0.160557 1.0273448,-0.197266 2.0273438,-0.197266 z"/><path id="rect2798" d="m 15,18.001161 h 3 v 1 h -3 z" style="opacity:1;fill:gray;fill-rule:evenodd;stroke-width:1.5;stroke-linecap:square;stroke-linejoin:round"/><path id="path3040" d="m 5.7871094,9.0011608 c -0.6769458,0.0056 -1.250602,0.04815 -1.7597656,0.302734 -0.3394423,0.169722 -0.6300054,0.462434 -0.796875,0.8378912 -0.16687,0.375457 -0.2304688,0.817709 -0.2304688,1.359375 v 3.5 h 0.025391 c 0.03095,-0.322059 0.093074,-0.607365 0.2050782,-0.859375 0.1622596,-0.365084 0.4421481,-0.650654 0.7695312,-0.822266 v -1.818359 c 0,-0.458333 0.061401,-0.766083 0.1445312,-0.953125 0.08313,-0.187042 0.1675679,-0.269331 0.328125,-0.349609 0.3211143,-0.160557 1.0273448,-0.197266 2.0273438,-0.197266 h 10.9999996 c 0.999999,0 1.70623,0.03671 2.027344,0.197266 0.160557,0.08028 0.244995,0.162567 0.328125,0.349609 0.08313,0.187042 0.144531,0.494792 0.144531,0.953125 v 1.818359 c 0.327384,0.171612 0.607271,0.457182 0.769531,0.822266 0.112004,0.25201 0.174129,0.537316 0.205078,0.859375 h 0.02539 v -3.5 c 0,-0.541666 -0.0636,-0.983918 -0.230469,-1.359375 -0.16687,-0.3754572 -0.457432,-0.6681692 -0.796875,-0.8378912 -0.678885,-0.339442 -1.472657,-0.302734 -2.472656,-0.302734 h -10.9999996 c -0.2499997,0 -0.487242,-0.00186 -0.71289,0 z" style="color:#000;opacity:1;fill:gray;fill-opacity:1;-inkscape-stroke:none"/><path id="rect3042" d="m 15,12.001161 h 3 v 1 h -3 z" style="opacity:1;fill:gray;fill-rule:evenodd;stroke-width:1.5;stroke-linecap:square;stroke-linejoin:round"/><path id="path3339" d="m 5.7871094,3.0011608 c -0.6769458,0.00559 -1.250602,0.048153 -1.7597656,0.3027344 -0.3394423,0.1697212 -0.6300054,0.4624336 -0.796875,0.8378906 -0.16687,0.375457 -0.2304688,0.817709 -0.2304688,1.359375 v 3.5 h 0.025391 c 0.03095,-0.322059 0.093074,-0.607365 0.2050782,-0.859375 0.1622596,-0.365084 0.4421481,-0.650654 0.7695312,-0.822266 v -1.818359 c 0,-0.458333 0.061401,-0.766083 0.1445312,-0.953125 0.08313,-0.187042 0.1675679,-0.269331 0.328125,-0.349609 0.3211143,-0.160557 1.0273448,-0.197266 2.0273438,-0.197266 h 10.9999996 c 0.999999,0 1.70623,0.03671 2.027344,0.197266 0.160557,0.08028 0.244995,0.162567 0.328125,0.349609 0.08313,0.187042 0.144531,0.494792 0.144531,0.953125 v 1.818359 c 0.327384,0.171612 0.607271,0.457182 0.769531,0.822266 0.112004,0.25201 0.174129,0.537316 0.205078,0.859375 h 0.02539 v -3.5 c 0,-0.541666 -0.0636,-0.983918 -0.230469,-1.359375 -0.16687,-0.375457 -0.457432,-0.6681694 -0.796875,-0.8378906 -0.678885,-0.3394424 -1.472657,-0.3027344 -2.472656,-0.3027344 h -10.9999996 c -0.2499997,0 -0.487242,-0.00186 -0.71289,0 z" style="color:#000;opacity:1;fill:gray;fill-opacity:1;-inkscape-stroke:none"/><path id="rect3341" d="m 15,6.0011608 h 3 v 1 h -3 z" style="opacity:1;fill:gray;fill-rule:evenodd;stroke-width:1.5;stroke-linecap:square;stroke-linejoin:round"/></svg>