<svg xmlns="http://www.w3.org/2000/svg" xmlns:svg="http://www.w3.org/2000/svg" id="svg7384" width="24" height="24" version="1.1"><metadata id="metadata20854"/><defs id="defs7386"><linearGradient id="linearGradient5606"><stop id="stop5608" offset="0" style="stop-color:#000;stop-opacity:1"/></linearGradient><linearGradient id="linearGradient4526"><stop id="stop4528" offset="0" style="stop-color:#fff;stop-opacity:1"/></linearGradient><linearGradient id="linearGradient3600-4"><stop id="stop3602-7" offset="0" style="stop-color:#f4f4f4;stop-opacity:1"/><stop id="stop3604-6" offset="1" style="stop-color:#dbdbdb;stop-opacity:1"/></linearGradient></defs><path id="path903" d="M 10 2 L 10 3.2480469 A 9 9 0 0 0 7.9042969 4.0078125 L 7.1035156 3.0546875 L 4.0390625 5.625 L 4.84375 6.5820312 A 9 9 0 0 0 3.7207031 8.5078125 L 2.5 8.2929688 L 1.8046875 12.232422 L 3.03125 12.449219 A 9 9 0 0 0 3.4082031 14.650391 L 2.3398438 15.267578 L 4.3398438 18.732422 L 5.4160156 18.111328 A 9 9 0 0 0 7.1210938 19.560547 L 6.7011719 20.712891 L 10.458984 22.080078 L 10.880859 20.919922 A 9 9 0 0 0 12 21 A 9 9 0 0 0 13.119141 20.919922 L 13.541016 22.080078 L 17.298828 20.712891 L 16.878906 19.560547 A 9 9 0 0 0 18.583984 18.111328 L 19.660156 18.732422 L 21.660156 15.267578 L 20.591797 14.650391 A 9 9 0 0 0 20.96875 12.449219 L 22.195312 12.232422 L 21.5 8.2929688 L 20.292969 8.5058594 A 9 9 0 0 0 19.171875 6.5644531 L 19.960938 5.625 L 16.896484 3.0546875 L 16.107422 3.9941406 A 9 9 0 0 0 14 3.2285156 L 14 2 L 10 2 z M 12 4 A 8 8 0 0 1 17.035156 5.7832031 A 8 8 0 0 1 19.902344 10.748047 A 8 8 0 0 1 20 12 A 8 8 0 0 1 12 20 A 8 8 0 0 1 4 12 A 8 8 0 0 1 4.0976562 10.748047 A 8 8 0 0 1 12 4 z M 12 5 A 7 7 0 0 0 5 12 A 7 7 0 0 0 12 19 A 7 7 0 0 0 19 12 A 7 7 0 0 0 12 5 z M 12 6 A 6 6 0 0 1 18 12 A 6 6 0 0 1 12 18 A 6 6 0 0 1 6 12 A 6 6 0 0 1 12 6 z" style="fill:gray;fill-rule:evenodd;stroke-width:1.5;stroke-linecap:square;stroke-linejoin:round;fill-opacity:1"/></svg>