<svg xmlns="http://www.w3.org/2000/svg" xmlns:svg="http://www.w3.org/2000/svg" id="svg7384" width="24" height="24" version="1.1"><metadata id="metadata20854"/><defs id="defs7386"><linearGradient id="linearGradient5606"><stop id="stop5608" offset="0" style="stop-color:#000;stop-opacity:1"/></linearGradient><linearGradient id="linearGradient4526"><stop id="stop4528" offset="0" style="stop-color:#fff;stop-opacity:1"/></linearGradient><linearGradient id="linearGradient3600-4"><stop id="stop3602-7" offset="0" style="stop-color:#f4f4f4;stop-opacity:1"/><stop id="stop3604-6" offset="1" style="stop-color:#dbdbdb;stop-opacity:1"/></linearGradient></defs><path id="path47" d="M 6.828125 4.40625 A 8.5 8.5 0 0 0 3 11.5 A 8.5 8.5 0 0 0 11.5 20 A 8.5 8.5 0 0 0 20 11.5 A 8.5 8.5 0 0 0 16.210938 4.4238281 L 15.705078 5.2929688 A 7.5 7.5 0 0 1 19 11.5 A 7.5 7.5 0 0 1 11.5 19 A 7.5 7.5 0 0 1 4 11.5 A 7.5 7.5 0 0 1 7.3339844 5.2832031 L 6.828125 4.40625 z" style="fill:gray;fill-rule:evenodd;stroke-width:1.5;stroke-linecap:square;stroke-linejoin:round;fill-opacity:1"/><rect style="fill:gray;fill-rule:evenodd;stroke-width:1.5;stroke-linecap:square;stroke-linejoin:round;fill-opacity:1" id="rect96" width="1" height="10" x="11" y="3"/></svg>