<svg xmlns="http://www.w3.org/2000/svg" xmlns:svg="http://www.w3.org/2000/svg" id="svg8" width="24" height="24" version="1.1"><path id="path860" d="m 1.9999999,16.212891 c 0.0056,0.676945 0.04815,1.250602 0.302734,1.759765 0.169722,0.339442 0.462434,0.630006 0.837891,0.796875 0.375457,0.16687 0.817709,0.230469 1.359375,0.230469 h 15.0000001 c 0.541666,0 0.983918,-0.0636 1.359375,-0.230469 0.375457,-0.166869 0.668169,-0.457433 0.837891,-0.796875 0.339442,-0.678885 0.302734,-1.472657 0.302734,-2.472656 v -7 c 0,-0.999999 0.03671,-1.793771 -0.302734,-2.472656 -0.169722,-0.339443 -0.462434,-0.630005 -0.837891,-0.796875 -0.375457,-0.16687 -0.817709,-0.230469 -1.359375,-0.230469 h -15.0000001 c -0.541666,0 -0.983918,0.0636 -1.359375,0.230469 -0.375457,0.16687 -0.668169,0.457432 -0.837891,0.796875 -0.339442,0.678885 -0.302734,1.472657 -0.302734,2.472656 v 7 c 0,0.25 -0.0019,0.487242 0,0.712891 z m 3,1.787109 v -12 h 14.0000001 v 12 z" style="color:#000;fill:gray;fill-opacity:1;-inkscape-stroke:none"/></svg>