<svg xmlns="http://www.w3.org/2000/svg" xmlns:svg="http://www.w3.org/2000/svg" id="svg8" width="24" height="24" version="1.1"><metadata id="metadata14"/><path id="rect30" d="M 9 3.2929688 L 8.2929688 4 L 8.6464844 4.3535156 L 11.292969 7 L 5.5 7 C 4.8453689 7 4.2447361 7.1943777 3.7851562 7.5390625 C 3.3255766 7.8837473 3 8.4055997 3 9 L 3 18 C 3 18.5944 3.3255765 19.116253 3.7851562 19.460938 C 4.2447361 19.805622 4.8453689 20 5.5 20 L 18.5 20 C 19.154631 20 19.755264 19.805622 20.214844 19.460938 C 20.674424 19.116253 21 18.5944 21 18 L 21 9 C 21 8.4055997 20.674424 7.8837473 20.214844 7.5390625 C 19.755264 7.1943777 19.154631 7 18.5 7 L 12.707031 7 L 15.353516 4.3535156 L 15.707031 4 L 15 3.2929688 L 14.646484 3.6464844 L 12 6.2929688 L 9.3535156 3.6464844 L 9 3.2929688 z M 5.5 8 L 16.5 8 C 16.953368 8 17.351815 8.140326 17.615234 8.3378906 C 17.878654 8.5354553 18 8.7634012 18 9 L 18 18 C 18 18.236599 17.878654 18.464545 17.615234 18.662109 C 17.351815 18.859674 16.953368 19 16.5 19 L 5.5 19 C 5.0466322 19 4.6481851 18.859674 4.3847656 18.662109 C 4.1213461 18.464545 4 18.236599 4 18 L 4 9 C 4 8.7634012 4.1213461 8.5354553 4.3847656 8.3378906 C 4.6481851 8.140326 5.0466322 8 5.5 8 z M 19.5 10 A 0.5 0.5 0 0 1 20 10.5 A 0.5 0.5 0 0 1 19.5 11 A 0.5 0.5 0 0 1 19 10.5 A 0.5 0.5 0 0 1 19.5 10 z M 19.5 12 A 0.5 0.5 0 0 1 20 12.5 A 0.5 0.5 0 0 1 19.5 13 A 0.5 0.5 0 0 1 19 12.5 A 0.5 0.5 0 0 1 19.5 12 z" style="color:#000;fill:gray;fill-rule:evenodd;stroke-linecap:square;stroke-linejoin:round;-inkscape-stroke:none"/></svg>