<svg xmlns="http://www.w3.org/2000/svg" xmlns:svg="http://www.w3.org/2000/svg" id="svg7384" width="24" height="24" version="1.1"><metadata id="metadata20854"/><defs id="defs7386"><linearGradient id="linearGradient5606"><stop id="stop5608" offset="0" style="stop-color:#000;stop-opacity:1"/></linearGradient><linearGradient id="linearGradient4526"><stop id="stop4528" offset="0" style="stop-color:#fff;stop-opacity:1"/></linearGradient><linearGradient id="linearGradient3600-4"><stop id="stop3602-7" offset="0" style="stop-color:#f4f4f4;stop-opacity:1"/><stop id="stop3604-6" offset="1" style="stop-color:#dbdbdb;stop-opacity:1"/></linearGradient></defs><g id="g2872" transform="matrix(1.1112963,0,0,1.1112963,-0.22370365,-0.22370365)" style="fill:gray;fill-opacity:1;stroke-width:.8"><path id="path2874" d="m 11,2.001 c -4.97,0 -8.999,4.029 -8.999,8.999 0,4.97 4.029,8.998 8.999,8.998 4.971,0 8.998,-4.027 8.998,-8.998 0,-4.971 -4.027,-8.999 -8.998,-8.999 z m 2.092,3.055 c 0.334,-0.579 1.074,-0.777 1.652,-0.443 0.579,0.334 0.777,1.074 0.443,1.653 -0.334,0.579 -1.074,0.777 -1.653,0.443 -0.579,-0.334 -0.776,-1.074 -0.442,-1.653 z m -8.2,7.155 c -0.668,0 -1.21,-0.542 -1.21,-1.21 0,-0.669 0.542,-1.21 1.21,-1.21 0.668,0 1.21,0.542 1.21,1.21 10e-4,0.667 -0.541,1.21 -1.21,1.21 z m 1.073,0.107 c 0.383,-0.312 0.627,-0.786 0.627,-1.318 0,-0.532 -0.244,-1.007 -0.626,-1.318 0.326,-1.267 1.115,-2.349 2.174,-3.057 l 0.885,1.482 c -0.909,0.641 -1.504,1.697 -1.504,2.893 0,1.197 0.594,2.254 1.503,2.893 l -0.884,1.482 c -1.059,-0.707 -1.848,-1.789 -2.175,-3.057 z m 8.779,5.069 c -0.578,0.334 -1.318,0.137 -1.652,-0.443 -0.334,-0.578 -0.137,-1.318 0.442,-1.652 0.579,-0.334 1.319,-0.137 1.653,0.443 0.334,0.577 0.136,1.318 -0.443,1.652 z m -0.003,-2.637 c -0.46,-0.174 -0.992,-0.148 -1.452,0.117 -0.459,0.266 -0.748,0.713 -0.827,1.199 -0.447,0.125 -0.918,0.191 -1.405,0.191 -0.837,0 -1.628,-0.195 -2.331,-0.543 l 0.841,-1.508 c 0.453,0.211 0.958,0.328 1.49,0.328 1.847,0 3.363,-1.416 3.521,-3.221 l 1.725,0.025 c -0.084,1.334 -0.666,2.531 -1.562,3.412 z m -0.163,-4.063 c -0.158,-1.806 -1.674,-3.222 -3.521,-3.222 -0.532,0 -1.037,0.118 -1.49,0.329 l -0.84,-1.507 c 0.703,-0.348 1.494,-0.545 2.331,-0.545 0.487,0 0.958,0.068 1.405,0.191 0.079,0.486 0.368,0.935 0.827,1.2 0.46,0.266 0.992,0.292 1.451,0.118 0.896,0.88 1.479,2.077 1.562,3.411 z" style="fill:gray;fill-opacity:1;stroke-width:.8"/></g></svg>