<svg xmlns="http://www.w3.org/2000/svg" xmlns:svg="http://www.w3.org/2000/svg" id="svg7384" width="24" height="24" version="1.1"><metadata id="metadata20854"/><defs id="defs7386"><linearGradient id="linearGradient5606"><stop id="stop5608" offset="0" style="stop-color:#000;stop-opacity:1"/></linearGradient><linearGradient id="linearGradient4526"><stop id="stop4528" offset="0" style="stop-color:#fff;stop-opacity:1"/></linearGradient><linearGradient id="linearGradient3600-4"><stop id="stop3602-7" offset="0" style="stop-color:#f4f4f4;stop-opacity:1"/><stop id="stop3604-6" offset="1" style="stop-color:#dbdbdb;stop-opacity:1"/></linearGradient></defs><path id="path56" d="M 12 2 A 5 5.5 0 0 0 7 7.5 A 5 5.5 0 0 0 12 13 A 5 5.5 0 0 0 17 7.5 A 5 5.5 0 0 0 12 2 z M 12 3 A 4 4.5 0 0 1 16 7.5 A 4 4.5 0 0 1 12 12 A 4 4.5 0 0 1 8 7.5 A 4 4.5 0 0 1 12 3 z M 12 15 C 7.6094367 15.002 5.3171847 16.023091 4.140625 17.357422 C 2.9640653 18.691753 3 20.264081 3 21 L 4 21 C 4 20.23592 3.973868 19.059221 4.890625 18.019531 C 5.8073818 16.979842 7.7638461 16.001919 12 16 C 16.236005 15.9981 18.19262 16.975083 19.109375 18.015625 C 20.02613 19.056167 20 20.23592 20 21 L 21 21 C 21 20.264081 21.03594 18.690899 19.859375 17.355469 C 18.682813 16.020038 16.390712 14.998015 12 15 z" style="color:#000;fill:gray;-inkscape-stroke:none"/></svg>