<svg xmlns="http://www.w3.org/2000/svg" xmlns:svg="http://www.w3.org/2000/svg" id="svg7384" width="24" height="24" version="1.1"><metadata id="metadata20854"/><defs id="defs7386"><linearGradient id="linearGradient5606"><stop id="stop5608" offset="0" style="stop-color:#000;stop-opacity:1"/></linearGradient><linearGradient id="linearGradient4526"><stop id="stop4528" offset="0" style="stop-color:#fff;stop-opacity:1"/></linearGradient><linearGradient id="linearGradient3600-4"><stop id="stop3602-7" offset="0" style="stop-color:#f4f4f4;stop-opacity:1"/><stop id="stop3604-6" offset="1" style="stop-color:#dbdbdb;stop-opacity:1"/></linearGradient></defs><path id="path874" d="M 14.5 7 A 3.5 4 0 0 0 11 11 A 3.5 4 0 0 0 14.5 15 A 3.5 4 0 0 0 18 11 A 3.5 4 0 0 0 14.5 7 z M 14.5 8 A 2.5 3 0 0 1 17 11 A 2.5 3 0 0 1 14.5 14 A 2.5 3 0 0 1 12 11 A 2.5 3 0 0 1 14.5 8 z M 14.5 16 C 11.17308 16 9.2721912 16.770778 8.2089844 17.833984 C 7.1457776 18.897191 7 20.194445 7 21 L 8 21 C 8 20.305556 8.1042243 19.352807 8.9160156 18.541016 C 9.7278069 17.729224 11.326926 17 14.5 17 C 17.673074 17 19.272193 17.729224 20.083984 18.541016 C 20.895776 19.352807 21 20.305556 21 21 L 22 21 C 22 20.194445 21.854222 18.897191 20.791016 17.833984 C 19.727809 16.770778 17.82692 16 14.5 16 z" style="color:#000;fill:gray;-inkscape-stroke:none"/><path id="path1497" d="m 9.5,12 c -3.3269198,0 -5.2278088,0.770778 -6.2910156,1.833984 -1.0632068,1.063207 -1.2089844,2.360461 -1.2089844,3.166016 h 1 c 0,-0.694444 0.1042243,-1.647193 0.9160156,-2.458984 0.8117913,-0.811792 2.4109106,-1.541016 5.5839844,-1.541016 0.3214575,0 0.622142,0.0091 0.912109,0.02344 -0.136879,-0.321847 -0.244724,-0.660252 -0.314453,-1.013672 -0.1939414,-0.0057 -0.3930656,-0.0098 -0.597656,-0.0098 z" style="color:#000;fill:gray;-inkscape-stroke:none"/><path id="path1499" d="M 9.5 3 A 3.5 4 0 0 0 6 7 A 3.5 4 0 0 0 9.5 11 A 3.5 4 0 0 0 10.001953 10.958984 C 10.004665 10.596473 10.044692 10.242396 10.115234 9.8984375 A 2.5 3 0 0 1 9.5 10 A 2.5 3 0 0 1 7 7 A 2.5 3 0 0 1 9.5 4 A 2.5 3 0 0 1 11.996094 6.8457031 C 12.289595 6.6259842 12.607544 6.4431876 12.947266 6.3046875 A 3.5 4 0 0 0 9.5 3 z" style="fill:gray;fill-rule:evenodd;stroke:none;stroke-linecap:square;stroke-linejoin:round"/></svg>