<svg xmlns="http://www.w3.org/2000/svg" xmlns:svg="http://www.w3.org/2000/svg" id="svg7384" width="24" height="24" version="1.1"><metadata id="metadata20854"/><defs id="defs7386"><linearGradient id="linearGradient5606"><stop id="stop5608" offset="0" style="stop-color:#000;stop-opacity:1"/></linearGradient><linearGradient id="linearGradient4526"><stop id="stop4528" offset="0" style="stop-color:#fff;stop-opacity:1"/></linearGradient><linearGradient id="linearGradient3600-4"><stop id="stop3602-7" offset="0" style="stop-color:#f4f4f4;stop-opacity:1"/><stop id="stop3604-6" offset="1" style="stop-color:#dbdbdb;stop-opacity:1"/></linearGradient></defs><path style="color:#000;fill:gray;fill-rule:evenodd;stroke-linecap:square;stroke-linejoin:round;-inkscape-stroke:none;fill-opacity:1" id="path93" d="m 12,9 a 3,3 0 0 0 -3,3 3,3 0 0 0 3,3 3,3 0 0 0 3,-3 3,3 0 0 0 -0.132812,-0.882812 1.5,1.5 0 0 1 -1.367188,0.882812 1.5,1.5 0 0 1 -1.5,-1.5 1.5,1.5 0 0 1 0.882812,-1.3671875 3,3 0 0 0 -0.882812,-0.1328125 z"/><path style="color:#000;fill:gray;fill-rule:evenodd;stroke-linecap:square;stroke-linejoin:round;-inkscape-stroke:none;fill-opacity:1" id="path98" d="m 12,7 a 5,5 0 0 0 -5,5 5,5 0 0 0 5,5 5,5 0 0 0 5,-5 5,5 0 0 0 -5,-5 z m 0,1 a 4,4 0 0 1 4,4 4,4 0 0 1 -4,4 4,4 0 0 1 -4,-4 4,4 0 0 1 4,-4 z"/><path style="color:#000;fill:gray;-inkscape-stroke:none;fill-opacity:1" id="path953" d="m 12,5 c -7.3095165,0 -9.9667969,6.820313 -9.9667969,6.820313 l -0.068359,0.179687 0.068359,0.179688 c 0,0 2.6572804,6.820312 9.9667969,6.820312 7.309516,0 9.966797,-6.820312 9.966797,-6.820312 l 0.06836,-0.179688 -0.06836,-0.179687 c 0,0 -2.657281,-6.820313 -9.966797,-6.820313 z m 0,1 c 6.378813,0 8.733063,5.476679 8.945312,6 -0.212249,0.523321 -2.566499,6 -8.945312,6 -6.3788133,0 -8.7330628,-5.476679 -8.9453125,-6 0.2122497,-0.523321 2.5664992,-6 8.9453125,-6 z"/></svg>