<svg xmlns="http://www.w3.org/2000/svg" xmlns:svg="http://www.w3.org/2000/svg" id="svg7384" width="24" height="24" version="1.1"><metadata id="metadata20854"/><defs id="defs7386"><linearGradient id="linearGradient5606"><stop id="stop5608" offset="0" style="stop-color:#000;stop-opacity:1"/></linearGradient><linearGradient id="linearGradient4526"><stop id="stop4528" offset="0" style="stop-color:#fff;stop-opacity:1"/></linearGradient><linearGradient id="linearGradient3600-4"><stop id="stop3602-7" offset="0" style="stop-color:#f4f4f4;stop-opacity:1"/><stop id="stop3604-6" offset="1" style="stop-color:#dbdbdb;stop-opacity:1"/></linearGradient></defs><path id="path953" d="M 12 5 C 4.6904841 5 2.0332031 11.820312 2.0332031 11.820312 L 1.9648438 12 L 2.0332031 12.179688 C 2.0332031 12.179688 4.6904841 19 12 19 C 19.309516 19 21.966797 12.179688 21.966797 12.179688 L 22.035156 12 L 21.966797 11.820312 C 21.966797 11.820312 19.309516 4.9999999 12 5 z M 12 7 A 5 5 0 0 1 17 12 A 5 5 0 0 1 12 17 A 5 5 0 0 1 7 12 A 5 5 0 0 1 12 7 z M 12 8 A 4 4 0 0 0 8 12 A 4 4 0 0 0 12 16 A 4 4 0 0 0 16 12 A 4 4 0 0 0 12 8 z M 12 9 A 3 3 0 0 1 12.882812 9.1328125 A 1.5 1.5 0 0 0 12 10.5 A 1.5 1.5 0 0 0 13.5 12 A 1.5 1.5 0 0 0 14.867188 11.117188 A 3 3 0 0 1 15 12 A 3 3 0 0 1 12 15 A 3 3 0 0 1 9 12 A 3 3 0 0 1 12 9 z" style="color:#000;fill:gray;fill-opacity:1;-inkscape-stroke:none"/></svg>