<svg xmlns="http://www.w3.org/2000/svg" xmlns:svg="http://www.w3.org/2000/svg" id="svg4" width="24" height="24" version="1.1"><path id="path858" d="M 12 2.5 A 0.50005 0.50005 0 0 0 11.560547 2.7617188 L 2.0605469 20.261719 A 0.50005 0.50005 0 0 0 2.5 21 L 21.5 21 A 0.50005 0.50005 0 0 0 21.939453 20.261719 L 12.439453 2.7617188 A 0.50005 0.50005 0 0 0 12 2.5 z M 11 8 L 13 8 L 13 12 L 12.5 16 L 11.5 16 L 11 12 L 11 8 z M 12 17 A 1 1 0 0 1 13 18 A 1 1 0 0 1 12 19 A 1 1 0 0 1 11 18 A 1 1 0 0 1 12 17 z" style="color:#000;fill:gray;stroke-linejoin:round;-inkscape-stroke:none"/></svg>