<svg xmlns="http://www.w3.org/2000/svg" xmlns:svg="http://www.w3.org/2000/svg" id="svg8" width="24" height="24" version="1.1"><metadata id="metadata14"/><path id="rect31" d="M 12 3 C 11.446 3 11 3.446 11 4 L 11 12 C 11 12.554 11.446 13 12 13 L 20 13 C 20.554 13 21 12.554 21 12 L 21 4 C 21 3.446 20.554 3 20 3 L 12 3 z M 12 5 L 20 5 L 20 11 C 20 11.75253 19.803153 12 19 12 L 13 12 C 12.209518 12 12 11.782141 12 11 L 12 5 z M 4 11 C 3.446 11 3 11.446 3 12 L 3 20 C 3 20.554 3.446 21 4 21 L 12 21 C 12.554 21 13 20.554 13 20 L 13 14 L 12 14 L 12 19 C 12 19.75253 11.803153 20 11 20 L 5 20 C 4.209518 20 4 19.782141 4 19 L 4 13 L 10 13 L 10 11 L 4 11 z" style="fill:gray;fill-rule:evenodd;stroke-width:2;stroke-linecap:square;stroke-linejoin:round"/></svg>