<svg xmlns="http://www.w3.org/2000/svg" xmlns:svg="http://www.w3.org/2000/svg" id="svg7384" width="24" height="24" version="1.1"><metadata id="metadata20854"/><defs id="defs7386"><linearGradient id="linearGradient5606"><stop id="stop5608" offset="0" style="stop-color:#000;stop-opacity:1"/></linearGradient><linearGradient id="linearGradient4526"><stop id="stop4528" offset="0" style="stop-color:#fff;stop-opacity:1"/></linearGradient><linearGradient id="linearGradient3600-4"><stop id="stop3602-7" offset="0" style="stop-color:#f4f4f4;stop-opacity:1"/><stop id="stop3604-6" offset="1" style="stop-color:#dbdbdb;stop-opacity:1"/></linearGradient></defs><path id="path1347-7" d="M 10 2 L 10 3 L 8.0058594 3 C 7.5674594 3 7.2201744 3.0069975 6.9277344 3.1171875 C 6.6352944 3.2269675 6.4001587 3.4248612 6.2617188 3.6757812 C 5.9848387 4.1776112 6.0097 4.7920594 6 5.6308594 L 6 5.6328125 L 6.0332031 18.335938 L 6.0332031 18.337891 C 6.0432031 19.176691 6.0181019 19.789186 6.2949219 20.291016 C 6.4333619 20.541936 6.6684975 20.741782 6.9609375 20.851562 C 7.2533775 20.961343 7.6006625 21 8.0390625 21 L 16.033203 21 C 16.471613 21 16.818888 20.961402 17.111328 20.851562 C 17.403768 20.741782 17.636951 20.541936 17.775391 20.291016 C 18.052271 19.789186 18.023503 19.176691 18.033203 18.337891 L 18.033203 18.335938 L 18 5.6328125 L 18 5.6308594 C 17.99 4.7920594 18.018997 4.1776113 17.742188 3.6757812 C 17.603748 3.4248613 17.370565 3.2269675 17.078125 3.1171875 C 16.785685 3.0075175 16.43841 3 16 3 L 14 3 L 14 2 L 10 2 z M 8.0058594 4 L 16 4 C 16.42737 4 16.664162 4.0293344 16.726562 4.0527344 C 16.812062 4.0848344 16.851357 4.1295331 16.867188 4.1582031 C 16.962287 4.3306031 16.9895 4.7758025 17 5.6328125 L 17.033203 18.326172 L 17.033203 18.337891 C 17.023003 19.192271 16.995501 19.636194 16.900391 19.808594 C 16.884591 19.837294 16.845196 19.881992 16.759766 19.914062 C 16.636936 19.960313 16.411393 20 16.033203 20 L 8.0390625 20 C 7.6609225 20 7.4352 19.960063 7.3125 19.914062 C 7.227 19.881963 7.1857419 19.837264 7.1699219 19.808594 C 7.0718219 19.630694 7.0435031 19.188539 7.0332031 18.324219 L 7 5.6328125 C 7.0102 4.7799925 7.0390987 4.3351631 7.1367188 4.1582031 C 7.1525187 4.1295031 7.1938169 4.0848044 7.2792969 4.0527344 C 7.3405969 4.0296344 7.5780994 4 8.0058594 4 z M 11 6 L 11 8.8828125 C 11 9.8743125 11.036677 10.7793 11.107422 11.59375 C 11.178302 12.396388 11.266822 13.19735 11.373047 14 L 12.626953 14 C 12.733203 13.19735 12.821753 12.396388 12.892578 11.59375 C 12.963328 10.7793 13 9.8743125 13 8.8828125 L 13 6 L 11 6 z M 12 16 A 1 1 0 0 0 11 17 A 1 1 0 0 0 12 18 A 1 1 0 0 0 13 17 A 1 1 0 0 0 12 16 z" style="color:#000;fill:gray;stroke-width:4;-inkscape-stroke:none"/></svg>