<svg xmlns="http://www.w3.org/2000/svg" xmlns:svg="http://www.w3.org/2000/svg" id="svg7384" width="24" height="24" version="1.1"><metadata id="metadata20854"/><defs id="defs7386"><linearGradient id="linearGradient5606"><stop id="stop5608" offset="0" style="stop-color:#000;stop-opacity:1"/></linearGradient><linearGradient id="linearGradient4526"><stop id="stop4528" offset="0" style="stop-color:#fff;stop-opacity:1"/></linearGradient><linearGradient id="linearGradient3600-4"><stop id="stop3602-7" offset="0" style="stop-color:#f4f4f4;stop-opacity:1"/><stop id="stop3604-6" offset="1" style="stop-color:#dbdbdb;stop-opacity:1"/></linearGradient></defs><path id="path1347-7" d="m 10,2 v 1 h -1.9941407 c -0.4384,0 -0.785685,0.007 -1.078125,0.1171875 -0.29244,0.10978 -0.5275758,0.3076737 -0.6660156,0.5585937 -0.27688,0.50183 -0.2520188,1.1162782 -0.2617187,1.9550782 v 0.00195 l 0.03125,12.7031256 v 0.002 c 0.01,0.8388 -0.015101,1.451295 0.2617187,1.953125 0.13844,0.25092 0.3735756,0.450767 0.6660156,0.560546 0.29244,0.109782 0.639725,0.148438 1.0781251,0.148438 h 7.9941406 c 0.43841,0 0.785685,-0.0386 1.078125,-0.148438 0.29244,-0.10978 0.525623,-0.309626 0.664062,-0.560546 0.27688,-0.50183 0.248113,-1.114325 0.257813,-1.953125 v -0.002 l -0.03125,-12.7031256 v -0.00195 c -0.01,-0.8388 0.019,-1.453248 -0.257813,-1.9550782 -0.138439,-0.2509198 -0.371622,-0.4488137 -0.664062,-0.5585937 -0.29244,-0.10967 -0.639715,-0.1171875 -1.078125,-0.1171875 h -2 v -1 z m -1.9941407,2 h 7.9941407 c 0.427369,0 0.662209,0.029334 0.724609,0.052734 0.0855,0.0321 0.126748,0.076799 0.142578,0.1054687 0.0951,0.1724 0.12036,0.6175994 0.13086,1.4746094 l 0.0332,12.6933599 v 0.01172 c -0.0102,0.85438 -0.0377,1.298303 -0.132813,1.470703 -0.0158,0.0287 -0.05519,0.0734 -0.140624,0.105468 -0.122831,0.04625 -0.348373,0.08594 -0.726563,0.08594 h -7.9941406 c -0.37814,0 -0.6038625,-0.03994 -0.7265625,-0.08594 -0.0855,-0.0321 -0.1267581,-0.0768 -0.1425781,-0.105468 -0.0981,-0.1779 -0.1264188,-0.620055 -0.1367188,-1.484375 l -0.033203,-12.6914069 c 0.0102,-0.85282 0.039099,-1.2976494 0.1367187,-1.4746094 0.0158,-0.0287 0.057098,-0.073399 0.1425782,-0.1054687 0.0613,-0.0231 0.3007556,-0.052734 0.7285156,-0.052734 z" style="color:#000;fill:gray;stroke-width:4;-inkscape-stroke:none"/><rect style="fill:gray;fill-rule:evenodd;stroke-width:.5;stroke-linecap:square" id="rect1141" width="8.016" height="7" x="8" y="12"/></svg>