<svg xmlns="http://www.w3.org/2000/svg" xmlns:svg="http://www.w3.org/2000/svg" id="svg7384" width="24" height="24" shape-rendering="crispEdges" version="1.1"><metadata id="metadata20854"/><defs id="defs7386"><linearGradient id="linearGradient5606"><stop id="stop5608" offset="0" style="stop-color:#000;stop-opacity:1"/></linearGradient><linearGradient id="linearGradient4526"><stop id="stop4528" offset="0" style="stop-color:#fff;stop-opacity:1"/></linearGradient><linearGradient id="linearGradient3600-4"><stop id="stop3602-7" offset="0" style="stop-color:#f4f4f4;stop-opacity:1"/><stop id="stop3604-6" offset="1" style="stop-color:#dbdbdb;stop-opacity:1"/></linearGradient></defs><path id="path1347-7" d="m 14,2 v 1 h -1.994141 c -0.4384,0 -0.785685,0.007 -1.078125,0.1171875 -0.29244,0.10978 -0.527575,0.3076737 -0.666015,0.5585937 -0.2768803,0.50183 -0.252019,1.1162782 -0.261719,1.9550782 v 0.00195 l 0.0332,12.7031256 v 0.002 c 0.01,0.8388 -0.0151,1.451295 0.261719,1.953125 0.13844,0.25092 0.373576,0.450767 0.666016,0.560546 0.292439,0.109782 0.639725,0.148438 1.078124,0.148438 h 6.994141 c 0.43841,0 0.785685,-0.0386 1.078125,-0.148438 0.29244,-0.10978 0.525623,-0.309626 0.664063,-0.560546 0.27688,-0.50183 0.248112,-1.114325 0.257812,-1.953125 v -0.002 l -0.0332,-12.7031256 v -0.00195 c -0.01,-0.8388 0.019,-1.453248 -0.257812,-1.9550782 -0.13844,-0.2509198 -0.371623,-0.4488137 -0.664063,-0.5585937 -0.29244,-0.10967 -0.639715,-0.1171875 -1.078125,-0.1171875 h -2 v -1 z m -1.994141,2 h 6.994141 c 0.42737,0 0.664162,0.029334 0.726562,0.052734 0.0855,0.0321 0.124794,0.076799 0.140626,0.1054687 0.0951,0.1724 0.122312,0.6175994 0.132812,1.4746094 l 0.0332,12.6933599 v 0.01172 c -0.0102,0.85438 -0.0377,1.298303 -0.132812,1.470703 -0.0158,0.0287 -0.05519,0.0734 -0.140625,0.105468 -0.12283,0.04625 -0.348373,0.08594 -0.726563,0.08594 h -6.994141 c -0.37814,0 -0.603862,-0.03994 -0.726562,-0.08594 -0.0855,-0.0321 -0.126758,-0.0768 -0.142578,-0.105468 -0.0981,-0.1779 -0.126419,-0.620055 -0.136719,-1.484375 l -0.0332,-12.6914069 c 0.0102,-0.85282 0.0391,-1.2976494 0.136719,-1.4746094 0.0158,-0.0287 0.0571,-0.073399 0.142578,-0.1054687 0.0613,-0.0231 0.298802,-0.052734 0.726562,-0.052735 z" style="color:#000;fill:gray;stroke-width:4;-inkscape-stroke:none"/><path style="display:inline;fill:gray;fill-opacity:1;stroke:none;stroke-width:.999802;enable-background:new" id="path2970-6" d="m 5,20 3,-8 h -2 v -7 l -3,8 h 2 z"/><rect style="fill:gray;fill-rule:evenodd;stroke-width:.499999;stroke-linecap:square" id="rect1141" width="7" height="2.8" x="12" y="16.2"/></svg>