<svg xmlns="http://www.w3.org/2000/svg" xmlns:svg="http://www.w3.org/2000/svg" id="svg6" width="24" height="24" version="1.1"><path id="rect1046" d="M 3.25 2 C 2.5747979 2 2 2.5747979 2 3.25 L 2 5.75 C 2 6.4252021 2.5747979 7 3.25 7 L 5.75 7 C 6.4252021 7 7 6.4252021 7 5.75 L 7 3.25 C 7 2.5747979 6.4252021 2 5.75 2 L 3.25 2 z M 3 3 L 6 3 L 6 6 L 3 6 L 3 3 z" style="color:#000;fill:gray;fill-rule:evenodd;stroke-linecap:round;-inkscape-stroke:none;fill-opacity:1"/><path id="path1423" d="m 10.25,2 c -0.6752021,0 -1.25,0.5747979 -1.25,1.25 v 2.5 c 0,0.6752021 0.5747979,1.25 1.25,1.25 h 2.5 c 0.675202,0 1.25,-0.5747979 1.25,-1.25 v -2.5 c 0,-0.6752021 -0.574798,-1.25 -1.25,-1.25 z m -0.25,1 h 3 v 3 h -3 z" style="color:#000;fill:gray;fill-rule:evenodd;stroke-linecap:round;-inkscape-stroke:none;fill-opacity:1"/><path id="path1425" d="m 17.25,2 c -0.675202,0 -1.25,0.5747979 -1.25,1.25 v 2.5 c 0,0.6752021 0.574798,1.25 1.25,1.25 h 2.5 c 0.675202,0 1.25,-0.5747979 1.25,-1.25 v -2.5 c 0,-0.6752021 -0.574798,-1.25 -1.25,-1.25 z m -0.25,1 h 3 v 3 h -3 z" style="color:#000;fill:gray;fill-rule:evenodd;stroke-linecap:round;-inkscape-stroke:none;fill-opacity:1"/><path id="path1427" d="m 3.25,9 c -0.6752021,0 -1.25,0.5747979 -1.25,1.25 v 2.5 c 0,0.675202 0.5747979,1.25 1.25,1.25 h 2.5 c 0.6752021,0 1.25,-0.574798 1.25,-1.25 v -2.5 c 0,-0.6752021 -0.5747979,-1.25 -1.25,-1.25 z m -0.25,1 h 3 v 3 h -3 z" style="color:#000;fill:gray;fill-rule:evenodd;stroke-linecap:round;-inkscape-stroke:none;fill-opacity:1"/><path id="path1429" d="m 10.25,9 c -0.6752021,0 -1.25,0.5747979 -1.25,1.25 v 2.5 c 0,0.675202 0.5747979,1.25 1.25,1.25 h 2.5 c 0.675202,0 1.25,-0.574798 1.25,-1.25 v -2.5 c 0,-0.6752021 -0.574798,-1.25 -1.25,-1.25 z m -0.25,1 h 3 v 3 h -3 z" style="color:#000;fill:gray;fill-rule:evenodd;stroke-linecap:round;-inkscape-stroke:none;fill-opacity:1"/><path id="path1431" d="m 17.25,9 c -0.675202,0 -1.25,0.5747979 -1.25,1.25 v 2.5 c 0,0.675202 0.574798,1.25 1.25,1.25 h 2.5 c 0.675202,0 1.25,-0.574798 1.25,-1.25 v -2.5 c 0,-0.6752021 -0.574798,-1.25 -1.25,-1.25 z m -0.25,1 h 3 v 3 h -3 z" style="color:#000;fill:gray;fill-rule:evenodd;stroke-linecap:round;-inkscape-stroke:none;fill-opacity:1"/><path id="path1433" d="m 3.25,16 c -0.6752021,0 -1.25,0.574798 -1.25,1.25 v 2.5 c 0,0.675202 0.5747979,1.25 1.25,1.25 h 2.5 c 0.6752021,0 1.25,-0.574798 1.25,-1.25 v -2.5 c 0,-0.675202 -0.5747979,-1.25 -1.25,-1.25 z m -0.25,1 h 3 v 3 h -3 z" style="color:#000;fill:gray;fill-rule:evenodd;stroke-linecap:round;-inkscape-stroke:none;fill-opacity:1"/><path id="path1435" d="m 10.25,16 c -0.6752021,0 -1.25,0.574798 -1.25,1.25 v 2.5 c 0,0.675202 0.5747979,1.25 1.25,1.25 h 2.5 c 0.675202,0 1.25,-0.574798 1.25,-1.25 v -2.5 c 0,-0.675202 -0.574798,-1.25 -1.25,-1.25 z m -0.25,1 h 3 v 3 h -3 z" style="color:#000;fill:gray;fill-rule:evenodd;stroke-linecap:round;-inkscape-stroke:none;fill-opacity:1"/><path id="path1437" d="m 17.25,16 c -0.675202,0 -1.25,0.574798 -1.25,1.25 v 2.5 c 0,0.675202 0.574798,1.25 1.25,1.25 h 2.5 c 0.675202,0 1.25,-0.574798 1.25,-1.25 v -2.5 c 0,-0.675202 -0.574798,-1.25 -1.25,-1.25 z m -0.25,1 h 3 v 3 h -3 z" style="color:#000;fill:gray;fill-rule:evenodd;stroke-linecap:round;-inkscape-stroke:none;fill-opacity:1"/></svg>