<svg xmlns="http://www.w3.org/2000/svg" xmlns:svg="http://www.w3.org/2000/svg" id="svg4" width="24" height="24" version="1.1"><path id="path940" d="M 5 15 A 7 7 0 0 0 12 22 A 7 7 0 0 0 19 15 L 14 15 A 2 2 0 0 1 12 17 A 2 2 0 0 1 10 15 L 5 15 z M 11 15 A 1 1 0 0 0 12 16 A 1 1 0 0 0 13 15 L 11 15 z" style="fill:gray;fill-rule:evenodd;stroke-width:.5;stroke-linecap:round"/><path id="path858" d="m 5.455078,2.0007319 c -0.968581,0.009 -1.717819,0.07327 -2.33789,0.445313 -0.413382,0.248028 -0.719938,0.655907 -0.888672,1.162109 -0.168734,0.506202 -0.228516,1.114801 -0.228516,1.892578 v 9.0000001 c 0,0.777777 0.05978,1.386376 0.228516,1.892578 0.168734,0.506202 0.47529,0.914081 0.888672,1.16211 0.267386,0.160431 0.560199,0.261866 0.882812,0.328124 v -1.046874 c -0.147314,-0.03819 -0.27245,-0.08378 -0.367187,-0.140626 -0.211619,-0.12697 -0.342563,-0.281593 -0.455079,-0.61914 -0.112515,-0.337547 -0.177734,-0.85395 -0.177734,-1.576172 v -0.500732 h 18 v 0.500732 c 0,0.722222 -0.06522,1.238625 -0.177734,1.576172 -0.112516,0.337547 -0.243459,0.49217 -0.455078,0.61914 -0.09474,0.05684 -0.219874,0.102435 -0.367188,0.140626 v 1.046874 c 0.322613,-0.06626 0.615426,-0.167694 0.882812,-0.328124 0.413382,-0.248029 0.719938,-0.655908 0.888672,-1.16211 0.168734,-0.506202 0.228516,-1.114801 0.228516,-1.892578 v -9.0000001 c 0,-0.777777 -0.05978,-1.386376 -0.228516,-1.892578 -0.168734,-0.506202 -0.47529,-0.914081 -0.888672,-1.162109 -0.826761,-0.496058 -1.882814,-0.445313 -3.382812,-0.445313 h -11 c -0.375,0 -0.722062,-0.003 -1.044922,0 z" style="color:#000;fill:gray;fill-opacity:1;-inkscape-stroke:none"/></svg>