<svg xmlns="http://www.w3.org/2000/svg" xmlns:svg="http://www.w3.org/2000/svg" id="svg4" width="24" height="24" version="1.1"><path id="path858" d="m 5.4550781,2 c -0.9685809,0.00898 -1.717819,0.073269 -2.3378906,0.4453125 -0.4133811,0.2480287 -0.7199379,0.6559075 -0.8886719,1.1621094 -0.1687339,0.5062019 -0.2285156,1.1148011 -0.2285156,1.8925781 v 9 c 0,0.777777 0.059782,1.386376 0.2285156,1.892578 0.168734,0.506202 0.4752908,0.914081 0.8886719,1.16211 0.2673861,0.160431 0.5601994,0.261866 0.8828125,0.328124 v -1.046874 c -0.1473136,-0.03819 -0.2724503,-0.08378 -0.3671875,-0.140626 -0.2116183,-0.12697 -0.3425624,-0.281593 -0.4550781,-0.61914 -0.1125158,-0.337547 -0.1777344,-0.85395 -0.1777344,-1.576172 v -0.5 h 18 v 0.5 c 0,0.722222 -0.06522,1.238625 -0.177734,1.576172 -0.112516,0.337547 -0.243459,0.49217 -0.455078,0.61914 -0.09474,0.05684 -0.219874,0.102435 -0.367188,0.140626 v 1.046874 c 0.322613,-0.06626 0.615426,-0.167694 0.882812,-0.328124 0.413382,-0.248029 0.719938,-0.655908 0.888672,-1.16211 0.168734,-0.506202 0.228516,-1.114801 0.228516,-1.892578 v -9 c 0,-0.777777 -0.05978,-1.3863762 -0.228516,-1.8925781 -0.168734,-0.5062019 -0.47529,-0.9140807 -0.888672,-1.1621094 -0.826761,-0.4960573 -1.882814,-0.4453125 -3.382812,-0.4453125 h -11 c -0.3749996,0 -0.7220616,-0.00299 -1.0449219,0 z m 1.0449219,1 h 11 c 1.499998,0 2.44395,0.050746 2.867188,0.3046875 0.211618,0.126971 0.342562,0.2815934 0.455078,0.6191406 0.112515,0.3375473 0.177734,0.8539504 0.177734,1.5761719 v 7.5 h -18 v -7.5 c 0,-0.7222215 0.065219,-1.2386246 0.1777344,-1.5761719 0.1125157,-0.3375472 0.2434598,-0.4921696 0.4550781,-0.6191406 0.4232365,-0.2539419 1.367189,-0.3046875 2.8671875,-0.3046875 z" style="color:#000;fill:gray;fill-opacity:1;-inkscape-stroke:none"/><path id="path1213" d="M 10 15 A 2 2 0 0 0 12 17 A 2 2 0 0 0 14 15 L 13 15 A 1 1 0 0 1 12 16 A 1 1 0 0 1 11 15 L 10 15 z" style="fill:gray;fill-rule:evenodd;stroke-width:.5;stroke-linecap:round;fill-opacity:1"/><path id="path1265" d="M 5 15 A 7 7 0 0 0 12 22 A 7 7 0 0 0 19 15 L 18 15 A 6 6 0 0 1 12 21 A 6 6 0 0 1 6 15 L 5 15 z" style="fill:gray;fill-rule:evenodd;stroke-width:.5;stroke-linecap:round;fill-opacity:1"/></svg>