<svg xmlns="http://www.w3.org/2000/svg" xmlns:svg="http://www.w3.org/2000/svg" id="svg4" width="24" height="24" version="1.1"><path id="path858" d="M 5.4550781 3 C 4.4864972 3.0089807 3.7372591 3.0732694 3.1171875 3.4453125 C 2.7038064 3.6933412 2.3972496 4.10122 2.2285156 4.6074219 C 2.0597817 5.1136238 2 5.722223 2 6.5 L 2 17.5 C 2 18.277777 2.059782 18.886376 2.2285156 19.392578 C 2.3972496 19.89878 2.7038064 20.306659 3.1171875 20.554688 C 3.9439497 21.050746 5.0000015 21 6.5 21 L 17.5 21 C 18.999998 21 20.05605 21.05074 20.882812 20.554688 C 21.296194 20.306659 21.60275 19.89878 21.771484 19.392578 C 21.940218 18.886376 22 18.277777 22 17.5 L 22 6.5 C 22 5.722223 21.94022 5.1136238 21.771484 4.6074219 C 21.60275 4.10122 21.296194 3.6933412 20.882812 3.4453125 C 20.056051 2.9492552 18.999998 3 17.5 3 L 6.5 3 C 6.1250004 3 5.7779384 2.9970064 5.4550781 3 z M 6.5 4 L 17.5 4 C 18.999998 4 19.943951 4.050746 20.367188 4.3046875 C 20.578806 4.4316585 20.70975 4.5862809 20.822266 4.9238281 C 20.934781 5.2613754 21 5.7777785 21 6.5 L 21 14 L 3 14 L 3 6.5 C 3 5.7777785 3.065219 5.2613754 3.1777344 4.9238281 C 3.2902501 4.5862809 3.4211942 4.4316585 3.6328125 4.3046875 C 4.056049 4.0507456 5.0000015 4 6.5 4 z M 3 15 L 21 15 L 21 17.5 C 21 18.222221 20.93478 18.738625 20.822266 19.076172 C 20.70975 19.413719 20.578807 19.568342 20.367188 19.695312 C 19.943952 19.949254 18.999999 20 17.5 20 L 6.5 20 C 5.0000015 20 4.056049 19.94925 3.6328125 19.695312 C 3.4211942 19.568342 3.2902501 19.413719 3.1777344 19.076172 C 3.0652186 18.738625 3 18.222221 3 17.5 L 3 15 z M 5 17 L 5 18 L 19 18 L 19 17 L 5 17 z" style="color:#000;fill:gray;-inkscape-stroke:none;fill-opacity:1"/></svg>