<svg xmlns="http://www.w3.org/2000/svg" xmlns:svg="http://www.w3.org/2000/svg" id="svg4" width="24" height="24" version="1.1"><path id="path858" d="M 5.4550781 3 C 4.4864972 3.0089807 3.7372597 3.0732694 3.1171875 3.4453125 C 2.7038065 3.6933412 2.3972496 4.10122 2.2285156 4.6074219 C 2.0597816 5.1136238 2 5.722223 2 6.5 L 2 15 L 22 15 L 22 6.5 C 22 5.722223 21.94022 5.1136238 21.771484 4.6074219 C 21.60275 4.10122 21.296194 3.6933412 20.882812 3.4453125 C 20.056051 2.9492552 18.999998 3 17.5 3 L 6.5 3 C 6.1250003 3 5.7779384 2.9970064 5.4550781 3 z M 2 16 L 2 17.5 C 2 18.277777 2.0597796 18.886376 2.2285156 19.392578 C 2.3972496 19.89878 2.7038065 20.306659 3.1171875 20.554688 C 3.9439505 21.050746 5.000001 21 6.5 21 L 17.5 21 C 18.999998 21 20.05605 21.05074 20.882812 20.554688 C 21.296194 20.306659 21.60275 19.89878 21.771484 19.392578 C 21.940218 18.886376 22 18.277777 22 17.5 L 22 16 L 2 16 z M 5 18 L 19 18 L 19 19 L 5 19 L 5 18 z" style="color:#000;fill:gray;fill-opacity:1;-inkscape-stroke:none"/></svg>