<svg xmlns="http://www.w3.org/2000/svg" xmlns:svg="http://www.w3.org/2000/svg" id="svg7384" width="24" height="24" version="1.1"><metadata id="metadata20854"/><defs id="defs7386"><linearGradient id="linearGradient5606"><stop id="stop5608" offset="0" style="stop-color:#000;stop-opacity:1"/></linearGradient><linearGradient id="linearGradient4526"><stop id="stop4528" offset="0" style="stop-color:#fff;stop-opacity:1"/></linearGradient><linearGradient id="linearGradient3600-4"><stop id="stop3602-7" offset="0" style="stop-color:#f4f4f4;stop-opacity:1"/><stop id="stop3604-6" offset="1" style="stop-color:#dbdbdb;stop-opacity:1"/></linearGradient></defs><path id="path860" d="M 7.4550781 2 C 6.4864972 2.0089807 5.7372591 2.0732694 5.1171875 2.4453125 C 4.7038064 2.6933412 4.3972496 3.10122 4.2285156 3.6074219 C 4.0597817 4.1136238 4 4.7222227 4 5.5 L 4 18.5 C 4 19.277777 4.059782 19.886376 4.2285156 20.392578 C 4.3972496 20.89878 4.7038064 21.306659 5.1171875 21.554688 C 5.9439497 22.050746 7.0000015 22 8.5 22 L 15.5 22 C 16.999998 22 18.05605 22.05074 18.882812 21.554688 C 19.296194 21.306659 19.60275 20.89878 19.771484 20.392578 C 19.940218 19.886376 20 19.277777 20 18.5 L 20 5.5 C 20 4.7222227 19.94022 4.1136238 19.771484 3.6074219 C 19.60275 3.10122 19.296194 2.6933412 18.882812 2.4453125 C 18.056051 1.9492552 16.999998 2 15.5 2 L 8.5 2 C 8.1250004 2 7.7779384 1.9970064 7.4550781 2 z M 9 6 L 10 6 L 10 7 L 11 7 L 11 6 L 12 6 L 12 7 L 13 7 L 13 6 L 14 6 L 14 7 L 15 7 C 15.554 7 16 7.446 16 8 L 17 8 L 17 9 L 16 9 L 16 10 L 17 10 L 17 11 L 16 11 L 16 12 L 17 12 L 17 13 L 16 13 L 16 14 L 17 14 L 17 15 L 16 15 L 16 16 L 17 16 L 17 17 L 16 17 C 16 17.554 15.554 18 15 18 L 15 19 L 14 19 L 14 18 L 13 18 L 13 19 L 12 19 L 12 18 L 11 18 L 11 19 L 10 19 L 10 18 L 9 18 C 8.446 18 8 17.554 8 17 L 7 17 L 7 16 L 8 16 L 8 15 L 7 15 L 7 14 L 8 14 L 8 13 L 7 13 L 7 12 L 8 12 L 8 11 L 7 11 L 7 10 L 8 10 L 8 9 L 7 9 L 7 8 L 8 8 C 8 7.446 8.446 7 9 7 L 9 6 z M 9.5 8 C 9.223 8 9 8.223 9 8.5 L 9 16.5 C 9 16.777 9.223 17 9.5 17 L 14.5 17 C 14.777 17 15 16.777 15 16.5 L 15 8.5 C 15 8.223 14.777 8 14.5 8 L 9.5 8 z" style="color:#000;fill:gray;fill-opacity:1;-inkscape-stroke:none"/></svg>