<svg xmlns="http://www.w3.org/2000/svg" xmlns:svg="http://www.w3.org/2000/svg" id="svg7384" width="24" height="24" version="1.1"><metadata id="metadata20854"/><defs id="defs7386"><linearGradient id="linearGradient5606"><stop id="stop5608" offset="0" style="stop-color:#000;stop-opacity:1"/></linearGradient><linearGradient id="linearGradient4526"><stop id="stop4528" offset="0" style="stop-color:#fff;stop-opacity:1"/></linearGradient><linearGradient id="linearGradient3600-4"><stop id="stop3602-7" offset="0" style="stop-color:#f4f4f4;stop-opacity:1"/><stop id="stop3604-6" offset="1" style="stop-color:#dbdbdb;stop-opacity:1"/></linearGradient></defs><path style="color:#000;fill:gray;fill-opacity:1;-inkscape-stroke:none" id="path860" d="m 8.5,2.0000001 c -1.4999985,0 -2.5560503,-0.050745 -3.3828125,0.4453125 -0.4133811,0.2480287 -0.7199379,0.6559075 -0.8886719,1.1621094 -0.1687339,0.5062019 -0.2285156,1.1148011 -0.2285156,1.8925781 v 12.9999999 c 0,0.777777 0.059782,1.386376 0.2285156,1.892578 0.168734,0.506202 0.4752908,0.914081 0.8886719,1.162109 0.8267622,0.496058 1.882814,0.445313 3.3828125,0.445313 h 7 c 1.499998,0 2.55605,0.05074 3.382812,-0.445313 0.413382,-0.248028 0.719938,-0.655907 0.888672,-1.162109 0.168734,-0.506202 0.228516,-1.114801 0.228516,-1.892578 v -12.9999999 c 0,-0.777777 -0.05978,-1.3863762 -0.228516,-1.8925781 -0.168734,-0.5062019 -0.47529,-0.9140807 -0.888672,-1.1621094 -0.826762,-0.4960573 -1.882814,-0.4453125 -3.382812,-0.4453125 z m 0,1 h 7 c 1.499998,0 2.443951,0.050746 2.867187,0.3046875 0.211619,0.126971 0.342563,0.2815934 0.455079,0.6191406 0.112515,0.3375473 0.177734,0.8539504 0.177734,1.5761719 v 12.9999999 c 0,0.722221 -0.06522,1.238625 -0.177734,1.576172 -0.112516,0.337547 -0.24346,0.49217 -0.455079,0.61914 -0.423236,0.253942 -1.367188,0.304688 -2.867187,0.304688 h -7 c -1.4999985,0 -2.443951,-0.05075 -2.8671875,-0.304688 -0.2116183,-0.12697 -0.3425624,-0.281593 -0.4550781,-0.61914 -0.1125158,-0.337547 -0.1777344,-0.853951 -0.1777344,-1.576172 v -12.9999999 c 0,-0.7222215 0.065219,-1.2386246 0.1777344,-1.5761719 0.1125157,-0.3375472 0.2434598,-0.4921696 0.4550781,-0.6191406 0.4232365,-0.2539419 1.367189,-0.3046875 2.8671875,-0.3046875 z"/><path id="rect970" d="M 9 6 L 9 7 C 8.446 7 8 7.446 8 8 L 7 8 L 7 9 L 8 9 L 8 10 L 7 10 L 7 11 L 8 11 L 8 12 L 7 12 L 7 13 L 8 13 L 8 14 L 7 14 L 7 15 L 8 15 L 8 16 L 7 16 L 7 17 L 8 17 C 8 17.554 8.446 18 9 18 L 10 18 L 10 19 L 11 19 L 11 18 L 12 18 L 12 19 L 13 19 L 13 18 L 14 18 L 14 19 L 15 19 L 15 18 C 15.554 18 16 17.554 16 17 L 17 17 L 17 16 L 16 16 L 16 15 L 17 15 L 17 14 L 16 14 L 16 13 L 17 13 L 17 12 L 16 12 L 16 11 L 17 11 L 17 10 L 16 10 L 16 9 L 17 9 L 17 8 L 16 8 C 16 7.446 15.554 7 15 7 L 14 7 L 14 6 L 13 6 L 13 7 L 12 7 L 12 6 L 11 6 L 11 7 L 10 7 L 10 6 L 9 6 z M 9.5 8 L 14.5 8 C 14.777 8 15 8.223 15 8.5 L 15 16.5 C 15 16.777 14.777 17 14.5 17 L 9.5 17 C 9.223 17 9 16.777 9 16.5 L 9 8.5 C 9 8.223 9.223 8 9.5 8 z" style="fill:gray;fill-rule:evenodd;stroke-width:.5;stroke-linecap:round;fill-opacity:1"/></svg>