<svg xmlns="http://www.w3.org/2000/svg" xmlns:svg="http://www.w3.org/2000/svg" id="svg7384" width="24" height="24" version="1.1"><metadata id="metadata20854"/><defs id="defs7386"><linearGradient id="linearGradient5606"><stop id="stop5608" offset="0" style="stop-color:#000;stop-opacity:1"/></linearGradient><linearGradient id="linearGradient4526"><stop id="stop4528" offset="0" style="stop-color:#fff;stop-opacity:1"/></linearGradient><linearGradient id="linearGradient3600-4"><stop id="stop3602-7" offset="0" style="stop-color:#f4f4f4;stop-opacity:1"/><stop id="stop3604-6" offset="1" style="stop-color:#dbdbdb;stop-opacity:1"/></linearGradient></defs><g id="layer1" transform="matrix(1.4999984,0,0,1.4999984,-287.99968,-719.99923)" style="display:inline;stroke-width:.666667"><path id="path3032-9" d="m 198.96094,482 c -0.40445,0.85426 -0.79836,1.72031 -1.17969,2.59766 -0.38133,0.87734 -0.76922,1.79983 -1.16211,2.76953 -0.38133,0.9697 -0.77328,1.99885 -1.17773,3.08398 -0.24997,0.67066 -0.5252,1.44802 -0.79297,2.19336 l 3.64453,-3.64453 h -0.11719 c 0.31245,-0.86082 0.61946,-1.69447 0.90625,-2.44531 0.34667,-0.87736 0.65219,-1.62255 0.91797,-2.23438 0.24239,0.56135 0.53302,1.27904 0.85938,2.11328 l 1.48632,-1.48632 c -0.0481,-0.1122 -0.0964,-0.23886 -0.14453,-0.34961 -0.38133,-0.87735 -0.77328,-1.7434 -1.17773,-2.59766 z m 6.75781,0.98828 -2.95898,2.95899 -1.51368,1.51367 -1.53906,1.53906 -2,2 -0.32422,0.32422 -2.67578,2.67578 -1.00976,1.00977 0.70703,0.70703 1.71679,-1.7168 h 0.3086 c 0.0555,-0.15826 0.11071,-0.31643 0.16601,-0.47461 l 2.52539,-2.52539 h 3.2793 c 0.16178,0.48485 0.40675,1.1359 0.58008,1.59766 0.17333,0.46176 0.34213,0.92904 0.50391,1.40234 h 2.35742 c -0.45067,-1.28139 -0.88478,-2.46369 -1.30078,-3.54883 -0.40445,-1.08513 -0.80243,-2.11428 -1.19532,-3.08398 -0.0576,-0.14648 -0.11629,-0.27784 -0.17382,-0.41797 l 3.2539,-3.25391 z m -4.08789,5.50195 c 0.0637,0.17066 0.12634,0.33103 0.19141,0.50977 h -0.70118 z" style="font-style:normal;font-variant:normal;font-weight:500;font-stretch:normal;font-size:17.3333px;line-height:1.25;font-family:Ubuntu;-inkscape-font-specification:'Ubuntu, Medium';font-variant-ligatures:normal;font-variant-caps:normal;font-variant-numeric:normal;font-feature-settings:normal;text-align:start;letter-spacing:0;word-spacing:0;writing-mode:lr-tb;text-anchor:start;display:inline;fill:gray;fill-opacity:1;stroke:none;stroke-width:.666334"/></g></svg>