<svg xmlns="http://www.w3.org/2000/svg" xmlns:svg="http://www.w3.org/2000/svg" id="svg7384" width="24" height="24" version="1.1"><metadata id="metadata20854"/><defs id="defs7386"><linearGradient id="linearGradient5606"><stop id="stop5608" offset="0" style="stop-color:#000;stop-opacity:1"/></linearGradient><linearGradient id="linearGradient4526"><stop id="stop4528" offset="0" style="stop-color:#fff;stop-opacity:1"/></linearGradient><linearGradient id="linearGradient3600-4"><stop id="stop3602-7" offset="0" style="stop-color:#f4f4f4;stop-opacity:1"/><stop id="stop3604-6" offset="1" style="stop-color:#dbdbdb;stop-opacity:1"/></linearGradient></defs><rect style="fill:gray;fill-opacity:1;fill-rule:evenodd;stroke-width:.5;stroke-linecap:square" id="rect2020" width="10" height="1" x="10" y="6"/><rect style="fill:gray;fill-opacity:1;fill-rule:evenodd;stroke-width:.5;stroke-linecap:square" id="rect2022" width="10" height="1" x="10" y="11"/><rect style="fill:gray;fill-opacity:1;fill-rule:evenodd;stroke-width:.5;stroke-linecap:square" id="rect2046" width="10" height="1" x="10" y="16"/><path id="rect2050" d="M 5 10 L 5 13 L 6 13 L 7 13 L 8 13 L 8 10 L 7 10 L 6 10 L 5 10 z M 6 11 L 7 11 L 7 12 L 6 12 L 6 11 z" style="fill:gray;fill-opacity:1;fill-rule:evenodd;stroke-width:.5;stroke-linecap:square"/><path id="path2792" d="m 5,5 v 3 h 1 1 1 v -3 h -1 -1 z m 1,1 h 1 v 1 h -1 z" style="fill:gray;fill-opacity:1;fill-rule:evenodd;stroke-width:.5;stroke-linecap:square"/><path id="path2794" d="m 5,15 v 3 h 1 1 1 v -3 h -1 -1 z m 1,1 h 1 v 1 h -1 z" style="fill:gray;fill-opacity:1;fill-rule:evenodd;stroke-width:.5;stroke-linecap:square"/></svg>