<svg xmlns="http://www.w3.org/2000/svg" xmlns:svg="http://www.w3.org/2000/svg" id="svg7384" width="24" height="24" version="1.1"><metadata id="metadata20854"/><defs id="defs7386"><linearGradient id="linearGradient5606"><stop id="stop5608" offset="0" style="stop-color:#000;stop-opacity:1"/></linearGradient><linearGradient id="linearGradient4526"><stop id="stop4528" offset="0" style="stop-color:#fff;stop-opacity:1"/></linearGradient><linearGradient id="linearGradient3600-4"><stop id="stop3602-7" offset="0" style="stop-color:#f4f4f4;stop-opacity:1"/><stop id="stop3604-6" offset="1" style="stop-color:#dbdbdb;stop-opacity:1"/></linearGradient></defs><path id="path876" d="M 7.4550781 3.0019531 C 6.4864972 3.0109338 5.7372591 3.0752225 5.1171875 3.4472656 C 4.7038064 3.6952943 4.3972496 4.1031731 4.2285156 4.609375 C 4.0597817 5.1155769 4 5.7241761 4 6.5019531 L 4 12.501953 C 4 13.27973 4.059782 13.888329 4.2285156 14.394531 C 4.3972496 14.900733 4.7038064 15.306658 5.1171875 15.554688 C 5.9439497 16.050745 7.0000015 16.001953 8.5 16.001953 L 14.5 16.001953 C 15.999999 16.001953 17.05605 16.050742 17.882812 15.554688 C 18.296194 15.306658 18.60275 14.900733 18.771484 14.394531 C 18.940218 13.888329 19 13.27973 19 12.501953 L 19 6.5019531 C 19 5.7241761 18.94022 5.1155769 18.771484 4.609375 C 18.60275 4.1031731 18.296194 3.6952943 17.882812 3.4472656 C 17.056051 2.9512083 15.999999 3.0019531 14.5 3.0019531 L 8.5 3.0019531 C 8.1250004 3.0019531 7.7779384 2.9989596 7.4550781 3.0019531 z M 8.5 4.0019531 L 14.5 4.0019531 C 15.999999 4.0019531 16.943951 4.0507461 17.367188 4.3046875 C 17.578806 4.4316585 17.70975 4.5882341 17.822266 4.9257812 C 17.934781 5.2633285 18 5.7797316 18 6.5019531 L 18 12.501953 C 18 12.68111 17.996034 12.847715 17.988281 13.001953 L 5.0117188 13.001953 C 5.0039658 12.847715 5 12.68111 5 12.501953 L 5 6.5019531 C 5 5.7797316 5.065219 5.2633285 5.1777344 4.9257812 C 5.2902501 4.588234 5.4211942 4.4316585 5.6328125 4.3046875 C 6.056049 4.0507456 7.0000015 4.0019531 8.5 4.0019531 z" style="color:#000;fill:gray;-inkscape-stroke:none"/><path style="fill:gray;fill-opacity:1;stroke:none;stroke-width:1px;stroke-linecap:butt;stroke-linejoin:miter" id="path1513" d="m 7,12.001393 2.5,-5.0000003 1.5,2.5 1.5,-1.5 2.5,4.0000003 z"/><circle style="fill:gray;fill-opacity:1;fill-rule:evenodd;stroke:none;stroke-width:2" id="path1806" cx="15" cy="7.001" r="1"/><g id="layer1" transform="matrix(1.25,0,0,1.25,-195.77274,-272.5016)" style="display:inline;stroke-width:.8"><path style="color:#000;display:inline;overflow:visible;visibility:visible;opacity:1;fill:gray;fill-opacity:1;fill-rule:nonzero;stroke:none;stroke-width:.599882;marker:none;enable-background:accumulate" id="path6606" d="m 167.99999,231.60139 -4.36361,0.001 c 0.30341,0.66365 0.64289,1.33926 1.01795,2.02713 0.37595,0.68141 0.76372,1.33869 1.16367,1.97142 0.39196,-0.63273 0.77602,-1.29001 1.15197,-1.97142 0.37527,-0.68825 0.71852,-1.36424 1.03003,-2.02824 z"/></g></svg>