<svg xmlns="http://www.w3.org/2000/svg" xmlns:svg="http://www.w3.org/2000/svg" id="svg8" width="24" height="24" version="1.1"><path style="fill:gray;stroke-width:.8;marker:none" id="path4" d="m 14.7275,17 -5.455,0.0012 c 0.38,0.83 0.80375,1.675 1.2725,2.535 0.47,0.85125 0.955,1.6725 1.455,2.46375 0.49,-0.79125 0.97,-1.6125 1.44,-2.46375 0.46875,-0.86125 0.89875,-1.70625 1.2875,-2.53625 z" color="#000" overflow="visible"/><path id="path1217" d="M 12 2.4296875 L 6.2597656 5.5605469 A 0.5 0.5 0 0 0 6.0957031 5.7109375 L 6 5.6582031 L 6 11.796875 L 12 15.070312 L 18 11.796875 L 18 6.0351562 A 0.5 0.5 0 0 0 18 5.9648438 L 18 5.6582031 L 17.90625 5.7089844 A 0.5 0.5 0 0 0 17.740234 5.5605469 L 12 2.4296875 z M 12 3.5703125 L 16.914062 6.25 L 12 8.9296875 L 7.0859375 6.25 L 12 3.5703125 z" style="color:#000;fill:gray;stroke-linecap:round;-inkscape-stroke:none;fill-opacity:1"/></svg>