<svg xmlns="http://www.w3.org/2000/svg" xmlns:svg="http://www.w3.org/2000/svg" id="svg7384" width="24" height="24" version="1.1"><metadata id="metadata20854"/><defs id="defs7386"><linearGradient id="linearGradient5606"><stop id="stop5608" offset="0" style="stop-color:#000;stop-opacity:1"/></linearGradient><linearGradient id="linearGradient4526"><stop id="stop4528" offset="0" style="stop-color:#fff;stop-opacity:1"/></linearGradient><linearGradient id="linearGradient3600-4"><stop id="stop3602-7" offset="0" style="stop-color:#f4f4f4;stop-opacity:1"/><stop id="stop3604-6" offset="1" style="stop-color:#dbdbdb;stop-opacity:1"/></linearGradient></defs><path id="path874" d="M 5.4550781 4 C 4.4864972 4.0089807 3.7372591 4.0732694 3.1171875 4.4453125 C 2.7038064 4.6933412 2.3972496 5.10122 2.2285156 5.6074219 C 2.0597817 6.1136238 2 6.722223 2 7.5 L 2 16.5 C 2 17.277777 2.059782 17.886376 2.2285156 18.392578 C 2.3972496 18.89878 2.7038064 19.306659 3.1171875 19.554688 C 3.9439497 20.050746 5.0000015 20 6.5 20 L 17.5 20 C 18.999998 20 20.05605 20.05074 20.882812 19.554688 C 21.296194 19.306659 21.60275 18.89878 21.771484 18.392578 C 21.940218 17.886376 22 17.277777 22 16.5 L 22 7.5 C 22 6.722223 21.94022 6.1136238 21.771484 5.6074219 C 21.60275 5.10122 21.296194 4.6933412 20.882812 4.4453125 C 20.056051 3.9492552 18.999998 4 17.5 4 L 6.5 4 C 6.1250004 4 5.7779384 3.9970064 5.4550781 4 z M 7 5 L 17.5 5 C 18.999998 5 19.943951 5.050746 20.367188 5.3046875 C 20.578806 5.4316585 20.70975 5.5862809 20.822266 5.9238281 C 20.934781 6.2613754 21 6.7777785 21 7.5 L 21 16.5 C 21 17.222221 20.93478 17.738625 20.822266 18.076172 C 20.70975 18.413719 20.578807 18.568342 20.367188 18.695312 C 19.943952 18.949254 18.999999 19 17.5 19 L 7 19 L 7 5 z" style="color:#000;fill:gray;-inkscape-stroke:none"/></svg>