<svg xmlns="http://www.w3.org/2000/svg" xmlns:svg="http://www.w3.org/2000/svg" id="svg4" width="24" height="24" version="1.1"><metadata id="metadata10"/><path style="stroke-width:1;marker:none" id="path2" fill="gray" d="m 16.96,3.2475 c 1.62625,0.3675 4.40625,0.915 3.6675,3.39125 -0.93875,3.145 -3.58625,6.00875 -5.77625,8.2 l -0.0062,0.0063 -0.0063,0.0062 c -2.19125,2.19 -5.05375,4.8375 -8.2,5.775 -2.475,0.74 -3.0225,-2.04 -3.39125,-3.6675 l 5.25375,-2.31 2.05875,1.11 c 0.7625,-0.485 2.07625,-1.705 2.89,-2.5175 0.8125,-0.81375 2.0325,-2.12875 2.51875,-2.89125 l -1.31875,-1.85 2.31,-5.25375 z" color="#000" overflow="visible"/><path id="path4" d="m 11.191895,11.191895 c -0.243953,-1.03768 -0.521603,-2.0912388 -0.830079,-3.1616216 -0.306591,-1.0426667 -0.6440529,-2.075943 -1.0131834,-3.0981445 l -1.7651367,1.7675781 -4.6997072,-4.699707 -0.8837887,0.883789 4.6997069,4.699707 -1.7675783,1.7675782 c 0.9784591,0.3650439 2.0093675,0.7065188 3.0859376,1.0229488 1.069499,0.30936 2.1273098,0.582758 3.1738288,0.817872 z" style="font-weight:400;line-height:normal;font-variant-ligatures:none;font-variant-position:normal;font-variant-caps:normal;font-variant-numeric:normal;font-variant-alternates:normal;font-feature-settings:normal;text-indent:0;text-align:start;text-decoration:none;text-decoration-line:none;text-decoration-style:solid;text-decoration-color:#000;text-transform:none;shape-padding:0;isolation:auto;mix-blend-mode:normal;fill:gray;stroke-width:.999999;marker:none"/></svg>