<svg xmlns="http://www.w3.org/2000/svg" xmlns:svg="http://www.w3.org/2000/svg" id="svg4" width="24" height="24" version="1.1"><path id="path917" d="m 12,4.0000001 a 15,15 0 0 0 -10.078125,3.921875 l 0.703125,0.703125 a 14,14 0 0 1 9.375,-3.625 14,14 0 0 1 9.384766,3.6152344 l 0.710937,-0.7109375 a 15,15 0 0 0 -10.095703,-3.9042969 z m 0,3 a 12,12 0 0 0 -7.9453125,3.0546879 l 0.6972656,0.697265 a 11,11 0 0 1 7.2480469,-2.7519529 11,11 0 0 1 7.259766,2.7402349 l 0.708984,-0.708985 a 12,12 0 0 0 -7.96875,-3.0312499 z m 0,2.9999999 a 9,9 0 0 0 -5.8398438,2.160156 l 0.7324219,0.732422 a 8,8 0 0 1 5.1074219,-1.892578 8,8 0 0 1 5.132812,1.867188 l 0.708985,-0.708985 a 9,9 0 0 0 -5.841797,-2.158203 z m 0,3 a 6,6 0 0 0 -3.7109375,1.289062 l 0.7226563,0.722657 a 5,5 0 0 1 2.9882812,-1.011719 5,5 0 0 1 2.998047,1.001953 l 0.710937,-0.710937 a 6,6 0 0 0 -3.708984,-1.291016 z" style="fill:gray;fill-rule:evenodd;stroke-width:.5;stroke-linecap:round;stroke-linejoin:round;fill-opacity:1"/><circle style="fill:gray;fill-rule:evenodd;stroke-width:.5;stroke-linecap:round;stroke-linejoin:round;fill-opacity:1" id="path1260" cx="12" cy="19" r="2"/></svg>