<svg xmlns="http://www.w3.org/2000/svg" xmlns:svg="http://www.w3.org/2000/svg" id="svg10" width="24" height="24" version="1.1"><path id="rect864" d="m 7.5,2 c -1.939,0 -3.5,1.561 -3.5,3.5 v 7 c 0,1.939 1.561,3.5 3.5,3.5 1.939,0 3.5,-1.561 3.5,-3.5 v -7 c 0,-1.939 -1.561,-3.5 -3.5,-3.5 z m 0,1 a 2.5,2.5 0 0 1 2.5,2.5 v 7 a 2.5,2.5 0 0 1 -2.5,2.5 2.5,2.5 0 0 1 -2.5,-2.5 v -7 a 2.5,2.5 0 0 1 2.5,-2.5 z m -5.5,8 v 1.5 a 5.5,5.5 0 0 0 5,5.466797 v 3.044922 c -1.744098,0.07151 -3,0.488281 -3,0.488281 v 0.5 h 7 v -0.5 c 0,0 -1.255902,-0.416771 -3,-0.488281 v -3.044922 a 5.5,5.5 0 0 0 5,-5.466797 v -1.5 h -1 v 1.5 a 4.5,4.5 0 0 1 -4,4.464844 v -0.464844 h -1 v 0.464844 a 4.5,4.5 0 0 1 -4,-4.464844 v -1.5 z" style="fill:gray;fill-opacity:1;fill-rule:evenodd;stroke-width:.5;stroke-linecap:round;stroke-linejoin:round"/><path id="path966" d="M 18.646484 5.6582031 A 9 9 0 0 0 16 12 A 9 9 0 0 0 18.783203 18.474609 L 19.492188 17.767578 A 8 8 0 0 1 17 12 A 8 8 0 0 1 19.337891 6.3496094 L 18.646484 5.6582031 z" style="fill:gray;fill-rule:evenodd;stroke-width:.5;stroke-linecap:round;stroke-linejoin:round"/><path id="path2102" d="M 21.011719 8.0117188 A 5 5 0 0 0 19 12 A 5 5 0 0 0 21.011719 15.988281 L 21.720703 15.279297 A 4 4 0 0 1 20 12 A 4 4 0 0 1 21.720703 8.7207031 L 21.011719 8.0117188 z" style="fill:gray;fill-opacity:1;fill-rule:evenodd;stroke-width:.5;stroke-linecap:round;stroke-linejoin:round"/></svg>