<svg xmlns="http://www.w3.org/2000/svg" xmlns:svg="http://www.w3.org/2000/svg" id="svg4" width="24" height="24" version="1.1"><path id="rect864" d="M 11.5 2 C 9.561 2 8 3.561 8 5.5 L 8 12.5 C 8 12.912922 8.0749193 13.306616 8.2050781 13.673828 L 15 6.8789062 L 15 5.5 C 15 3.561 13.439 2 11.5 2 z M 18.646484 4.6464844 L 15 8.2929688 L 8.6972656 14.595703 L 7.9902344 15.302734 L 7.28125 16.011719 L 3.6464844 19.646484 L 4.3535156 20.353516 L 7.9902344 16.716797 C 8.8185722 17.407104 9.8530746 17.8621 11 17.966797 L 11 21.011719 C 9.255902 21.083229 8 21.5 8 21.5 L 8 22 L 15 22 L 15 21.5 C 15 21.5 13.744098 21.083229 12 21.011719 L 12 17.966797 C 14.828073 17.708636 16.994615 15.339827 17 12.5 L 17 11 L 16 11 L 16 12.5 C 15.9963 14.78901 14.27484 16.710512 12 16.964844 L 12 16.5 L 11 16.5 L 11 16.964844 C 10.128438 16.867401 9.3438751 16.520366 8.7011719 16.005859 L 9.4082031 15.298828 C 9.991207 15.73579 10.712055 16 11.5 16 C 13.439 16 15 14.439 15 12.5 L 15 9.7070312 L 19.353516 5.3535156 L 18.646484 4.6464844 z M 6 11 L 6 12.5 C 6.0018387 13.468755 6.259782 14.379788 6.7050781 15.173828 L 7.4433594 14.435547 C 7.1609946 13.847112 7.0011202 13.191262 7 12.5 L 7 11 L 6 11 z" style="fill:gray;fill-opacity:1;fill-rule:evenodd;stroke-width:.5;stroke-linecap:round;stroke-linejoin:round"/></svg>