<svg xmlns="http://www.w3.org/2000/svg" xmlns:svg="http://www.w3.org/2000/svg" id="svg839" width="24" height="24" version="1.1"><path style="color:#000;fill:gray;-inkscape-stroke:none" id="path857" d="m 11.992188,3.2929688 -4.7070318,4.7070312 h -3.0722656 l -0.1464844,0.2382813 c -1.4056206,2.2899907 -1.4156806,5.2106197 -0.00195,7.5234377 l 0.1464844,0.238281 h 3.0742187 l 4.7070317,4.707031 z"/><path style="color:#000;fill:gray;stroke-linecap:square;-inkscape-stroke:none" id="path1025" d="m 14.492188,7.7929687 -0.707032,0.7070313 0.353516,0.3535156 c 1.823221,1.8232214 1.823221,4.4697474 0,6.2929684 l -0.353516,0.353516 0.707032,0.707031 0.353515,-0.353515 c 2.176775,-2.176775 2.176775,-5.530257 0,-7.7070316 z"/><path style="color:#000;fill:gray;-inkscape-stroke:none" id="path1481" d="m 17.667969,5.3222656 -0.353516,0.3554688 c 1.96317,1.9631695 2.927734,4.1463418 2.927734,6.3222656 0,2.175924 -0.964564,4.359096 -2.927734,6.322266 l 0.353516,0.355468 c 2.036826,-2.036826 3.074218,-4.353662 3.074218,-6.677734 0,-2.3240717 -1.037392,-4.6409079 -3.074218,-6.6777344 z"/></svg>