<svg xmlns="http://www.w3.org/2000/svg" xmlns:svg="http://www.w3.org/2000/svg" id="svg7384" width="24" height="24" version="1.1"><metadata id="metadata20854"/><defs id="defs7386"><linearGradient id="linearGradient5606"><stop id="stop5608" offset="0" style="stop-color:#000;stop-opacity:1"/></linearGradient><linearGradient id="linearGradient4526"><stop id="stop4528" offset="0" style="stop-color:#fff;stop-opacity:1"/></linearGradient><linearGradient id="linearGradient3600-4"><stop id="stop3602-7" offset="0" style="stop-color:#f4f4f4;stop-opacity:1"/><stop id="stop3604-6" offset="1" style="stop-color:#dbdbdb;stop-opacity:1"/></linearGradient></defs><path style="color:#000;fill:gray;-inkscape-stroke:none;fill-opacity:1" id="path857" d="m 11.992188,3.2929688 -4.7070318,4.7070312 h -3.0722656 l -0.1464844,0.2382813 c -1.4056249,2.2899907 -1.4156795,5.2106197 -0.00195,7.5234377 l 0.1464844,0.238281 h 3.0742187 l 4.7070318,4.707031 z m -1,2.4140624 v 12.5859378 l -3.2929693,-3.292969 h -2.8476562 c -1.0444344,-1.879406 -1.0373261,-4.140352 0,-6 h 2.8476562 z"/><path id="path1025" d="M 14.908203 8.2128906 L 14.201172 8.9199219 C 15.938965 10.718753 15.938944 13.281282 14.201172 15.080078 L 14.908203 15.787109 C 16.999056 13.630982 16.999081 10.369043 14.908203 8.2128906 z" style="color:#000;fill:gray;stroke-linecap:square;-inkscape-stroke:none;fill-opacity:1"/><path id="path1481" d="M 17.908203 5.2128906 L 17.201172 5.9199219 C 19.083414 7.8287522 19.992188 9.9219091 19.992188 12 C 19.992188 14.078091 19.083414 16.171248 17.201172 18.080078 L 17.908203 18.787109 C 19.939395 16.728816 20.992188 14.373033 20.992188 12 C 20.992188 9.6269669 19.939395 7.2711835 17.908203 5.2128906 z" style="color:#000;fill:gray;-inkscape-stroke:none;fill-opacity:1"/><path style="color:#000;fill:gray;-inkscape-stroke:none;fill-opacity:1" id="path964" d="m 17.646484,2.6464844 -5,5 0.707032,0.7070312 5,-5 z"/><path style="color:#000;fill:gray;-inkscape-stroke:none;fill-opacity:1" id="path966" d="m 13.353516,15.646484 -0.707032,0.707032 5,5 0.707032,-0.707032 z"/></svg>