<svg xmlns="http://www.w3.org/2000/svg" xmlns:svg="http://www.w3.org/2000/svg" id="svg7384" width="24" height="24" version="1.1"><metadata id="metadata20854"/><defs id="defs7386"><linearGradient id="linearGradient5606"><stop id="stop5608" offset="0" style="stop-color:#000;stop-opacity:1"/></linearGradient><linearGradient id="linearGradient4526"><stop id="stop4528" offset="0" style="stop-color:#fff;stop-opacity:1"/></linearGradient><linearGradient id="linearGradient3600-4"><stop id="stop3602-7" offset="0" style="stop-color:#f4f4f4;stop-opacity:1"/><stop id="stop3604-6" offset="1" style="stop-color:#dbdbdb;stop-opacity:1"/></linearGradient></defs><path style="color:#000;fill:gray;fill-opacity:1;-inkscape-stroke:none" id="path857" d="m 11.992009,3.2929686 -4.7070308,4.7070312 h -3.0722656 l -0.1464844,0.2382813 c -1.4056249,2.2899909 -1.4156795,5.2106199 -0.00195,7.5234379 l 0.1464844,0.238281 h 3.0742187 l 4.7070307,4.707031 z"/><path id="path1025" d="m 14.908024,8.2128905 -0.707031,0.7070313 c 1.737793,1.7988312 1.737772,4.3613602 0,6.1601562 l 0.707031,0.707031 c 2.090853,-2.156127 2.090878,-5.418066 0,-7.5742185 z" style="color:#000;fill:gray;fill-opacity:1;stroke-linecap:square;-inkscape-stroke:none"/><path id="path1481" d="m 17.908024,5.2128904 -0.707031,0.7070313 c 1.882242,1.9088303 2.791016,4.0019872 2.791016,6.0800783 0,2.078091 -0.908774,4.171248 -2.791016,6.080078 l 0.707031,0.707031 c 2.031192,-2.058293 3.083985,-4.414076 3.083985,-6.787109 0,-2.3730333 -1.052793,-4.7288167 -3.083985,-6.7871096 z" style="color:#000;fill:gray;fill-opacity:1;-inkscape-stroke:none"/><path style="color:#000;fill:gray;fill-opacity:1;-inkscape-stroke:none" id="path964" d="m 17.646305,2.6464842 -5,5 0.707032,0.7070313 5,-5.0000001 z"/><path style="color:#000;fill:gray;fill-opacity:1;-inkscape-stroke:none" id="path966" d="m 13.353337,15.646484 -0.707032,0.707032 5,5 0.707032,-0.707032 z"/></svg>