<svg xmlns="http://www.w3.org/2000/svg" xmlns:svg="http://www.w3.org/2000/svg" id="svg4" width="24" height="24" version="1.1"><metadata id="metadata10"/><path id="path1408" d="m 17.624999,7.8200148 v 2.3437502 c 0,0.695 -0.83375,1.249999 -1.875,1.249999 -1.04125,0 -1.875,-0.554999 -1.875,-1.249999 v -1.2887503 h 2.14875 c 0.97,-0.00625 1.60125,-1.0549999 1.60125,-1.0549999 z" style="fill:gray;fill-opacity:1;stroke-width:1"/><path id="path1406" d="m 6.3749997,7.8200148 c 0,0 0.5925,1.0487499 1.5624999,1.0549999 h 2.1874994 v 1.2887503 c 0,0.695 -0.8337495,1.249999 -1.8749995,1.249999 -1.0412499,0 -1.8749998,-0.554999 -1.8749998,-1.249999 z" style="fill:gray;fill-opacity:1;stroke-width:1"/><path id="path993" d="m 11.953614,2.6250152 a 9.3749993,9.3749993 0 0 0 -9.328614,9.3749988 9.3749993,9.3749993 0 0 0 9.375,9.374999 9.3749993,9.3749993 0 0 0 9.375,-9.374999 9.3749993,9.3749993 0 0 0 -9.375,-9.3749988 9.3749993,9.3749993 0 0 0 -0.04639,0 z m 0.04639,1.2499999 a 8.1249994,8.1249994 0 0 1 8.124999,8.1249989 8.1249994,8.1249994 0 0 1 -8.124999,8.124999 8.1249994,8.1249994 0 0 1 -8.1250006,-8.124999 8.1249994,8.1249994 0 0 1 8.1250006,-8.1249989 z" style="fill:gray;fill-opacity:1;fill-rule:evenodd;stroke:none;stroke-width:.75;stroke-linecap:square;stroke-linejoin:round;stroke-opacity:1"/><rect style="opacity:1;fill:gray;fill-rule:evenodd;stroke-width:1;stroke-linecap:round" id="rect1446" width="6.25" height="1.25" x="8.875" y="13.875" rx=".5" ry=".5"/></svg>