<svg xmlns="http://www.w3.org/2000/svg" xmlns:svg="http://www.w3.org/2000/svg" id="svg4" width="24" height="24" version="1.1"><metadata id="metadata10"/><path id="path1462" d="m 16.624999,10.476265 c 1.51,0.56125 2.5575,1.17125 2.77375,1.95375 a 1.2412499,1.2412499 0 0 1 -1.1725,1.5625 c -0.64875,0.0088 -0.96,-0.27 -1.17125,-1.09375 -0.20875,-0.825 0.10375,-1.61625 -0.43,-2.4225 z" style="fill:gray;fill-opacity:1;stroke-width:1"/><path id="path987" d="m 6.3749997,16.342587 v -0.78125 c 0,-0.1078 0.043951,-0.307096 0.112305,-0.53711 2.2640443,-1.507264 8.4523183,-1.531236 10.8959953,-0.07569 0.12784,0.337685 0.19876,0.614741 0.207519,0.72998 l 0.03417,0.664062 c -2.29255,-1.629312 -9.007008,-1.629312 -11.249999,0 z" style="display:inline;fill:gray;fill-opacity:1;stroke:none;stroke-width:1"/><path style="display:inline;fill:gray;fill-opacity:1;stroke:none;stroke-width:1" id="path985" d="m 15.125026,7.6250148 c 0.697913,0 1.25,0.5911497 1.25,1.2890621 v 1.2109371 c 0,0.697913 -0.552087,1.25 -1.25,1.25 -0.697914,0 -1.250001,-0.552087 -1.250001,-1.25 v -1.2109371 c 0,-0.6979124 0.552087,-1.2890621 1.250001,-1.2890621 z"/><path style="display:inline;fill:gray;fill-opacity:1;stroke:none;stroke-width:1" id="path983" d="m 8.835937,7.6054835 c 0.6979124,0 1.289063,0.5911497 1.289063,1.2890621 v 1.2109374 c 0,0.697913 -0.5911506,1.25 -1.289063,1.25 -0.6979124,0 -1.2499999,-0.552087 -1.2499999,-1.25 v -1.2109374 c 0,-0.6979124 0.5520875,-1.2890621 1.2499999,-1.2890621 z"/><path id="path993" d="m 11.953614,2.625015 a 9.3749993,9.3749993 0 0 0 -9.328614,9.375 9.3749993,9.3749993 0 0 0 9.375,9.374999 9.3749993,9.3749993 0 0 0 9.375,-9.374999 9.3749993,9.3749993 0 0 0 -9.375,-9.375 9.3749993,9.3749993 0 0 0 -0.04639,0 z m 0.04639,1.2499999 a 8.1249994,8.1249994 0 0 1 8.124999,8.1250001 8.1249994,8.1249994 0 0 1 -8.124999,8.124999 8.1249994,8.1249994 0 0 1 -8.1250004,-8.124999 8.1249994,8.1249994 0 0 1 8.1250004,-8.1250001 z" style="fill:gray;fill-opacity:1;fill-rule:evenodd;stroke:none;stroke-width:.75;stroke-linecap:square;stroke-linejoin:round;stroke-opacity:1"/></svg>