<svg xmlns="http://www.w3.org/2000/svg" xmlns:svg="http://www.w3.org/2000/svg" id="svg4" width="24" height="24" version="1.1"><metadata id="metadata10"/><path id="path987" d="M 11.953125 2.625 A 9.375 9.375 0 0 0 5.8164062 4.9570312 C 4.6707972 4.6611727 3.8480628 3.8088333 3 3 C 2.7523199 4.3312912 2.8586522 5.6730607 4.0488281 7.0449219 A 9.375 9.375 0 0 0 2.625 12 A 9.375 9.375 0 0 0 12 21.375 A 9.375 9.375 0 0 0 21.375 12 A 9.375 9.375 0 0 0 19.949219 7.046875 C 21.141092 5.6742899 21.247804 4.3319637 21 3 C 20.151486 3.8092633 19.328202 4.6616086 18.181641 4.9570312 A 9.375 9.375 0 0 0 12 2.625 A 9.375 9.375 0 0 0 11.953125 2.625 z M 12 3.875 A 8.125 8.125 0 0 1 20.125 12 A 8.125 8.125 0 0 1 12 20.125 A 8.125 8.125 0 0 1 3.875 12 A 8.125 8.125 0 0 1 12 3.875 z M 8.8359375 7.6054688 C 8.138025 7.6054688 7.5859375 8.1966188 7.5859375 8.8945312 L 7.5859375 10.105469 C 7.5859375 10.803381 8.138025 11.355469 8.8359375 11.355469 C 9.53385 11.355469 10.125 10.803381 10.125 10.105469 L 10.125 8.8945312 C 10.125 8.1966188 9.53385 7.6054688 8.8359375 7.6054688 z M 15.125 7.625 C 14.427088 7.625 13.875 8.21615 13.875 8.9140625 L 13.875 10.125 C 13.875 10.822913 14.427088 11.375 15.125 11.375 C 15.822912 11.375 16.375 10.822913 16.375 10.125 L 16.375 8.9140625 C 16.375 8.21615 15.822912 7.625 15.125 7.625 z M 6.375 12.625 L 6.375 13.40625 C 6.375 14.071875 7.4964503 17.585875 11.982422 17.546875 C 16.468415 17.507812 17.549024 13.826201 17.589844 13.289062 L 17.625 12.625 C 15.33245 14.254312 8.6179906 14.254312 6.375 12.625 z" style="display:inline;fill:gray;fill-opacity:1;stroke:none;stroke-width:1"/></svg>