<svg xmlns="http://www.w3.org/2000/svg" xmlns:svg="http://www.w3.org/2000/svg" id="svg4" width="24" height="24" version="1.1"><metadata id="metadata10"/><path id="path993" d="m 11.953614,2.6250143 a 9.375,9.375 0 0 0 -9.328614,9.3749997 9.375,9.375 0 0 0 9.375001,9.375 9.375,9.375 0 0 0 9.374999,-9.375 9.375,9.375 0 0 0 -9.374999,-9.3749997 9.375,9.375 0 0 0 -0.04639,0 z m 0.04639,1.25 a 8.125,8.125 0 0 1 8.124999,8.1249997 8.125,8.125 0 0 1 -8.124999,8.125 8.125,8.125 0 0 1 -8.1250002,-8.125 8.125,8.125 0 0 1 8.1250002,-8.1249997 z" style="fill:gray;fill-opacity:1;fill-rule:evenodd;stroke:none;stroke-width:.75;stroke-linecap:square;stroke-linejoin:round;stroke-opacity:1"/><path id="path1410" d="m 15.08625,9.1100141 c 0.9175,0 1.83625,0.5575 1.91375,1.6399999 0.15625,2.16625 -1.875,-0.4225 -3.75,0 0,-1.0824998 0.9175,-1.6399999 1.83625,-1.6399999 z" style="fill:gray;fill-opacity:1;stroke-width:1"/><path id="path1408" d="m 8.9222309,9.1112641 c 0.91875,0 1.8362501,0.5575 1.8362501,1.6387499 -1.8750001,-0.4225 -3.9062505,2.16625 -3.7500005,0 0.07875,-1.0824999 0.9962504,-1.6399999 1.9137504,-1.6399999 z" style="fill:gray;fill-opacity:1;stroke-width:1"/><rect style="fill:gray;fill-rule:evenodd;stroke-width:1" id="rect1439" width="2.5" height="1.25" x="10.75" y="15.125" rx=".5" ry=".5"/><circle style="fill:gray;fill-rule:evenodd;stroke-width:1" id="path1441" cx="7" cy="13.25" r=".938"/><circle style="fill:gray;fill-rule:evenodd;stroke-width:1" id="path1443" cx="17" cy="13.25" r=".938"/></svg>