<svg xmlns="http://www.w3.org/2000/svg" xmlns:svg="http://www.w3.org/2000/svg" id="svg4" width="24" height="24" version="1.1"><metadata id="metadata10"/><g id="g1484" transform="matrix(1.25,0,0,1.25,19.702377,0.27285403)" style="stroke-width:.8"><path style="display:inline;fill:gray;fill-opacity:1;stroke:none;stroke-width:.8" id="path987" d="m -10.661902,9.8817282 c 1.7943924,1.3034498 7.1659603,1.3034498 9.0000003,0 l -0.02799,0.5312498 c -0.03266,0.42971 -0.897186,3.375 -4.4859809,3.40625 -3.588777,0.0312 -4.4859824,-2.78 -4.4859824,-3.3125 z"/><path id="path993" d="m -6.1990106,1.8817285 a 7.5,7.5 0 0 0 -7.4628914,7.4999997 7.5,7.5 0 0 0 7.5000004,7.4999998 7.5,7.5 0 0 0 7.4999999,-7.4999998 7.5,7.5 0 0 0 -7.4999999,-7.4999997 7.5,7.5 0 0 0 -0.037109,0 z m 0.03711,1 a 6.5,6.5 0 0 1 6.49999994,6.4999997 6.5,6.5 0 0 1 -6.49999994,6.4999998 6.5,6.5 0 0 1 -6.5000004,-6.4999998 6.5,6.5 0 0 1 6.5000004,-6.4999997 z" style="fill:gray;fill-opacity:1;fill-rule:evenodd;stroke:none;stroke-width:.6;stroke-linecap:square;stroke-linejoin:round;stroke-opacity:1"/><path id="path1410" d="m -3.1929017,6.0697282 c 0.734,0 1.469,0.446 1.531,1.312 0.125,1.733 -1.5,-0.338 -3,0 0,-0.866 0.734,-1.312 1.469,-1.312 z" style="fill:gray;fill-opacity:1;stroke-width:.8"/><path id="path1408" d="m -9.1309017,6.0707282 c 0.735,0 1.469,0.446 1.469,1.311 -1.5,-0.338 -3.1250003,1.733 -3.0000003,0 0.063,-0.866 0.7970003,-1.312 1.5310003,-1.312 z" style="fill:gray;fill-opacity:1;stroke-width:.8"/></g></svg>