<svg xmlns="http://www.w3.org/2000/svg" xmlns:svg="http://www.w3.org/2000/svg" id="svg4" width="24" height="24" version="1.1"><metadata id="metadata10"/><path style="display:inline;fill:gray;fill-opacity:1;stroke:none;stroke-width:1" id="path985" d="m 15.125025,7.6250152 c 0.697912,0 1.25,0.59115 1.25,1.2890625 v 1.2109373 c 0,0.697913 -0.552088,1.25 -1.25,1.25 -0.697912,0 -1.25,-0.552087 -1.25,-1.25 v -1.2109373 c 0,-0.6979125 0.552088,-1.2890625 1.25,-1.2890625 z"/><path style="display:inline;fill:gray;fill-opacity:1;stroke:none;stroke-width:1" id="path983" d="m 8.8359375,7.605484 c 0.6979125,0 1.2890625,0.59115 1.2890625,1.2890625 v 1.2109375 c 0,0.697912 -0.59115,1.25 -1.2890625,1.25 -0.6979125,0 -1.25,-0.552088 -1.25,-1.25 v -1.2109375 c 0,-0.6979125 0.5520875,-1.2890625 1.25,-1.2890625 z"/><path id="path993" d="m 11.953613,2.6250152 a 9.375,9.375 0 0 0 -9.328613,9.3749998 9.375,9.375 0 0 0 9.375,9.374998 9.375,9.375 0 0 0 9.375,-9.374998 9.375,9.375 0 0 0 -9.375,-9.3749998 9.375,9.375 0 0 0 -0.04639,0 z m 0.04639,1.25 a 8.125,8.125 0 0 1 8.125001,8.1249998 8.125,8.125 0 0 1 -8.125001,8.124998 8.125,8.125 0 0 1 -8.1249997,-8.124998 8.125,8.125 0 0 1 8.1249997,-8.1249998 z" style="fill:gray;fill-opacity:1;fill-rule:evenodd;stroke:none;stroke-width:.75;stroke-linecap:square;stroke-linejoin:round;stroke-opacity:1"/><rect style="fill:gray;fill-rule:evenodd;stroke-width:1;stroke-linecap:square" id="rect1440" width="8.75" height="1.25" x="7.625" y="15.125" rx=".5" ry=".5"/></svg>