<svg xmlns="http://www.w3.org/2000/svg" xmlns:svg="http://www.w3.org/2000/svg" id="svg4" width="24" height="24" version="1.1"><metadata id="metadata10"/><path style="display:inline;fill:gray;fill-opacity:1;stroke:none;stroke-width:1" id="path985" d="m 15.125025,7.6250148 c 0.697913,0 1.25,0.59115 1.25,1.2890624 v 1.2109378 c 0,0.697912 -0.552087,1.25 -1.25,1.25 -0.697912,0 -1.25,-0.552088 -1.25,-1.25 v -1.2109378 c 0,-0.6979124 0.552088,-1.2890624 1.25,-1.2890624 z"/><path style="display:inline;fill:gray;fill-opacity:1;stroke:none;stroke-width:1" id="path983" d="m 8.835937,7.6054836 c 0.6979124,0 1.289062,0.59115 1.289062,1.2890624 v 1.210937 c 0,0.697913 -0.5911496,1.25 -1.289062,1.25 -0.6979124,0 -1.2499999,-0.552087 -1.2499999,-1.25 v -1.210937 c 0,-0.6979124 0.5520875,-1.2890624 1.2499999,-1.2890624 z"/><path id="path993" d="m 11.953614,2.6250151 a 9.3749993,9.3749993 0 0 0 -9.328614,9.3749999 9.3749993,9.3749993 0 0 0 9.375,9.374999 9.3749993,9.3749993 0 0 0 9.375,-9.374999 9.3749993,9.3749993 0 0 0 -9.375,-9.3749999 9.3749993,9.3749993 0 0 0 -0.04639,0 z m 0.04639,1.2499999 a 8.1249994,8.1249994 0 0 1 8.124999,8.125 8.1249994,8.1249994 0 0 1 -8.124999,8.124999 8.1249994,8.1249994 0 0 1 -8.1250004,-8.124999 8.1249994,8.1249994 0 0 1 8.1250004,-8.125 z" style="fill:gray;fill-opacity:1;fill-rule:evenodd;stroke:none;stroke-width:.75;stroke-linecap:square;stroke-linejoin:round;stroke-opacity:1"/><path id="path1440" d="m 7.2197261,12.664077 -0.4394529,1.171875 3.4374998,1.289063 -3.4374998,1.289062 0.4394529,1.171875 4.7802729,-1.791992 4.780274,1.791992 0.439452,-1.171875 -3.437499,-1.289062 3.437499,-1.289063 -0.439452,-1.171875 -4.780274,1.791993 z" style="color:#000;font-style:normal;font-variant:normal;font-weight:400;font-stretch:normal;font-size:medium;line-height:normal;font-family:sans-serif;font-variant-ligatures:normal;font-variant-position:normal;font-variant-caps:normal;font-variant-numeric:normal;font-variant-alternates:normal;font-variant-east-asian:normal;font-feature-settings:normal;font-variation-settings:normal;text-indent:0;text-align:start;text-decoration:none;text-decoration-line:none;text-decoration-style:solid;text-decoration-color:#000;letter-spacing:normal;word-spacing:normal;text-transform:none;writing-mode:lr-tb;direction:ltr;text-orientation:mixed;dominant-baseline:auto;baseline-shift:baseline;text-anchor:start;white-space:normal;shape-padding:0;shape-margin:0;inline-size:0;clip-rule:nonzero;display:inline;overflow:visible;visibility:visible;opacity:1;isolation:auto;mix-blend-mode:normal;color-interpolation:sRGB;color-interpolation-filters:linearRGB;solid-color:#000;solid-opacity:1;vector-effect:none;fill:gray;fill-opacity:1;fill-rule:nonzero;stroke:none;stroke-width:1;stroke-linecap:butt;stroke-linejoin:miter;stroke-miterlimit:4;stroke-dasharray:none;stroke-dashoffset:0;stroke-opacity:1;color-rendering:auto;image-rendering:auto;shape-rendering:auto;text-rendering:auto;enable-background:accumulate;stop-color:#000;stop-opacity:1"/></svg>