<svg xmlns="http://www.w3.org/2000/svg" xmlns:svg="http://www.w3.org/2000/svg" id="svg4" width="24" height="24" version="1.1"><metadata id="metadata10"/><path id="path987" d="m 6.3749997,13.875014 v 0.78125 c 0,0.1078 0.043951,0.307096 0.112305,0.53711 2.2640443,1.507263 8.4523183,1.531236 10.8959953,0.07569 0.12784,-0.337685 0.19876,-0.614741 0.207519,-0.72998 l 0.03417,-0.664062 c -2.29255,1.629312 -9.007008,1.629312 -11.249999,0 z" style="display:inline;fill:gray;fill-opacity:1;stroke:none;stroke-width:1"/><path style="display:inline;fill:gray;fill-opacity:1;stroke:none;stroke-width:1" id="path985" d="m 15.125025,7.6250149 c 0.697913,0 1.25,0.59115 1.25,1.2890624 v 1.2109377 c 0,0.697912 -0.552087,1.25 -1.25,1.25 -0.697913,0 -1.25,-0.552088 -1.25,-1.25 v -1.2109377 c 0,-0.6979124 0.552087,-1.2890624 1.25,-1.2890624 z"/><path style="display:inline;fill:gray;fill-opacity:1;stroke:none;stroke-width:1" id="path983" d="m 8.835937,7.6054837 c 0.6979124,0 1.289062,0.5911499 1.289062,1.2890624 v 1.2109369 c 0,0.697913 -0.5911496,1.25 -1.289062,1.25 -0.6979124,0 -1.2499999,-0.552087 -1.2499999,-1.25 v -1.2109369 c 0,-0.6979125 0.5520875,-1.2890624 1.2499999,-1.2890624 z"/><path id="path993" d="m 11.953614,2.6250152 a 9.3749993,9.3749993 0 0 0 -9.328614,9.3749988 9.3749993,9.3749993 0 0 0 9.375,9.374999 9.3749993,9.3749993 0 0 0 9.375,-9.374999 9.3749993,9.3749993 0 0 0 -9.375,-9.3749988 9.3749993,9.3749993 0 0 0 -0.04639,0 z m 0.04639,1.2499999 a 8.1249994,8.1249994 0 0 1 8.124999,8.1249989 8.1249994,8.1249994 0 0 1 -8.124999,8.124999 8.1249994,8.1249994 0 0 1 -8.1250004,-8.124999 8.1249994,8.1249994 0 0 1 8.1250004,-8.1249989 z" style="fill:gray;fill-opacity:1;fill-rule:evenodd;stroke:none;stroke-width:.75;stroke-linecap:square;stroke-linejoin:round;stroke-opacity:1"/></svg>