<svg xmlns="http://www.w3.org/2000/svg" xmlns:svg="http://www.w3.org/2000/svg" id="svg4" width="24" height="24" version="1.1"><metadata id="metadata10"/><path style="display:inline;fill:gray;fill-opacity:1;stroke:none;stroke-width:1" id="path987" d="m 6.375,12.625014 c 2.2429906,1.629312 8.95745,1.629312 11.25,0 l -0.03499,0.664062 c -0.04082,0.537138 -1.121482,4.21875 -5.607475,4.257813 -4.4859716,0.039 -5.6074783,-3.475 -5.6074783,-4.140625 z"/><path style="display:inline;fill:gray;fill-opacity:1;stroke:none;stroke-width:1" id="path985" d="m 15.125025,7.6250142 c 0.697912,0 1.25,0.59115 1.25,1.2890625 v 1.2109373 c 0,0.697913 -0.552088,1.25 -1.25,1.25 -0.697912,0 -1.25,-0.552087 -1.25,-1.25 v -1.2109373 c 0,-0.6979125 0.552088,-1.2890625 1.25,-1.2890625 z"/><path style="display:inline;fill:gray;fill-opacity:1;stroke:none;stroke-width:1" id="path983" d="m 8.8359375,7.605483 c 0.6979125,0 1.2890625,0.59115 1.2890625,1.2890625 v 1.2109375 c 0,0.697912 -0.59115,1.25 -1.2890625,1.25 -0.6979125,0 -1.25,-0.552088 -1.25,-1.25 v -1.2109375 c 0,-0.6979125 0.5520875,-1.2890625 1.25,-1.2890625 z"/><path id="path993" d="m 11.953613,2.6250142 a 9.375,9.375 0 0 0 -9.328613,9.3749998 9.375,9.375 0 0 0 9.375,9.375 9.375,9.375 0 0 0 9.375,-9.375 9.375,9.375 0 0 0 -9.375,-9.3749998 9.375,9.375 0 0 0 -0.04639,0 z m 0.04639,1.25 a 8.125,8.125 0 0 1 8.125,8.1249998 8.125,8.125 0 0 1 -8.125,8.125 8.125,8.125 0 0 1 -8.1249997,-8.125 8.125,8.125 0 0 1 8.1249997,-8.1249998 z" style="fill:gray;fill-opacity:1;fill-rule:evenodd;stroke:none;stroke-width:.75;stroke-linecap:square;stroke-linejoin:round;stroke-opacity:1"/></svg>