<svg xmlns="http://www.w3.org/2000/svg" xmlns:svg="http://www.w3.org/2000/svg" id="svg835" width="24" height="24" version="1.1"><metadata id="metadata841"/><path id="path1452" d="m 6.3753567,11.626264 c 0.9749999,4.1325 5.8662493,5.54 9.6312493,4.10875 0.0088,0.7475 -0.24375,1.37125 -1.4425,1.6075 -2.7075,0.532499 -6.4512494,-0.17875 -8.3499993,-3.2425 -0.8324999,-1.3425 -0.15875,-2.10625 0.16125,-2.475 z" style="fill:gray;fill-opacity:1;stroke-width:1"/><path style="display:inline;fill:gray;fill-opacity:1;stroke:none;stroke-width:1" id="path985" d="m 15.125025,7.6250148 c 0.697913,0 1.25,0.59115 1.25,1.2890625 v 1.2109377 c 0,0.697912 -0.552087,1.25 -1.25,1.25 -0.697913,0 -1.250001,-0.552088 -1.250001,-1.25 v -1.2109377 c 0,-0.6979125 0.552088,-1.2890625 1.250001,-1.2890625 z"/><path style="display:inline;fill:gray;fill-opacity:1;stroke:none;stroke-width:1" id="path983" d="m 8.835937,7.6054836 c 0.6979124,0 1.289062,0.5911499 1.289062,1.2890625 v 1.2109369 c 0,0.697913 -0.5911496,1.25 -1.289062,1.25 -0.6979124,0 -1.2499999,-0.552087 -1.2499999,-1.25 v -1.2109369 c 0,-0.6979126 0.5520875,-1.2890625 1.2499999,-1.2890625 z"/><path id="path993" d="m 11.953613,2.6250152 a 9.3749993,9.3749993 0 0 0 -9.328613,9.3749988 9.3749993,9.3749993 0 0 0 9.374999,9.374999 9.3749993,9.3749993 0 0 0 9.375001,-9.374999 9.3749993,9.3749993 0 0 0 -9.375001,-9.3749988 9.3749993,9.3749993 0 0 0 -0.04639,0 z m 0.04639,1.2499999 a 8.1249994,8.1249994 0 0 1 8.125,8.1249989 8.1249994,8.1249994 0 0 1 -8.125001,8.124999 8.1249994,8.1249994 0 0 1 -8.1249996,-8.124999 8.1249994,8.1249994 0 0 1 8.1250006,-8.1249989 z" style="fill:gray;fill-opacity:1;fill-rule:evenodd;stroke:none;stroke-width:.75;stroke-linecap:square;stroke-linejoin:round;stroke-opacity:1"/></svg>