<svg xmlns="http://www.w3.org/2000/svg" xmlns:svg="http://www.w3.org/2000/svg" id="svg835" width="24" height="24" version="1.1"><metadata id="metadata841"/><path id="path1442" d="m 17.624994,16.182397 c -0.86175,-0.4815 -1.8135,-1.035 -2.7855,-1.0575 -0.7335,0.0225 -1.393875,0.73575 -1.7145,0.784125 -0.60975,0.35325 -1.755,0.2205 -2.249999,0 -1.0316255,-0.491625 -1.0361255,-0.765 -1.7358754,-0.7875 -0.9596249,0.02137 -2.0609998,0.4545 -2.7641248,1.060875 v -0.5625 c 0.47475,-1.22175 2.6774998,-2.300624 4.5000002,-0.979875 0.393749,0.2475 0.480374,0.300375 1.141874,0.379125 0.18,0.06188 0.666,-0.03825 1.108125,-0.379125 1.77975,-1.297124 3.7035,-0.133875 4.5,0.97875 z" style="fill:gray;fill-opacity:1;stroke-width:.999999"/><path style="display:inline;fill:gray;fill-opacity:1;stroke:none;stroke-width:1" id="path985" d="m 15.125026,7.6250151 c 0.697913,0 1.25,0.59115 1.25,1.2890624 v 1.2109375 c 0,0.697912 -0.552087,1.25 -1.25,1.25 -0.697914,0 -1.250001,-0.552088 -1.250001,-1.25 v -1.2109375 c 0,-0.6979124 0.552087,-1.2890624 1.250001,-1.2890624 z"/><path style="display:inline;fill:gray;fill-opacity:1;stroke:none;stroke-width:1" id="path983" d="m 8.835937,7.6054839 c 0.6979124,0 1.289062,0.59115 1.289062,1.2890624 v 1.2109377 c 0,0.697912 -0.5911496,1.25 -1.289062,1.25 -0.6979124,0 -1.2499999,-0.552088 -1.2499999,-1.25 v -1.2109377 c 0,-0.6979124 0.5520875,-1.2890624 1.2499999,-1.2890624 z"/><path id="path993" d="m 11.953614,2.6250154 a 9.3749993,9.3749993 0 0 0 -9.328614,9.3749996 9.3749993,9.3749993 0 0 0 9.375,9.374998 9.3749993,9.3749993 0 0 0 9.375,-9.374998 9.3749993,9.3749993 0 0 0 -9.375,-9.3749996 9.3749993,9.3749993 0 0 0 -0.04639,0 z m 0.04639,1.2499999 a 8.1249994,8.1249994 0 0 1 8.124999,8.1249997 8.1249994,8.1249994 0 0 1 -8.124999,8.124998 8.1249994,8.1249994 0 0 1 -8.1250004,-8.124998 8.1249994,8.1249994 0 0 1 8.1250004,-8.1249997 z" style="fill:gray;fill-opacity:1;fill-rule:evenodd;stroke:none;stroke-width:.75;stroke-linecap:square;stroke-linejoin:round;stroke-opacity:1"/></svg>