<svg xmlns="http://www.w3.org/2000/svg" xmlns:svg="http://www.w3.org/2000/svg" id="svg4" width="24" height="24" version="1.1"><path id="rect867" d="m 6,2.0000003 v 5.0078125 c -1.0668688,0.02974 -1.979589,0.1711376 -2.7050781,0.6328125 -0.8363806,0.5322422 -1.2949219,1.5093764 -1.2949219,2.8593747 v 4.000001 c 0,1.349999 0.4585413,2.327133 1.2949219,2.859375 0.7254891,0.461675 1.6382093,0.603072 2.7050781,0.632812 v 4.007812 h 12 v -4.007812 c 1.066869,-0.02974 1.97959,-0.171137 2.705078,-0.632812 0.836381,-0.532242 1.294922,-1.509376 1.294922,-2.859375 v -4.000001 c 0,-1.3499983 -0.458541,-2.3271325 -1.294922,-2.8593748 -0.725488,-0.4616749 -1.638209,-0.6030727 -2.705078,-0.6328125 v -5.0078124 z m 1,1 h 10 v 4 h -9.9999999 z m -0.5,5 h 0.5 10 0.5 c 1.216665,0 2.131304,0.1416181 2.669922,0.484375 0.538618,0.3427569 0.830078,0.8656262 0.830078,2.0156247 v 4.000001 c 0,1.149999 -0.29146,1.672868 -0.830078,2.015625 -0.461756,0.293845 -1.202068,0.43892 -2.169922,0.474609 v -1.990234 h -1 v 5.999999 h -9.9999999 v -5.999999 h -1 v 1.990234 c -0.9678539,-0.03569 -1.7081659,-0.180764 -2.1699219,-0.474609 -0.538618,-0.342757 -0.8300781,-0.865626 -0.8300781,-2.015625 v -4.000001 c 0,-1.1499985 0.2914601,-1.6728678 0.8300781,-2.0156247 0.538618,-0.3427569 1.4532564,-0.484375 2.6699218,-0.484375 z m 11.5,1.9999997 c -0.552285,0 -1,0.447715 -1,1 0,0.552285 0.447715,1 1,1 0.552285,0 1,-0.447715 1,-1 0,-0.552285 -0.447715,-1 -1,-1 z" style="fill:gray;fill-opacity:1;fill-rule:evenodd;stroke-width:.5;stroke-linecap:round;stroke-linejoin:round"/><path id="rect1111" d="m 11,13 v 3 h -1.5 l 2.5,4 2.5,-4 h -1.5 v -3 z" style="fill:gray;fill-opacity:1;fill-rule:evenodd"/></svg>