<svg xmlns="http://www.w3.org/2000/svg" xmlns:svg="http://www.w3.org/2000/svg" id="svg6" width="24" height="24" version="1.1"><path id="path1329" d="M 17.5 14 A 0.50005 0.50005 0 0 0 17.066406 14.251953 L 13.066406 21.251953 A 0.50005 0.50005 0 0 0 13.5 22 L 21.5 22 A 0.50005 0.50005 0 0 0 21.933594 21.251953 L 17.933594 14.251953 A 0.50005 0.50005 0 0 0 17.5 14 z M 17 16 L 18 16 L 18 18 L 17.800781 19 L 17.199219 19 L 17 18 L 17 16 z M 17.5 20 A 0.5 0.5 0 0 1 18 20.5 A 0.5 0.5 0 0 1 17.5 21 A 0.5 0.5 0 0 1 17 20.5 A 0.5 0.5 0 0 1 17.5 20 z" style="color:#000;fill:gray;stroke-width:1px;stroke-linejoin:round;-inkscape-stroke:none;fill-opacity:1"/><path id="rect867" d="m 6,1.9999998 v 5.0078125 c -1.066869,0.02974 -1.979589,0.1711376 -2.705078,0.6328125 -0.836381,0.5322423 -1.294922,1.5093764 -1.294922,2.8593752 v 4 c 0,1.349999 0.458541,2.327133 1.294922,2.859375 0.725489,0.461675 1.638209,0.603072 2.705078,0.632813 v 4.007812 h 6 v -1 h -5 v -6 h -1 v 1.990234 c -0.967854,-0.03569 -1.708166,-0.180764 -2.169922,-0.474609 -0.538618,-0.342757 -0.830078,-0.865626 -0.830078,-2.015625 v -4 c 0,-1.1499989 0.29146,-1.6728682 0.830078,-2.0156251 0.538618,-0.3427569 1.4532565,-0.484375 2.669922,-0.484375 h 0.5 10 0.5 c 1.216665,0 2.131304,0.1416181 2.669922,0.484375 0.538618,0.3427569 0.830078,0.8656262 0.830078,2.0156251 v 1.5 h 1 v -1.5 c 0,-1.3499987 -0.458541,-2.3271329 -1.294922,-2.8593751 -0.725488,-0.4616749 -1.638209,-0.6030727 -2.705078,-0.6328125 v -5.0078125 z m 1,1 h 10 v 4 h -10 z m 11,7 a 1,1 0 0 0 -1,1.0000002 1,1 0 0 0 1,1 1,1 0 0 0 1,-1 1,1 0 0 0 -1,-1.0000002 z m -10,7.0000002 v 1 h 4 v -1 z m 0,2 v 1 h 4 v -1 z" style="fill:gray;fill-opacity:1;fill-rule:evenodd;stroke-width:.5;stroke-linecap:round;stroke-linejoin:round"/></svg>