<svg xmlns="http://www.w3.org/2000/svg" xmlns:svg="http://www.w3.org/2000/svg" id="svg8" width="24" height="24" version="1.1"><path id="path4" d="m 3,6 v 5.5 c 0,1.61111 0.5770286,2.811996 1.5839844,3.53125 1.0069557,0.719254 2.3604616,0.96875 3.9160156,0.96875 h 7.5 v -1 h -7.5 c -1.444443,0 -2.5909419,-0.250505 -3.3339844,-0.78125 -0.7430425,-0.530745 -1.1660156,-1.329863 -1.1660156,-2.71875 v -5.5 z m 13,9 0.002,3.599609 c 0.95,-0.435 1.919297,-0.920781 2.904297,-1.457031 0.97625,-0.53875 1.916719,-1.095469 2.824219,-1.667969 -0.9075,-0.56125 -1.847969,-1.11164 -2.824219,-1.65039 -0.95301,-0.520707 -1.921552,-1.012468 -2.904297,-1.47461 h -0.002 z" style="color:#000;fill:gray;stroke-width:.8;marker:none"/></svg>