<svg xmlns="http://www.w3.org/2000/svg" xmlns:svg="http://www.w3.org/2000/svg" id="svg7384" width="24" height="24" version="1.1"><metadata id="metadata20854"/><defs id="defs7386"><linearGradient id="linearGradient5606"><stop id="stop5608" offset="0" style="stop-color:#000;stop-opacity:1"/></linearGradient><linearGradient id="linearGradient4526"><stop id="stop4528" offset="0" style="stop-color:#fff;stop-opacity:1"/></linearGradient><linearGradient id="linearGradient3600-4"><stop id="stop3602-7" offset="0" style="stop-color:#f4f4f4;stop-opacity:1"/><stop id="stop3604-6" offset="1" style="stop-color:#dbdbdb;stop-opacity:1"/></linearGradient></defs><path id="path3301" d="M 11 3 L 11 8 L 10.75 8 L 8.875 8 C 9.309575 8.950525 9.7948441 9.9171181 10.332031 10.902344 C 10.870519 11.878318 11.42715 12.71875 12 13.625 C 12.561388 12.71875 13.111915 11.878318 13.650391 10.902344 C 14.18758 9.917114 14.679036 8.9505425 15.125 8 L 13.25 8 L 13 8 L 13 3 L 11 3 z" style="color:#000;font-style:normal;font-variant:normal;font-weight:400;font-stretch:normal;font-size:medium;line-height:normal;font-family:sans-serif;font-variant-ligatures:normal;font-variant-position:normal;font-variant-caps:normal;font-variant-numeric:normal;font-variant-alternates:normal;font-feature-settings:normal;text-indent:0;text-align:start;text-decoration:none;text-decoration-line:none;text-decoration-style:solid;text-decoration-color:#000;letter-spacing:normal;word-spacing:normal;text-transform:none;writing-mode:lr-tb;direction:ltr;text-orientation:mixed;dominant-baseline:auto;baseline-shift:baseline;text-anchor:start;white-space:normal;shape-padding:0;clip-rule:nonzero;display:inline;overflow:visible;visibility:visible;isolation:auto;mix-blend-mode:normal;color-interpolation:sRGB;color-interpolation-filters:linearRGB;solid-color:#000;solid-opacity:1;vector-effect:none;fill:gray;fill-opacity:1;fill-rule:nonzero;stroke:none;stroke-width:1px;stroke-linecap:round;stroke-linejoin:round;stroke-miterlimit:4;stroke-dasharray:none;stroke-dashoffset:0;stroke-opacity:1;color-rendering:auto;image-rendering:auto;shape-rendering:auto;text-rendering:auto;enable-background:accumulate"/><path id="path873" d="M 5 11 L 5 18.5 C 5 19.041666 5.0635991 19.483918 5.2304688 19.859375 C 5.3973385 20.234832 5.6879014 20.527544 6.0273438 20.697266 C 6.7062285 21.036708 7.500001 21 8.5 21 L 15.5 21 C 16.499999 21 17.293771 21.03671 17.972656 20.697266 C 18.312099 20.527544 18.602661 20.234832 18.769531 19.859375 C 18.936401 19.483918 19 19.041666 19 18.5 L 19 11 L 18 11 L 18 16 L 6 16 L 6 11 L 5 11 z M 6 17 L 18 17 L 18 18.5 C 18 18.958333 17.9386 19.266083 17.855469 19.453125 C 17.772339 19.640167 17.687901 19.722456 17.527344 19.802734 C 17.20623 19.963291 16.499999 20 15.5 20 L 8.5 20 C 7.500001 20 6.7937706 19.96329 6.4726562 19.802734 C 6.3120991 19.722454 6.2276612 19.640167 6.1445312 19.453125 C 6.0614013 19.266083 6 18.958333 6 18.5 L 6 17 z" style="color:#000;fill:gray;-inkscape-stroke:none;fill-opacity:1"/><rect style="fill:gray;fill-rule:evenodd;stroke-width:2;stroke-linecap:square" id="rect1412" width="2" height="1" x="11" y="18"/></svg>