<svg xmlns="http://www.w3.org/2000/svg" xmlns:svg="http://www.w3.org/2000/svg" id="svg8" width="24" height="24" version="1.1"><metadata id="metadata14"/><path id="path859" d="M 7.7929688 2 L 7.6464844 2.1464844 L 2 7.7929688 L 2 16.207031 L 7.7929688 22 L 16.207031 22 L 22 16.207031 L 22 7.7929688 L 16.207031 2 L 7.7929688 2 z M 11 6 L 13 6 L 13 11 L 12.599609 14 L 11.400391 14 L 11 11 L 11 6 z M 12 16 A 1 1 0 0 1 13 17 A 1 1 0 0 1 12 18 A 1 1 0 0 1 11 17 A 1 1 0 0 1 12 16 z" style="color:#000;fill:gray;fill-opacity:1;-inkscape-stroke:none"/></svg>