<svg xmlns="http://www.w3.org/2000/svg" xmlns:svg="http://www.w3.org/2000/svg" id="svg8" width="24" height="24" version="1.1"><path id="path869" d="M 12 2 A 10 10 0 0 0 2 12 A 10 10 0 0 0 12 22 A 10 10 0 0 0 22 12 A 10 10 0 0 0 12 2 z M 12 3 A 9 9 0 0 1 21 12 A 9 9 0 0 1 12 21 A 9 9 0 0 1 3 12 A 9 9 0 0 1 12 3 z" style="fill:gray;fill-opacity:1;fill-rule:evenodd;stroke-width:2;stroke-linecap:square"/><circle style="fill:gray;fill-opacity:1;fill-rule:evenodd;stroke-width:2;stroke-linecap:square" id="path1072" cx="12" cy="17" r="1"/><path style="fill:gray;fill-opacity:1;stroke:none;stroke-width:1px;stroke-linecap:butt;stroke-linejoin:miter" id="path1217" d="m 11,6 h 2 v 5 l -0.4,3 h -1.2 l -0.4,-3 z"/></svg>