<svg xmlns="http://www.w3.org/2000/svg" xmlns:svg="http://www.w3.org/2000/svg" id="svg8" width="24" height="24" version="1.1"><g id="g6" fill="gray" transform="matrix(1.25,0,0,1.25,2,2)" style="stroke-width:.8"><path id="path869" d="M 12 2 A 10 10 0 0 0 2 12 A 10 10 0 0 0 12 22 A 10 10 0 0 0 22 12 A 10 10 0 0 0 12 2 z M 11 6 L 13 6 L 13 11 L 12.599609 14 L 11.400391 14 L 11 11 L 11 6 z M 12 16 A 1 1 0 0 1 13 17 A 1 1 0 0 1 12 18 A 1 1 0 0 1 11 17 A 1 1 0 0 1 12 16 z" transform="matrix(0.8,0,0,0.8,-1.6,-1.6)" style="fill:gray;fill-opacity:1;fill-rule:evenodd;stroke-width:2;stroke-linecap:square"/></g></svg>