<svg xmlns="http://www.w3.org/2000/svg" xmlns:svg="http://www.w3.org/2000/svg" id="svg7384" width="24" height="24" version="1.1"><metadata id="metadata20854"/><defs id="defs7386"><linearGradient id="linearGradient5606"><stop id="stop5608" offset="0" style="stop-color:#000;stop-opacity:1"/></linearGradient><linearGradient id="linearGradient4526"><stop id="stop4528" offset="0" style="stop-color:#fff;stop-opacity:1"/></linearGradient><linearGradient id="linearGradient3600-4"><stop id="stop3602-7" offset="0" style="stop-color:#f4f4f4;stop-opacity:1"/><stop id="stop3604-6" offset="1" style="stop-color:#dbdbdb;stop-opacity:1"/></linearGradient></defs><path id="path873" d="m 5,11 v 7.500001 c 0,0.541665 0.0636,0.983917 0.230469,1.359375 0.16687,0.375457 0.457432,0.668168 0.796875,0.83789 0.678885,0.339442 1.472657,0.302735 2.472656,0.302735 h 7 c 0.999999,0 1.793771,0.03671 2.472656,-0.302735 0.339443,-0.169722 0.630005,-0.462434 0.796875,-0.83789 0.16687,-0.375458 0.230469,-0.81771 0.230469,-1.359375 v -7.500001 h -1 v 5.000001 h -12 v -5.000001 z m 6,7.000001 h 2 v 1 h -2 z" style="color:#000;fill:gray;fill-opacity:1;-inkscape-stroke:none"/><path id="path3301" d="m 11,13.624999 v -4.9999999 h -0.25 -1.875 c 0.434575,-0.950525 0.919844,-1.917118 1.457031,-2.9023431 0.538488,-0.975974 1.095119,-1.816406 1.667969,-2.722656 0.561388,0.90625 1.111915,1.746682 1.650391,2.722656 0.537189,0.9852291 1.028645,1.9518001 1.474609,2.9023431 h -1.875 -0.25 v 4.9999999 z" style="color:#000;font-style:normal;font-variant:normal;font-weight:400;font-stretch:normal;font-size:medium;line-height:normal;font-family:sans-serif;font-variant-ligatures:normal;font-variant-position:normal;font-variant-caps:normal;font-variant-numeric:normal;font-variant-alternates:normal;font-feature-settings:normal;text-indent:0;text-align:start;text-decoration:none;text-decoration-line:none;text-decoration-style:solid;text-decoration-color:#000;letter-spacing:normal;word-spacing:normal;text-transform:none;writing-mode:lr-tb;direction:ltr;text-orientation:mixed;dominant-baseline:auto;baseline-shift:baseline;text-anchor:start;white-space:normal;shape-padding:0;clip-rule:nonzero;display:inline;overflow:visible;visibility:visible;isolation:auto;mix-blend-mode:normal;color-interpolation:sRGB;color-interpolation-filters:linearRGB;solid-color:#000;solid-opacity:1;vector-effect:none;fill:gray;fill-opacity:1;fill-rule:nonzero;stroke:none;stroke-width:1px;stroke-linecap:round;stroke-linejoin:round;stroke-miterlimit:4;stroke-dasharray:none;stroke-dashoffset:0;stroke-opacity:1;color-rendering:auto;image-rendering:auto;shape-rendering:auto;text-rendering:auto;enable-background:accumulate"/></svg>