<svg xmlns="http://www.w3.org/2000/svg" xmlns:svg="http://www.w3.org/2000/svg" id="svg7384" width="24" height="24" version="1.1"><metadata id="metadata20854"/><defs id="defs7386"><linearGradient id="linearGradient5606"><stop id="stop5608" offset="0" style="stop-color:#000;stop-opacity:1"/></linearGradient><linearGradient id="linearGradient4526"><stop id="stop4528" offset="0" style="stop-color:#fff;stop-opacity:1"/></linearGradient><linearGradient id="linearGradient3600-4"><stop id="stop3602-7" offset="0" style="stop-color:#f4f4f4;stop-opacity:1"/><stop id="stop3604-6" offset="1" style="stop-color:#dbdbdb;stop-opacity:1"/></linearGradient></defs><path id="path3301" d="m 11,13.625 v -5 h -0.25 -1.8749999 c 0.434575,-0.950525 0.919844,-1.9171181 1.4570309,-2.902344 0.538488,-0.975974 1.095119,-1.816406 1.667969,-2.722656 0.561388,0.90625 1.111915,1.746682 1.650391,2.722656 0.537189,0.98523 1.028645,1.9518015 1.474609,2.902344 h -1.875 -0.25 v 5 z" style="color:#000;font-style:normal;font-variant:normal;font-weight:400;font-stretch:normal;font-size:medium;line-height:normal;font-family:sans-serif;font-variant-ligatures:normal;font-variant-position:normal;font-variant-caps:normal;font-variant-numeric:normal;font-variant-alternates:normal;font-feature-settings:normal;text-indent:0;text-align:start;text-decoration:none;text-decoration-line:none;text-decoration-style:solid;text-decoration-color:#000;letter-spacing:normal;word-spacing:normal;text-transform:none;writing-mode:lr-tb;direction:ltr;text-orientation:mixed;dominant-baseline:auto;baseline-shift:baseline;text-anchor:start;white-space:normal;shape-padding:0;clip-rule:nonzero;display:inline;overflow:visible;visibility:visible;isolation:auto;mix-blend-mode:normal;color-interpolation:sRGB;color-interpolation-filters:linearRGB;solid-color:#000;solid-opacity:1;vector-effect:none;fill:gray;fill-opacity:1;fill-rule:nonzero;stroke:none;stroke-width:1px;stroke-linecap:round;stroke-linejoin:round;stroke-miterlimit:4;stroke-dasharray:none;stroke-dashoffset:0;stroke-opacity:1;color-rendering:auto;image-rendering:auto;shape-rendering:auto;text-rendering:auto;enable-background:accumulate"/><path id="path873" d="m 4.9999999,11 v 7.500001 c 0,0.541665 0.063599,0.983917 0.2304691,1.359375 0.166869,0.375457 0.4574321,0.668168 0.796875,0.83789 0.678884,0.339442 1.472657,0.302735 2.4726561,0.302735 h 6.9999999 c 0.999999,0 1.793771,0.03671 2.472656,-0.302735 0.339443,-0.169722 0.630005,-0.462434 0.796875,-0.83789 0.16687,-0.375458 0.230469,-0.81771 0.230469,-1.359375 v -7.500001 h -1 v 5 h -11.9999999 v -5 z m 1.0000001,6 h 12 v 1.500001 c 0,0.458333 -0.0614,0.766082 -0.144531,0.953125 -0.08313,0.187042 -0.167568,0.269331 -0.328125,0.349609 -0.321114,0.160557 -1.027345,0.197266 -2.027344,0.197266 h -6.9999999 c -0.9999991,0 -1.7062291,-0.03671 -2.027344,-0.197266 -0.160557,-0.08028 -0.244995,-0.162567 -0.328125,-0.349609 -0.08313,-0.187043 -0.144531,-0.494792 -0.144531,-0.953125 z" style="color:#000;fill:gray;fill-opacity:1;-inkscape-stroke:none"/><rect style="fill:gray;fill-rule:evenodd;stroke-width:2;stroke-linecap:square" id="rect1412" width="2" height="1" x="11" y="18"/></svg>