<svg xmlns="http://www.w3.org/2000/svg" xmlns:svg="http://www.w3.org/2000/svg" id="svg8" width="24" height="24" version="1.1"><path id="path4" d="m 22,6 v 5.5 c 0,1.61111 -0.577029,2.811996 -1.583984,3.53125 -1.006956,0.719254 -2.360462,0.96875 -3.916016,0.96875 h -8.5 v -1 h 8.5 c 1.444443,0 2.590942,-0.250505 3.333984,-0.78125 0.743043,-0.530745 1.166016,-1.329863 1.166016,-2.71875 v -5.5 z m -14,9 -0.002,3.599609 c -0.95,-0.435 -1.919297,-0.920781 -2.904297,-1.457031 -0.97625,-0.53875 -1.916719,-1.095469 -2.824219,-1.667969 0.9075,-0.56125 1.847969,-1.11164 2.824219,-1.65039 a 53.855,53.855 0 0 1 2.904297,-1.47461 h 0.002 z" style="color:#000;fill:gray;stroke-width:.8;marker:none"/></svg>