<svg xmlns="http://www.w3.org/2000/svg" xmlns:svg="http://www.w3.org/2000/svg" id="svg8" width="24" height="24" version="1.1"><path id="path4" d="M 16 6 L 16 11.5 C 16 12.888887 15.577027 13.688005 14.833984 14.21875 C 14.090942 14.749495 12.944443 15 11.5 15 L 8 15 L 8 12.349609 L 7.9980469 12.349609 A 53.855 53.855 0 0 0 5.09375 13.824219 C 4.1175 14.362969 3.1770313 14.913359 2.2695312 15.474609 C 3.1770312 16.047109 4.1175 16.603828 5.09375 17.142578 C 6.07875 17.678828 7.0480469 18.164609 7.9980469 18.599609 L 8 16 L 11.5 16 L 16.5 16 C 18.055554 16 19.40906 15.750504 20.416016 15.03125 C 21.422971 14.311996 22 13.11111 22 11.5 L 22 6 L 21 6 L 21 11.5 C 21 12.888887 20.577027 13.688005 19.833984 14.21875 C 19.090942 14.749495 17.944443 15 16.5 15 L 15.457031 15 C 16.43811 14.277546 17 13.088658 17 11.5 L 17 6 L 16 6 z" style="color:#000;fill:gray;stroke-width:.8;marker:none"/></svg>