<svg xmlns="http://www.w3.org/2000/svg" xmlns:svg="http://www.w3.org/2000/svg" id="svg4" width="24" height="24" version="1.1"><path id="path4" d="m 5,11 v 2.5 c 0,1.61111 0.5770286,2.811996 1.583984,3.53125 1.006956,0.719254 2.360462,0.96875 3.916016,0.96875 h 5.5 v -1 h -5.5 c -1.444443,0 -2.590942,-0.250505 -3.333984,-0.78125 -0.743043,-0.530745 -1.1095691,-1.331011 -1.166016,-2.71875 v -2.5 z m 11,6 0.002,3.599609 c 0.95,-0.435 1.919297,-0.920781 2.904297,-1.457031 0.97625,-0.53875 1.916719,-1.095469 2.824219,-1.667969 -0.9075,-0.56125 -1.847969,-1.11164 -2.824219,-1.65039 -0.95301,-0.520707 -1.921552,-1.012468 -2.904297,-1.47461 h -0.002 z" style="color:#000;fill:gray;stroke-width:.8;marker:none"/><path id="path1024" d="m 19,13 v -2.5 c 0,-1.61111 -0.577029,-2.811996 -1.583984,-3.53125 -1.006956,-0.719254 -2.360462,-0.96875 -3.916016,-0.96875 h -5.5 v 1 h 5.5 c 1.444443,0 2.590942,0.250505 3.333984,0.78125 0.743043,0.530745 1.109569,1.331011 1.166016,2.71875 v 2.5 z m -11,-6 -0.002,-3.599609 c -0.95,0.435 -1.919297,0.920781 -2.904297,1.457031 -0.97625,0.53875 -1.916719,1.095469 -2.824219,1.667969 0.9075,0.56125 1.847969,1.11164 2.824219,1.65039 0.95301,0.520707 1.921552,1.012468 2.904297,1.47461 h 0.002 z" style="color:#000;fill:gray;stroke-width:.8;marker:none"/></svg>