<svg xmlns="http://www.w3.org/2000/svg" xmlns:svg="http://www.w3.org/2000/svg" id="svg4" width="24" height="24" version="1.1"><path style="stroke-width:1;marker:none" id="path2" fill="gray" d="m 21.1375,2.8325 c -9.6325,3.2475 -18.3,7.85625 -18.3,7.85625 l 6.98,3.4875 3.4875,6.97625 0.0088,0.0075 0.005,0.005 c 0,0 4.83375,-9.1275 7.84375,-18.3275 l -0.005,-0.0025 h -0.0075 -0.005 a 0.0125,0.0125 0 0 0 -0.005,-0.0025 z m -2.21625,2.24125 c -2.2875,6.255 -4.48,11.03375 -5.6175,13.27875 l -2.15,-4.30375 c 1.78875,-1.92875 5.36625,-6.56875 6.88875,-8.09125 -1.5225,1.5225 -6.15875,5.09625 -8.0875,6.8875 l -4.29875,-2.14625 c 2.205,-1.1175 6.86125,-3.2525 13.26375,-5.625 z" color="#000" overflow="visible"/></svg>