<svg xmlns="http://www.w3.org/2000/svg" xmlns:svg="http://www.w3.org/2000/svg" id="svg835" width="24" height="24" version="1.1"><path id="path2" d="m 8.375,16 a 53.5125,53.5125 0 0 0 1.474609,2.902344 64.44375,64.44375 0 0 0 1.650391,2.826172 56,56 0 0 0 1.667969,-2.826172 46.21875,46.21875 0 0 0 1.457031,-2.902344 h -2.5 -0.125 v -8 h 0.125 2.5 a 46.21875,46.21875 0 0 0 -1.457031,-2.902344 56,56 0 0 0 -1.667969,-2.826172 64.44375,64.44375 0 0 0 -1.650391,2.826172 53.5125,53.5125 0 0 0 -1.474609,2.902344 h 2.625 v 8 z" style="color:#000;line-height:normal;font-variant-ligatures:none;font-variant-position:normal;font-variant-caps:normal;font-variant-numeric:normal;font-variant-alternates:normal;font-feature-settings:normal;text-indent:0;text-align:start;text-decoration-line:none;text-decoration-style:solid;text-decoration-color:#000;text-transform:none;shape-padding:0;isolation:auto;mix-blend-mode:normal;fill:gray;stroke-width:1;marker:none"/></svg>