<svg xmlns="http://www.w3.org/2000/svg" xmlns:svg="http://www.w3.org/2000/svg" id="svg8" width="24" height="24" version="1.1"><path id="path2" d="M 8 8.375 A 53.5125 53.5125 0 0 0 5.0976562 9.8496094 A 64.44375 64.44375 0 0 0 2.2714844 11.5 A 56 56 0 0 0 5.0976562 13.167969 A 46.21875 46.21875 0 0 0 8 14.625 L 8 12.125 L 8 12 L 16 12 L 16 12.125 L 16 14.625 A 46.21875 46.21875 0 0 0 18.902344 13.167969 A 56 56 0 0 0 21.728516 11.5 A 64.44375 64.44375 0 0 0 18.902344 9.8496094 A 53.5125 53.5125 0 0 0 16 8.375 L 16 11 L 8 11 L 8 8.375 z" style="color:#000;line-height:normal;font-variant-ligatures:none;font-variant-position:normal;font-variant-caps:normal;font-variant-numeric:normal;font-variant-alternates:normal;font-feature-settings:normal;text-indent:0;text-align:start;text-decoration-line:none;text-decoration-style:solid;text-decoration-color:#000;text-transform:none;shape-padding:0;isolation:auto;mix-blend-mode:normal;fill:gray;stroke-width:1;marker:none"/></svg>