<svg xmlns="http://www.w3.org/2000/svg" xmlns:svg="http://www.w3.org/2000/svg" id="svg12" width="24" height="24" version="1.1"><g id="g10" fill="gray" transform="matrix(-1.25,0,0,1.25,22,2)" style="stroke-width:.8"><path id="path2" d="m 12,3 a 9,9 0 0 0 -5.8398438,2.1816406 l -1.546875,-1.546875 c -0.3325,0.92375 -0.6490624,1.8882813 -0.9453124,2.8945313 -0.2887501,1.00125 -0.5466407,1.9889844 -0.7753907,2.9589843 0.97875,-0.2199999 1.96875,-0.4768748 2.96875,-0.765625 1.0075,-0.2962498 1.9678125,-0.6138281 2.8828125,-0.9550781 l -1.8769531,-1.8789062 a 8,8 0 0 1 5.1328125,-1.8886719 8,8 0 0 1 8,8 8,8 0 0 1 -8,8 8.0000001,8.0000001 0 0 1 -1.388672,-0.121094 l -0.173828,0.984375 a 8.9999997,8.9999997 0 0 0 1.5625,0.136719 9,9 0 0 0 9,-9 9,9 0 0 0 -9,-9 z m -6.5527344,13.589844 -0.8203125,0.572265 a 8.9999997,8.9999997 0 0 0 1.0097657,1.201172 l 0.7070312,-0.707031 a 8.0000001,8.0000001 0 0 1 -0.8964844,-1.066406 z m 1.4101563,1.539062 -0.6425781,0.765625 a 8.9999997,8.9999997 0 0 0 1.2851562,0.900391 l 0.5,-0.867188 a 8.0000001,8.0000001 0 0 1 -1.1425781,-0.798828 z m 1.7617187,1.123047 -0.421875,0.904297 a 8.9999997,8.9999997 0 0 0 1.4726563,0.537109 l 0.2597656,-0.966797 a 8.0000001,8.0000001 0 0 1 -1.3105469,-0.474609 z" transform="matrix(0.8,0,0,0.8,-1.6,-1.6)" style="stroke-width:.8;marker:none"/></g><path id="path849" d="m 12,10 a 2,2 0 0 1 2,2 2,2 0 0 1 -2,2 2,2 0 0 1 -2.0000001,-2 2,2 0 0 1 2.0000001,-2 z m 0,1 a 1,1 0 0 0 -1,1 1,1 0 0 0 1,1 1,1 0 0 0 1,-1 1,1 0 0 0 -1,-1 z" style="fill:gray;fill-opacity:1;fill-rule:evenodd;stroke-width:.5;stroke-linecap:round;stroke-linejoin:round"/></svg>