<svg xmlns="http://www.w3.org/2000/svg" xmlns:svg="http://www.w3.org/2000/svg" id="svg4" width="24" height="24" version="1.1"><metadata id="metadata10"/><path id="path859" d="M 5.4550781 6 C 4.4864972 6.00898 3.7372591 6.073269 3.1171875 6.4453125 C 2.7038064 6.6933412 2.3972496 7.10122 2.2285156 7.6074219 C 2.0597817 8.1136238 2 8.722223 2 9.5 L 2 18 L 3 18 L 3 10 L 21 10 L 21 18 L 22 18 L 22 9.5 C 22 8.722223 21.94022 8.1136238 21.771484 7.6074219 C 21.60275 7.10122 21.296194 6.6933412 20.882812 6.4453125 C 20.056051 5.9492552 18.999998 6 17.5 6 L 6.5 6 C 6.1250004 6 5.7779384 5.99701 5.4550781 6 z M 12 7 L 14 7 L 14 9 L 12 9 L 12 7 z M 15 7 L 17 7 L 17 9 L 15 9 L 15 7 z M 18 7 L 20 7 L 20 9 L 18 9 L 18 7 z" style="color:#000;fill:gray;fill-opacity:1;-inkscape-stroke:none"/></svg>