<svg xmlns="http://www.w3.org/2000/svg" xmlns:svg="http://www.w3.org/2000/svg" id="svg7384" width="24" height="24" version="1.1"><metadata id="metadata20854"/><defs id="defs7386"><linearGradient id="linearGradient5606"><stop id="stop5608" offset="0" style="stop-color:#000;stop-opacity:1"/></linearGradient><linearGradient id="linearGradient4526"><stop id="stop4528" offset="0" style="stop-color:#fff;stop-opacity:1"/></linearGradient><linearGradient id="linearGradient3600-4"><stop id="stop3602-7" offset="0" style="stop-color:#f4f4f4;stop-opacity:1"/><stop id="stop3604-6" offset="1" style="stop-color:#dbdbdb;stop-opacity:1"/></linearGradient></defs><path id="rect255" d="m 9.8046875,3.8046875 -1.2675781,2.1953125 h -2.5371094 v 2.5371094 l -2.1953125,1.2675781 1.2675781,2.1953125 -1.2675781,2.195312 2.1953125,1.267579 v 2.537109 h 2.5371094 l 1.2675781,2.195312 2.0761715,-1.199218 c -2.1428711,-0.06382 -3.880859,-1.838698 -3.880859,-3.996094 0,-2.003827 1.522619,-3.609132 3.453125,-3.888672 0.765394,-1.8340823 2.513821,-3.106878 4.544922,-3.111328 h 0.002 c 0.715446,0 1.391421,0.1549916 2,0.4316406 v -2.4316406 h -2.537109 l -1.267579,-2.1953125 -2.195312,1.2675781 z" style="fill:gray;fill-opacity:1;fill-rule:evenodd;stroke-width:.5;stroke-linecap:square;stroke-linejoin:round"/><path id="rect1606" d="M 16 9 C 14.177766 9.00399 12.588542 10.239072 12.134766 12.003906 C 12.089876 12.001606 12.044946 12.0003 12 12 C 10.343146 12 9 13.343146 9 15 C 9 16.656854 10.343146 18 12 18 L 19.5 18 C 20.880712 18 22 16.880712 22 15.5 C 21.999494 14.310923 21.161525 13.286739 19.996094 13.050781 C 19.997494 13.033861 19.9988 13.01693 20 13 C 20 10.790861 18.209139 9 16 9 z M 16 10 C 17.656854 10 19 11.343146 19 13 C 18.9989 13.01954 18.997594 13.039084 18.996094 13.058594 C 18.986694 13.456128 18.898434 13.847835 18.736328 14.210938 C 18.967381 14.073455 19.231139 14.000601 19.5 14 C 19.61978 14.000079 19.73912 14.014499 19.855469 14.042969 C 20.527188 14.20682 20.999889 14.808586 21 15.5 C 21 16.328427 20.328427 17 19.5 17 L 12 17 C 10.895431 17 10 16.104569 10 15 C 10 13.895431 10.895431 13 12 13 C 12.359587 13.000217 12.712464 13.09738 13.021484 13.28125 C 13.009914 13.18789 13.00274 13.094035 13 13 C 13.0028 12.734421 13.04093 12.470394 13.113281 12.214844 C 13.466919 10.910705 14.64877 10.003926 16 10 z" style="fill:gray;fill-opacity:1;fill-rule:evenodd;stroke-width:.5;stroke-linecap:square;stroke-linejoin:round"/></svg>