<svg xmlns="http://www.w3.org/2000/svg" xmlns:svg="http://www.w3.org/2000/svg" id="svg7384" width="24" height="24" version="1.1"><metadata id="metadata20854"/><defs id="defs7386"><linearGradient id="linearGradient5606"><stop id="stop5608" offset="0" style="stop-color:#000;stop-opacity:1"/></linearGradient><linearGradient id="linearGradient4526"><stop id="stop4528" offset="0" style="stop-color:#fff;stop-opacity:1"/></linearGradient><linearGradient id="linearGradient3600-4"><stop id="stop3602-7" offset="0" style="stop-color:#f4f4f4;stop-opacity:1"/><stop id="stop3604-6" offset="1" style="stop-color:#dbdbdb;stop-opacity:1"/></linearGradient></defs><path id="path30" d="M 11 2 L 11 5 L 12 5 L 12 2 L 11 2 z M 7.1835938 3.0234375 L 6.3164062 3.5234375 L 7.8164062 6.1210938 L 8.6835938 5.6210938 L 7.1835938 3.0234375 z M 15.816406 3.0234375 L 14.316406 5.6210938 L 15.183594 6.1210938 L 16.683594 3.5234375 L 15.816406 3.0234375 z M 11.5 6 A 5.5 5.5 0 0 0 6 11.5 A 5.5 5.5 0 0 0 9.0253906 16.384766 C 9.2735881 16.115271 9.5604834 15.882003 9.875 15.6875 A 4.5 4.5 0 0 1 7 11.5 A 4.5 4.5 0 0 1 11.5 7 A 4.5 4.5 0 0 1 16 11.5 A 4.5 4.5 0 0 1 15.951172 12.001953 C 15.966923 12.001765 15.982261 12.000035 15.998047 12 A 1.0001 1.0001 0 0 0 16 12 C 16.322781 12 16.637293 12.03192 16.941406 12.091797 A 5.5 5.5 0 0 0 17 11.5 A 5.5 5.5 0 0 0 11.5 6 z M 3.5234375 6.3164062 L 3.0234375 7.1835938 L 5.6210938 8.6835938 L 6.1210938 7.8164062 L 3.5234375 6.3164062 z M 19.476562 6.3164062 L 16.878906 7.8164062 L 17.378906 8.6835938 L 19.976562 7.1835938 L 19.476562 6.3164062 z M 2 11 L 2 12 L 5 12 L 5 11 L 2 11 z M 18 11 L 18 12 L 21 12 L 21 11 L 18 11 z M 5.6210938 14.316406 L 3.0234375 15.816406 L 3.5234375 16.683594 L 6.1210938 15.183594 L 5.6210938 14.316406 z M 7.8164062 16.878906 L 6.3164062 19.476562 L 7.1835938 19.976562 L 8.0351562 18.501953 C 8.0937218 18.049086 8.2282077 17.620775 8.4296875 17.232422 L 7.8164062 16.878906 z" style="fill:gray;fill-opacity:1;fill-rule:evenodd;stroke-width:.5;stroke-linecap:square;stroke-linejoin:round"/><path id="rect1606" d="m 16,13 c -1.822234,0.004 -3.411458,1.239072 -3.865234,3.003906 -0.04489,-0.0023 -0.08982,-0.0036 -0.134766,-0.0039 -1.656854,0 -3,1.343146 -3,3 0,1.656854 1.343146,3 3,3 h 7.5 c 1.380712,0 2.5,-1.119288 2.5,-2.5 -5.06e-4,-1.189077 -0.838475,-2.213261 -2.003906,-2.449219 0.0014,-0.01692 0.0027,-0.03385 0.0039,-0.05078 0,-2.209139 -1.790861,-4 -4,-4 z m 0,1 c 1.656854,0 3,1.343146 3,3 -0.0011,0.01954 -0.0024,0.03908 -0.0039,0.05859 -0.0094,0.397534 -0.09766,0.789241 -0.259766,1.152344 0.231053,-0.137483 0.494811,-0.210337 0.763672,-0.210938 0.11978,7.9e-5 0.23912,0.0145 0.355469,0.04297 0.671719,0.163851 1.14442,0.765617 1.144531,1.457031 0,0.828427 -0.671573,1.5 -1.5,1.5 h -7.5 c -1.104569,0 -2,-0.895431 -2,-2 0,-1.104569 0.895431,-2 2,-2 0.359587,2.17e-4 0.712464,0.09738 1.021484,0.28125 -0.01157,-0.09336 -0.01874,-0.187215 -0.02148,-0.28125 0.0028,-0.265579 0.04093,-0.529606 0.113281,-0.785156 0.353638,-1.304139 1.535489,-2.210918 2.886719,-2.214844 z" style="fill:gray;fill-opacity:1;fill-rule:evenodd;stroke-width:.5;stroke-linecap:square;stroke-linejoin:round"/></svg>