<svg xmlns="http://www.w3.org/2000/svg" xmlns:svg="http://www.w3.org/2000/svg" id="svg4" width="24" height="24" version="1.1"><path id="circle1109" d="M 13.5 3 C 10.792856 3 8.4682879 4.6647593 7.4921875 7.0234375 C 7.3300464 7.0074795 7.1662417 7 7 7 C 4.244501 7 2 9.2445012 2 12 C 2 13.126131 2.3802788 14.162895 3.0117188 15 L 4.3574219 15 C 3.5263199 14.267923 3 13.199 3 12 C 3 9.7849412 4.784941 8 7 8 C 7.058781 8 7.1176318 8.0033694 7.1757812 8.0058594 C 7.5173176 8.0204794 7.8463952 8.0774104 8.1601562 8.171875 C 8.2411833 7.8436276 8.3533859 7.5284166 8.4902344 7.2265625 C 9.35365 5.3220801 11.26836 4 13.5 4 C 16.543485 4 19 6.4565144 19 9.5 C 19 9.680249 18.989496 9.8574602 18.972656 10.033203 C 18.940296 10.370866 18.879427 10.700738 18.789062 11.017578 C 19.131274 11.056578 19.451133 11.164338 19.736328 11.326172 C 20.491911 11.754927 21 12.564472 21 13.5 C 21 14.886633 19.886633 16 18.5 16 C 18.40804 16 18.317845 15.995898 18.228516 15.986328 C 18.295516 15.993528 18.363131 15.99818 18.431641 16 L 16.064453 16 L 16.058594 16 L 13.5 16 L 10 16 L 4.015625 16 L 2 16 L 2 17 L 7 17 L 10 17 L 18.5 17 C 20.427072 17 22 15.427072 22 13.5 C 22 12.0885 21.156069 10.867026 19.947266 10.314453 C 19.980816 10.047431 20 9.775968 20 9.5 C 20 5.9160752 17.083925 3 13.5 3 z M 19.398438 12.226562 C 19.353777 12.322952 19.306989 12.417943 19.257812 12.511719 C 19.306983 12.417939 19.353771 12.32295 19.398438 12.226562 z M 2 18 L 2 19 L 22 19 L 22 18 L 2 18 z M 2 20 L 2 21 L 22 21 L 22 20 L 2 20 z" style="color:#000;fill:gray;fill-opacity:1;fill-rule:evenodd;stroke-linecap:round;-inkscape-stroke:none"/></svg>