<svg xmlns="http://www.w3.org/2000/svg" xmlns:svg="http://www.w3.org/2000/svg" id="svg4" width="24" height="24" version="1.1"><path id="path845" d="M 5 6 C 5 6 3 9 3 11 A 2 2 0 0 0 5 13 A 2 2 0 0 0 7 11 A 2 2 0 0 0 6.9960938 10.880859 C 6.9205406 8.8831465 5 6 5 6 z M 19 6 C 19 6 17 9 17 11 A 2 2 0 0 0 19 13 A 2 2 0 0 0 21 11 A 2 2 0 0 0 20.996094 10.880859 C 20.920541 8.8831465 19 6 19 6 z M 12 8 C 12 8 9 14 9 17 A 3 3 0 0 0 12 20 A 3 3 0 0 0 15 17 C 15 16.952492 14.997575 16.902493 14.996094 16.853516 A 3 3 0 0 1 14.996094 16.851562 C 14.902877 13.807247 12 8 12 8 z" style="fill:gray;fill-rule:evenodd;fill-opacity:1"/></svg>