<svg xmlns="http://www.w3.org/2000/svg" xmlns:svg="http://www.w3.org/2000/svg" id="svg8" width="24" height="24" version="1.1"><path id="rect1321" d="M 5.7871094 3 C 5.1101644 3.0056 4.5365068 3.04815 4.0273438 3.3027344 C 3.6879017 3.4724554 3.3973378 3.765167 3.2304688 4.140625 C 3.0635987 4.516082 3 4.958333 3 5.5 L 3 16.707031 L 7.2929688 21 L 17.5 21 C 18.499999 21 19.293771 21.03671 19.972656 20.697266 C 20.312099 20.527544 20.602661 20.234832 20.769531 19.859375 C 20.936401 19.483918 21 19.041666 21 18.5 L 21 5.5 C 21 4.958333 20.9364 4.516082 20.769531 4.140625 C 20.602661 3.765167 20.312099 3.4724554 19.972656 3.3027344 C 19.293771 2.9632914 18.499999 3 17.5 3 L 6.5 3 C 6.25 3 6.0127584 2.9981 5.7871094 3 z M 7 13 L 17 13 L 17 20 L 7.7070312 20 L 7 19.292969 L 7 13 z M 10 14 L 10 19 L 12 19 L 12 14 L 10 14 z" style="fill:gray;fill-opacity:1;fill-rule:evenodd;stroke-width:.5;stroke-linecap:round;stroke-linejoin:round"/></svg>