<svg xmlns="http://www.w3.org/2000/svg" xmlns:svg="http://www.w3.org/2000/svg" id="svg8" width="24" height="24" version="1.1"><path id="rect847" d="m 8,1.9994196 v 4.9995804 h 8 v -4.9995804 z m 2,2 v 1 h 1 v -1 z m 3,0 v 1 h 1 v -1 z m -5.212891,3.9995804 c -0.676945,0.00559 -1.250601,0.048153 -1.759765,0.3027344 -0.339442,0.1697212 -0.630005,0.4624336 -0.796875,0.8378906 -0.16687,0.375457 -0.230469,0.8177089 -0.230469,1.359375 v 9.000419 c 0,0.541666 0.0636,0.983918 0.230469,1.359375 0.16687,0.375457 0.457433,0.668169 0.796875,0.837891 0.678885,0.339442 1.472657,0.302734 2.472656,0.302734 h 7 c 0.999999,0 1.793771,0.03671 2.472656,-0.302734 0.339443,-0.169722 0.630005,-0.462434 0.796875,-0.837891 0.16687,-0.375457 0.230469,-0.817709 0.230469,-1.359375 v -9.000419 c 0,-0.5416661 -0.0636,-0.983918 -0.230469,-1.359375 -0.16687,-0.375457 -0.457432,-0.6681694 -0.796875,-0.8378906 -0.678885,-0.3394424 -1.472657,-0.3027344 -2.472656,-0.3027344 h -7 c -0.25,0 -0.487242,-0.00186 -0.712891,0 z" style="fill:gray;fill-opacity:1;fill-rule:evenodd;stroke-width:.5;stroke-linecap:round;stroke-linejoin:round"/></svg>