<svg xmlns="http://www.w3.org/2000/svg" xmlns:svg="http://www.w3.org/2000/svg" id="svg8" width="24" height="24" version="1.1"><path id="path859" d="M 4.7871094 5 C 4.1101636 5.00559 3.5365072 5.048153 3.0273438 5.3027344 C 2.6879013 5.4724556 2.3973384 5.765168 2.2304688 6.140625 C 2.0635987 6.516082 2 6.9583339 2 7.5 L 2 16.5 C 2 17.041666 2.0635989 17.483918 2.2304688 17.859375 C 2.3973384 18.234832 2.6879013 18.527544 3.0273438 18.697266 C 3.7062282 19.036708 4.500001 19 5.5 19 L 18.5 19 C 19.499999 19 20.293771 19.03671 20.972656 18.697266 C 21.312099 18.527544 21.602661 18.234832 21.769531 17.859375 C 21.936401 17.483918 22 17.041666 22 16.5 L 22 7.5 C 22 6.9583339 21.9364 6.516082 21.769531 6.140625 C 21.602661 5.765168 21.312099 5.4724556 20.972656 5.3027344 C 20.293771 4.963292 19.499999 5 18.5 5 L 5.5 5 C 5.2500003 5 5.012758 4.99814 4.7871094 5 z M 8 9 A 3 3 0 0 1 11 12 A 3 3 0 0 1 10.232422 14 L 13.767578 14 A 3 3 0 0 1 13 12 A 3 3 0 0 1 16 9 A 3 3 0 0 1 19 12 A 3 3 0 0 1 16 15 L 8 15 A 3 3 0 0 1 5 12 A 3 3 0 0 1 8 9 z M 8 10 A 2 2 0 0 0 6 12 A 2 2 0 0 0 8 14 A 2 2 0 0 0 10 12 A 2 2 0 0 0 8 10 z M 16 10 A 2 2 0 0 0 14 12 A 2 2 0 0 0 16 14 A 2 2 0 0 0 18 12 A 2 2 0 0 0 16 10 z" style="color:#000;fill:gray;fill-opacity:1;-inkscape-stroke:none"/></svg>