<svg xmlns="http://www.w3.org/2000/svg" xmlns:svg="http://www.w3.org/2000/svg" id="svg8" width="24" height="24" version="1.1"><g id="g6" fill="gray" color="#000" transform="matrix(1.25,0,0,1.25,2,2)" style="stroke-width:.8"><path style="line-height:normal;font-variant-ligatures:normal;font-variant-position:normal;font-variant-caps:normal;font-variant-numeric:normal;font-variant-alternates:normal;font-feature-settings:normal;text-indent:0;text-align:start;text-decoration-line:none;text-decoration-style:solid;text-decoration-color:#000;text-transform:none;text-orientation:mixed;shape-padding:0;isolation:auto;mix-blend-mode:normal;stroke-width:.64;marker:none" id="path2" d="m 7,1 c -0.658,0 -1.179,0.06 -1.617,0.225 a 1.88,1.88 0 0 0 -0.998,0.837 c -0.416,0.753 -0.37,1.674 -0.385,2.932 v 10.006 h 1 v -10 c 0.015,-1.259 0.06,-2.09 0.262,-2.455 0.1,-0.183 0.212,-0.287 0.472,-0.385 0.26,-0.097 0.674,-0.16 1.266,-0.16 h 2 c 0.592,0 1.006,0.063 1.266,0.16 0.26,0.098 0.371,0.202 0.472,0.385 0.202,0.366 0.247,1.196 0.262,2.455 v 4.5 h 1 v -4.506 c -0.015,-1.258 0.03,-2.179 -0.385,-2.932 a 1.88,1.88 0 0 0 -0.998,-0.837 c -0.439,-0.165 -0.96,-0.225 -1.617,-0.225 z" font-family="sans-serif" font-weight="400" overflow="visible" white-space="normal"/><path style="stroke-width:.64;marker:none" id="path4" d="m 14,8 -5,10e-4 c 0.348,0.76 0.737,1.535 1.166,2.323 0.431,0.78 0.875,1.534 1.334,2.259 0.449,-0.725 0.889,-1.478 1.32,-2.26 0.43,-0.788 0.823,-1.562 1.18,-2.323 z" overflow="visible"/></g></svg>