<svg xmlns="http://www.w3.org/2000/svg" xmlns:svg="http://www.w3.org/2000/svg" id="svg4" width="24" height="24" version="1.1"><path id="path2" fill="gray" d="m 22,14.5 c -1.0925,-0.8625 -2.19625,-1.74625 -3.32,-2.51 -1.25,-0.85 -2.465,-1.61 -3.64,-2.2825 -1.085,-0.62 -2.2175,-1.0875 -3.04,-1.4575 -0.8225,0.37125 -1.955,0.8375 -3.04,1.4575 a 56.0475,56.0475 0 0 0 -3.64,2.2825 c -1.125,0.7625 -2.2275,1.64625 -3.32,2.51 h 1.8625 c 0.65625,-0.5 1.32875,-1.045 2.03125,-1.525 0.8875,-0.60875 1.79625,-1.18125 2.725,-1.715 a 49.1375,49.1375 0 0 1 3.1275,-1.60625 l 0.25375,-0.12 0.25375,0.12 c 0.8875,0.41875 2.185,1.065 3.1275,1.60625 0.92875,0.53375 1.8375,1.10625 2.725,1.71375 0.7025,0.48125 1.375,1.025 2.03125,1.52625 z m -8.75,-10 a 1.25,1.25 0 0 0 -1.25,-1.25 1.25,1.25 0 0 0 -1.25,1.25 1.25,1.25 0 0 0 1.25,1.25 1.25,1.25 0 0 0 1.25,-1.25 z" style="stroke-width:1"/></svg>